%TF.GenerationSoftware,KiCad,Pcbnew,8.0.8*%
%TF.CreationDate,2026-01-29T16:31:32+11:00*%
%TF.ProjectId,lfo_rw,6c666f5f-7277-42e6-9b69-6361645f7063,rev?*%
%TF.SameCoordinates,PX8a54990PY3815e90*%
%TF.FileFunction,Copper,L1,Top*%
%TF.FilePolarity,Positive*%
%FSLAX46Y46*%
G04 Gerber Fmt 4.6, Leading zero omitted, Abs format (unit mm)*
G04 Created by KiCad (PCBNEW 8.0.8) date 2026-01-29 16:31:32*
%MOMM*%
%LPD*%
G01*
G04 APERTURE LIST*
%ADD10C,0.250000*%
%TA.AperFunction,NonConductor*%
%ADD11C,0.250000*%
%TD*%
%TA.AperFunction,ComponentPad*%
%ADD12O,1.600000X1.600000*%
%TD*%
%TA.AperFunction,ComponentPad*%
%ADD13C,1.600000*%
%TD*%
%TA.AperFunction,ComponentPad*%
%ADD14C,2.340000*%
%TD*%
%TA.AperFunction,ComponentPad*%
%ADD15O,1.400000X1.400000*%
%TD*%
%TA.AperFunction,ComponentPad*%
%ADD16C,1.400000*%
%TD*%
%TA.AperFunction,ComponentPad*%
%ADD17C,1.500000*%
%TD*%
%TA.AperFunction,ComponentPad*%
%ADD18R,1.500000X1.500000*%
%TD*%
%TA.AperFunction,ComponentPad*%
%ADD19O,1.600000X2.400000*%
%TD*%
%TA.AperFunction,ComponentPad*%
%ADD20R,1.600000X2.400000*%
%TD*%
%TA.AperFunction,ComponentPad*%
%ADD21O,2.400000X1.600000*%
%TD*%
%TA.AperFunction,ComponentPad*%
%ADD22R,2.400000X1.600000*%
%TD*%
%TA.AperFunction,ComponentPad*%
%ADD23O,1.700000X1.700000*%
%TD*%
%TA.AperFunction,ComponentPad*%
%ADD24R,1.700000X1.700000*%
%TD*%
G04 APERTURE END LIST*
D10*
D11*
X-1950929Y-62832857D02*
X-1950929Y-63547143D01*
X-1950929Y-63547143D02*
X-450929Y-63547143D01*
X-1165215Y-61832857D02*
X-1165215Y-62332857D01*
X-1950929Y-62332857D02*
X-450929Y-62332857D01*
X-450929Y-62332857D02*
X-450929Y-61618571D01*
X-450929Y-60761428D02*
X-450929Y-60475714D01*
X-450929Y-60475714D02*
X-522358Y-60332857D01*
X-522358Y-60332857D02*
X-665215Y-60190000D01*
X-665215Y-60190000D02*
X-950929Y-60118571D01*
X-950929Y-60118571D02*
X-1450929Y-60118571D01*
X-1450929Y-60118571D02*
X-1736643Y-60190000D01*
X-1736643Y-60190000D02*
X-1879500Y-60332857D01*
X-1879500Y-60332857D02*
X-1950929Y-60475714D01*
X-1950929Y-60475714D02*
X-1950929Y-60761428D01*
X-1950929Y-60761428D02*
X-1879500Y-60904286D01*
X-1879500Y-60904286D02*
X-1736643Y-61047143D01*
X-1736643Y-61047143D02*
X-1450929Y-61118571D01*
X-1450929Y-61118571D02*
X-950929Y-61118571D01*
X-950929Y-61118571D02*
X-665215Y-61047143D01*
X-665215Y-61047143D02*
X-522358Y-60904286D01*
X-522358Y-60904286D02*
X-450929Y-60761428D01*
X-1950929Y-57475714D02*
X-1236643Y-57975714D01*
X-1950929Y-58332857D02*
X-450929Y-58332857D01*
X-450929Y-58332857D02*
X-450929Y-57761428D01*
X-450929Y-57761428D02*
X-522358Y-57618571D01*
X-522358Y-57618571D02*
X-593786Y-57547142D01*
X-593786Y-57547142D02*
X-736643Y-57475714D01*
X-736643Y-57475714D02*
X-950929Y-57475714D01*
X-950929Y-57475714D02*
X-1093786Y-57547142D01*
X-1093786Y-57547142D02*
X-1165215Y-57618571D01*
X-1165215Y-57618571D02*
X-1236643Y-57761428D01*
X-1236643Y-57761428D02*
X-1236643Y-58332857D01*
X-450929Y-56975714D02*
X-1950929Y-56618571D01*
X-1950929Y-56618571D02*
X-879500Y-56332857D01*
X-879500Y-56332857D02*
X-1950929Y-56047142D01*
X-1950929Y-56047142D02*
X-450929Y-55690000D01*
D12*
%TO.P,470k,2*%
%TO.N,N/C*%
X-51112263Y-69603310D03*
D13*
%TO.P,470k,1*%
X-61272263Y-69603310D03*
%TD*%
D14*
%TO.P,,1*%
%TO.N,N/C*%
X-72128880Y-26153602D03*
%TD*%
D12*
%TO.P,1k,2*%
%TO.N,N/C*%
X-61327265Y-29205537D03*
D13*
%TO.P,1k,1*%
X-71487265Y-29205537D03*
%TD*%
%TO.P,,1*%
%TO.N,N/C*%
X-44450000Y-76200000D03*
%TD*%
D12*
%TO.P,220,2*%
%TO.N,N/C*%
X-13400578Y-21939025D03*
D13*
%TO.P,220,1*%
X-23560578Y-21939025D03*
%TD*%
D12*
%TO.P,4.7k,2*%
%TO.N,N/C*%
X-14530925Y-54949176D03*
D13*
%TO.P,4.7k,1*%
X-24690925Y-54949176D03*
%TD*%
%TO.P,47pf,2*%
%TO.N,N/C*%
X-38373138Y-37311735D03*
%TO.P,47pf,1*%
X-33373138Y-37311735D03*
%TD*%
D14*
%TO.P,,1*%
%TO.N,N/C*%
X-33020000Y-2540000D03*
%TD*%
%TO.P,,1*%
%TO.N,N/C*%
X-66557887Y-5080000D03*
%TD*%
D12*
%TO.P,3m,2*%
%TO.N,N/C*%
X-28305003Y-45837777D03*
D13*
%TO.P,3m,1*%
X-38465003Y-45837777D03*
%TD*%
D12*
%TO.P,100k,2*%
%TO.N,N/C*%
X-28305003Y-40751218D03*
D13*
%TO.P,100k,1*%
X-38465003Y-40751218D03*
%TD*%
D12*
%TO.P,100k,2*%
%TO.N,N/C*%
X-28936282Y-48900308D03*
D13*
%TO.P,100k,1*%
X-28936282Y-59060308D03*
%TD*%
D12*
%TO.P,1m,2*%
%TO.N,N/C*%
X-47708106Y-67066589D03*
D13*
%TO.P,1m,1*%
X-47708106Y-77226589D03*
%TD*%
D14*
%TO.P,,1*%
%TO.N,N/C*%
X-9636873Y-323168D03*
%TD*%
%TO.P,,1*%
%TO.N,N/C*%
X-58685832Y-9406309D03*
%TD*%
D12*
%TO.P,390k,2*%
%TO.N,N/C*%
X-19859701Y-73599891D03*
D13*
%TO.P,390k,1*%
X-30019701Y-73599891D03*
%TD*%
D12*
%TO.P,100k,2*%
%TO.N,N/C*%
X-11745428Y-202060D03*
D13*
%TO.P,100k,1*%
X-21905428Y-202060D03*
%TD*%
D14*
%TO.P,,1*%
%TO.N,N/C*%
X-21868836Y-13970000D03*
%TD*%
D12*
%TO.P,1k,2*%
%TO.N,N/C*%
X-51226813Y-64758968D03*
D13*
%TO.P,1k,1*%
X-61386813Y-64758968D03*
%TD*%
D14*
%TO.P,,1*%
%TO.N,N/C*%
X-36644078Y-14073025D03*
%TD*%
D15*
%TO.P,10nf,2*%
%TO.N,N/C*%
X-49077888Y-49669726D03*
D16*
%TO.P,10nf,1*%
X-49077888Y-57289726D03*
%TD*%
D12*
%TO.P,1m,2*%
%TO.N,N/C*%
X-33538407Y-67066589D03*
D13*
%TO.P,1m,1*%
X-33538407Y-77226589D03*
%TD*%
D12*
%TO.P,R28,2*%
%TO.N,N/C*%
X-23082703Y-32678322D03*
D13*
%TO.P,R28,1*%
X-23082703Y-42838322D03*
%TD*%
D14*
%TO.P,,1*%
%TO.N,N/C*%
X-8546896Y-26516927D03*
%TD*%
D13*
%TO.P,1uf,2*%
%TO.N,N/C*%
X-12145603Y-75965545D03*
%TO.P,1uf,1*%
X-17145603Y-75965545D03*
%TD*%
D12*
%TO.P,10k,2*%
%TO.N,N/C*%
X-8314020Y-37360179D03*
D13*
%TO.P,10k,1*%
X-18474020Y-37360179D03*
%TD*%
D12*
%TO.P,4.7k,2*%
%TO.N,N/C*%
X-59098868Y-53132548D03*
D13*
%TO.P,4.7k,1*%
X-69258868Y-53132548D03*
%TD*%
%TO.P,,1*%
%TO.N,N/C*%
X-3152270Y-45708759D03*
%TD*%
%TO.P,,1*%
%TO.N,N/C*%
X-36830000Y-76200000D03*
%TD*%
D14*
%TO.P,,1*%
%TO.N,N/C*%
X-13149021Y-49388275D03*
%TD*%
%TO.P,,1*%
%TO.N,N/C*%
X-16510000Y-13970000D03*
%TD*%
D13*
%TO.P,,1*%
%TO.N,N/C*%
X-15240000Y-45720000D03*
%TD*%
D14*
%TO.P,,1*%
%TO.N,N/C*%
X-72128880Y-49378183D03*
%TD*%
D13*
%TO.P,1uf,2*%
%TO.N,N/C*%
X-12266711Y-67245730D03*
%TO.P,1uf,1*%
X-17266711Y-67245730D03*
%TD*%
D14*
%TO.P,,1*%
%TO.N,N/C*%
X-60502460Y-17827390D03*
%TD*%
%TO.P,,1*%
%TO.N,N/C*%
X-55740156Y-33747752D03*
%TD*%
D13*
%TO.P,,1*%
%TO.N,N/C*%
X-52883111Y-22080114D03*
%TD*%
D12*
%TO.P,220,2*%
%TO.N,N/C*%
X-58178443Y-21858286D03*
D13*
%TO.P,220,1*%
X-68338443Y-21858286D03*
%TD*%
D12*
%TO.P,1m,2*%
%TO.N,N/C*%
X-19617484Y-61367929D03*
D13*
%TO.P,1m,1*%
X-29777484Y-61367929D03*
%TD*%
%TO.P,47pf,2*%
%TO.N,N/C*%
X-43483201Y-37311735D03*
%TO.P,47pf,1*%
X-48483201Y-37311735D03*
%TD*%
D12*
%TO.P,1m,2*%
%TO.N,N/C*%
X-25672911Y-9406309D03*
D13*
%TO.P,1m,1*%
X-35832911Y-9406309D03*
%TD*%
D12*
%TO.P,1k,2*%
%TO.N,N/C*%
X-14530925Y-51437028D03*
D13*
%TO.P,1k,1*%
X-24690925Y-51437028D03*
%TD*%
D12*
%TO.P,3m,2*%
%TO.N,N/C*%
X-43403201Y-45837777D03*
D13*
%TO.P,3m,1*%
X-53563201Y-45837777D03*
%TD*%
D17*
%TO.P,2n3904,3*%
%TO.N,N/C*%
X-24782000Y-4198642D03*
%TO.P,2n3904,2*%
X-27322000Y-1658642D03*
D18*
%TO.P,2n3904,1*%
X-29862000Y-4198642D03*
%TD*%
D12*
%TO.P,100k,2*%
%TO.N,N/C*%
X-52068014Y-48900308D03*
D13*
%TO.P,100k,1*%
X-52068014Y-59060308D03*
%TD*%
D19*
%TO.P,TL074,14*%
%TO.N,N/C*%
X-48462390Y-22157869D03*
%TO.P,TL074,13*%
X-45922390Y-22157869D03*
%TO.P,TL074,12*%
X-43382390Y-22157869D03*
%TO.P,TL074,11*%
X-40842390Y-22157869D03*
%TO.P,TL074,10*%
X-38302390Y-22157869D03*
%TO.P,TL074,9*%
X-35762390Y-22157869D03*
%TO.P,TL074,8*%
X-33222390Y-22157869D03*
%TO.P,TL074,7*%
X-33222390Y-29777869D03*
%TO.P,TL074,6*%
X-35762390Y-29777869D03*
%TO.P,TL074,5*%
X-38302390Y-29777869D03*
%TO.P,TL074,4*%
X-40842390Y-29777869D03*
%TO.P,TL074,3*%
X-43382390Y-29777869D03*
%TO.P,TL074,2*%
X-45922390Y-29777869D03*
D20*
%TO.P,TL074,1*%
X-48462390Y-29777869D03*
%TD*%
D14*
%TO.P,,1*%
%TO.N,N/C*%
X-63500000Y-5080000D03*
%TD*%
%TO.P,,1*%
%TO.N,N/C*%
X-26254530Y-33747752D03*
%TD*%
D12*
%TO.P,470k,2*%
%TO.N,N/C*%
X-19859701Y-69603310D03*
D13*
%TO.P,470k,1*%
X-30019701Y-69603310D03*
%TD*%
D14*
%TO.P,,1*%
%TO.N,N/C*%
X-9636873Y-4198642D03*
%TD*%
D12*
%TO.P,1m,2*%
%TO.N,N/C*%
X-45776928Y-9406309D03*
D13*
%TO.P,1m,1*%
X-55936928Y-9406309D03*
%TD*%
D15*
%TO.P,10nf,2*%
%TO.N,N/C*%
X-31880475Y-49669726D03*
D16*
%TO.P,10nf,1*%
X-31880475Y-57289726D03*
%TD*%
D21*
%TO.P,LM13700,16*%
%TO.N,N/C*%
X-44677877Y-72796300D03*
%TO.P,LM13700,15*%
X-44677877Y-70256300D03*
%TO.P,LM13700,14*%
X-44677877Y-67716300D03*
%TO.P,LM13700,13*%
X-44677877Y-65176300D03*
%TO.P,LM13700,12*%
X-44677877Y-62636300D03*
%TO.P,LM13700,11*%
X-44677877Y-60096300D03*
%TO.P,LM13700,10*%
X-44677877Y-57556300D03*
%TO.P,LM13700,9*%
X-44677877Y-55016300D03*
%TO.P,LM13700,8*%
X-37057877Y-55016300D03*
%TO.P,LM13700,7*%
X-37057877Y-57556300D03*
%TO.P,LM13700,6*%
X-37057877Y-60096300D03*
%TO.P,LM13700,5*%
X-37057877Y-62636300D03*
%TO.P,LM13700,4*%
X-37057877Y-65176300D03*
%TO.P,LM13700,3*%
X-37057877Y-67716300D03*
%TO.P,LM13700,2*%
X-37057877Y-70256300D03*
D22*
%TO.P,LM13700,1*%
X-37057877Y-72796300D03*
%TD*%
D14*
%TO.P,,1*%
%TO.N,N/C*%
X-65467911Y-13970000D03*
%TD*%
%TO.P,,1*%
%TO.N,N/C*%
X-40519551Y-266651D03*
%TD*%
%TO.P,,1*%
%TO.N,N/C*%
X-23443247Y-9349792D03*
%TD*%
D23*
%TO.P,REF\u002A\u002A,10*%
%TO.N,N/C*%
X-68232539Y-64572881D03*
%TO.P,REF\u002A\u002A,9*%
X-70772539Y-64572881D03*
%TO.P,REF\u002A\u002A,8*%
X-68232539Y-67112881D03*
%TO.P,REF\u002A\u002A,7*%
X-70772539Y-67112881D03*
%TO.P,REF\u002A\u002A,6*%
X-68232539Y-69652881D03*
%TO.P,REF\u002A\u002A,5*%
X-70772539Y-69652881D03*
%TO.P,REF\u002A\u002A,4*%
X-68232539Y-72192881D03*
%TO.P,REF\u002A\u002A,3*%
X-70772539Y-72192881D03*
%TO.P,REF\u002A\u002A,2*%
X-68232539Y-74732881D03*
D24*
%TO.P,REF\u002A\u002A,1*%
X-70772539Y-74732881D03*
%TD*%
D12*
%TO.P,1k,2*%
%TO.N,N/C*%
X-19617484Y-64274534D03*
D13*
%TO.P,1k,1*%
X-29777484Y-64274534D03*
%TD*%
%TO.P,20nf,2*%
%TO.N,N/C*%
X-46054985Y-18176586D03*
%TO.P,20nf,1*%
X-51054985Y-18176586D03*
%TD*%
D12*
%TO.P,390k,2*%
%TO.N,N/C*%
X-51112263Y-73357674D03*
D13*
%TO.P,390k,1*%
X-61272263Y-73357674D03*
%TD*%
D14*
%TO.P,,1*%
%TO.N,N/C*%
X-56263661Y-22066189D03*
%TD*%
%TO.P,,1*%
%TO.N,N/C*%
X-65589019Y-8865358D03*
%TD*%
%TO.P,,1*%
%TO.N,N/C*%
X-65467911Y-17827390D03*
%TD*%
%TO.P,,1*%
%TO.N,N/C*%
X-16661169Y-17827390D03*
%TD*%
D12*
%TO.P,1m,2*%
%TO.N,N/C*%
X-51226813Y-61489037D03*
D13*
%TO.P,1m,1*%
X-61386813Y-61489037D03*
%TD*%
D12*
%TO.P,100k,2*%
%TO.N,N/C*%
X-42506998Y-80952D03*
D13*
%TO.P,100k,1*%
X-52666998Y-80952D03*
%TD*%
D12*
%TO.P,100k,2*%
%TO.N,N/C*%
X-43403201Y-40751218D03*
D13*
%TO.P,100k,1*%
X-53563201Y-40751218D03*
%TD*%
D12*
%TO.P,200k,2*%
%TO.N,N/C*%
X-43403201Y-33726923D03*
D13*
%TO.P,200k,1*%
X-53563201Y-33726923D03*
%TD*%
D12*
%TO.P,3k,2*%
%TO.N,N/C*%
X-11745428Y-4198642D03*
D13*
%TO.P,3k,1*%
X-21905428Y-4198642D03*
%TD*%
D12*
%TO.P,1k,2*%
%TO.N,N/C*%
X-8314020Y-29124798D03*
D13*
%TO.P,1k,1*%
X-18474020Y-29124798D03*
%TD*%
%TO.P,20nf,2*%
%TO.N,N/C*%
X-30974035Y-18176586D03*
%TO.P,20nf,1*%
X-35974035Y-18176586D03*
%TD*%
D12*
%TO.P,10k,2*%
%TO.N,N/C*%
X-8314020Y-33807662D03*
D13*
%TO.P,10k,1*%
X-18474020Y-33807662D03*
%TD*%
D12*
%TO.P,1k,2*%
%TO.N,N/C*%
X-59098868Y-49378183D03*
D13*
%TO.P,1k,1*%
X-69258868Y-49378183D03*
%TD*%
D17*
%TO.P,2n3904,3*%
%TO.N,N/C*%
X-55301352Y-3966517D03*
%TO.P,2n3904,2*%
X-57841352Y-1426517D03*
D18*
%TO.P,2n3904,1*%
X-60381352Y-3966517D03*
%TD*%
D12*
%TO.P,R10,2*%
%TO.N,N/C*%
X-58588564Y-31076796D03*
D13*
%TO.P,R10,1*%
X-58588564Y-41236796D03*
%TD*%
D14*
%TO.P,,1*%
%TO.N,N/C*%
X-68132298Y-8865358D03*
%TD*%
%TO.P,,1*%
%TO.N,N/C*%
X-41609528Y-14073025D03*
%TD*%
D12*
%TO.P,3k,2*%
%TO.N,N/C*%
X-42506998Y-4198642D03*
D13*
%TO.P,3k,1*%
X-52666998Y-4198642D03*
%TD*%
D14*
%TO.P,,1*%
%TO.N,N/C*%
X-72128880Y-40444410D03*
%TD*%
%TO.P,,1*%
%TO.N,N/C*%
X-21868836Y-17827390D03*
%TD*%
%TO.P,,1*%
%TO.N,N/C*%
X-40519551Y-4142125D03*
%TD*%
D15*
%TO.P,0,2*%
%TO.N,N/C*%
X-65196813Y-67310000D03*
D16*
%TO.P,0,1*%
X-57576813Y-67310000D03*
%TD*%
D13*
%TO.P,,1*%
%TO.N,N/C*%
X-52883111Y-29321909D03*
%TD*%
D14*
%TO.P,,1*%
%TO.N,N/C*%
X-37855163Y-266651D03*
%TD*%
%TO.P,,1*%
%TO.N,N/C*%
X-33020000Y-5474319D03*
%TD*%
D12*
%TO.P,10k,2*%
%TO.N,N/C*%
X-61327265Y-33888401D03*
D13*
%TO.P,10k,1*%
X-71487265Y-33888401D03*
%TD*%
D14*
%TO.P,,1*%
%TO.N,N/C*%
X-26228743Y-22066189D03*
%TD*%
%TO.P,,1*%
%TO.N,N/C*%
X-60502460Y-13970000D03*
%TD*%
D12*
%TO.P,10k,2*%
%TO.N,N/C*%
X-61327265Y-37279440D03*
D13*
%TO.P,10k,1*%
X-71487265Y-37279440D03*
%TD*%
D14*
%TO.P,,1*%
%TO.N,N/C*%
X-6972485Y-323168D03*
%TD*%
D12*
%TO.P,200k,2*%
%TO.N,N/C*%
X-28305003Y-33726923D03*
D13*
%TO.P,200k,1*%
X-38465003Y-33726923D03*
%TD*%
D14*
%TO.P,,1*%
%TO.N,N/C*%
X-8546896Y-40081084D03*
%TD*%
M02*
