%TF.GenerationSoftware,KiCad,Pcbnew,8.0.8*%
%TF.CreationDate,2026-01-29T15:06:10+11:00*%
%TF.ProjectId,lfo_rw,6c666f5f-7277-42e6-9b69-6361645f7063,rev?*%
%TF.SameCoordinates,PX8b48bd0PY38ecc10*%
%TF.FileFunction,Drillmap*%
%TF.FilePolarity,Positive*%
%FSLAX45Y45*%
G04 Gerber Fmt 4.5, Leading zero omitted, Abs format (unit mm)*
G04 Created by KiCad (PCBNEW 8.0.8) date 2026-01-29 15:06:10*
%MOMM*%
%LPD*%
G01*
G04 APERTURE LIST*
%ADD10C,0.100000*%
%ADD11C,0.200000*%
%ADD12C,0.150000*%
G04 APERTURE END LIST*
D10*
X-7493000Y381000D02*
X381000Y381000D01*
X381000Y-8001000D01*
X-7493000Y-8001000D01*
X-7493000Y381000D01*
D11*
D12*
X-7187000Y75000D02*
X-7037000Y-75000D01*
X-7037000Y75000D02*
X-7187000Y-75000D01*
X-75000Y-7545000D02*
X75000Y-7695000D01*
X75000Y-7545000D02*
X-75000Y-7695000D01*
D11*
X100000Y0D02*
G75*
G02*
X-100000Y0I-100000J0D01*
G01*
X-100000Y0D02*
G75*
G02*
X100000Y0I100000J0D01*
G01*
X-7237223Y-8317484D02*
X-7237223Y-8117484D01*
X-7237223Y-8117484D02*
X-7189604Y-8117484D01*
X-7189604Y-8117484D02*
X-7161033Y-8127008D01*
X-7161033Y-8127008D02*
X-7141985Y-8146055D01*
X-7141985Y-8146055D02*
X-7132461Y-8165103D01*
X-7132461Y-8165103D02*
X-7122937Y-8203198D01*
X-7122937Y-8203198D02*
X-7122937Y-8231769D01*
X-7122937Y-8231769D02*
X-7132461Y-8269865D01*
X-7132461Y-8269865D02*
X-7141985Y-8288912D01*
X-7141985Y-8288912D02*
X-7161033Y-8307960D01*
X-7161033Y-8307960D02*
X-7189604Y-8317484D01*
X-7189604Y-8317484D02*
X-7237223Y-8317484D01*
X-7037223Y-8317484D02*
X-7037223Y-8184150D01*
X-7037223Y-8222246D02*
X-7027699Y-8203198D01*
X-7027699Y-8203198D02*
X-7018176Y-8193674D01*
X-7018176Y-8193674D02*
X-6999128Y-8184150D01*
X-6999128Y-8184150D02*
X-6980080Y-8184150D01*
X-6913414Y-8317484D02*
X-6913414Y-8184150D01*
X-6913414Y-8117484D02*
X-6922937Y-8127008D01*
X-6922937Y-8127008D02*
X-6913414Y-8136531D01*
X-6913414Y-8136531D02*
X-6903890Y-8127008D01*
X-6903890Y-8127008D02*
X-6913414Y-8117484D01*
X-6913414Y-8117484D02*
X-6913414Y-8136531D01*
X-6789604Y-8317484D02*
X-6808652Y-8307960D01*
X-6808652Y-8307960D02*
X-6818176Y-8288912D01*
X-6818176Y-8288912D02*
X-6818176Y-8117484D01*
X-6684842Y-8317484D02*
X-6703890Y-8307960D01*
X-6703890Y-8307960D02*
X-6713414Y-8288912D01*
X-6713414Y-8288912D02*
X-6713414Y-8117484D01*
X-6456271Y-8317484D02*
X-6456271Y-8117484D01*
X-6456271Y-8117484D02*
X-6389604Y-8260341D01*
X-6389604Y-8260341D02*
X-6322937Y-8117484D01*
X-6322937Y-8117484D02*
X-6322937Y-8317484D01*
X-6141985Y-8317484D02*
X-6141985Y-8212722D01*
X-6141985Y-8212722D02*
X-6151509Y-8193674D01*
X-6151509Y-8193674D02*
X-6170556Y-8184150D01*
X-6170556Y-8184150D02*
X-6208652Y-8184150D01*
X-6208652Y-8184150D02*
X-6227699Y-8193674D01*
X-6141985Y-8307960D02*
X-6161033Y-8317484D01*
X-6161033Y-8317484D02*
X-6208652Y-8317484D01*
X-6208652Y-8317484D02*
X-6227699Y-8307960D01*
X-6227699Y-8307960D02*
X-6237223Y-8288912D01*
X-6237223Y-8288912D02*
X-6237223Y-8269865D01*
X-6237223Y-8269865D02*
X-6227699Y-8250817D01*
X-6227699Y-8250817D02*
X-6208652Y-8241293D01*
X-6208652Y-8241293D02*
X-6161033Y-8241293D01*
X-6161033Y-8241293D02*
X-6141985Y-8231769D01*
X-6046747Y-8184150D02*
X-6046747Y-8384150D01*
X-6046747Y-8193674D02*
X-6027699Y-8184150D01*
X-6027699Y-8184150D02*
X-5989604Y-8184150D01*
X-5989604Y-8184150D02*
X-5970556Y-8193674D01*
X-5970556Y-8193674D02*
X-5961033Y-8203198D01*
X-5961033Y-8203198D02*
X-5951509Y-8222246D01*
X-5951509Y-8222246D02*
X-5951509Y-8279388D01*
X-5951509Y-8279388D02*
X-5961033Y-8298436D01*
X-5961033Y-8298436D02*
X-5970556Y-8307960D01*
X-5970556Y-8307960D02*
X-5989604Y-8317484D01*
X-5989604Y-8317484D02*
X-6027699Y-8317484D01*
X-6027699Y-8317484D02*
X-6046747Y-8307960D01*
X-5865795Y-8298436D02*
X-5856271Y-8307960D01*
X-5856271Y-8307960D02*
X-5865795Y-8317484D01*
X-5865795Y-8317484D02*
X-5875318Y-8307960D01*
X-5875318Y-8307960D02*
X-5865795Y-8298436D01*
X-5865795Y-8298436D02*
X-5865795Y-8317484D01*
X-5865795Y-8193674D02*
X-5856271Y-8203198D01*
X-5856271Y-8203198D02*
X-5865795Y-8212722D01*
X-5865795Y-8212722D02*
X-5875318Y-8203198D01*
X-5875318Y-8203198D02*
X-5865795Y-8193674D01*
X-5865795Y-8193674D02*
X-5865795Y-8212722D01*
D12*
X-7648000Y-8571000D02*
X-7498000Y-8721000D01*
X-7498000Y-8571000D02*
X-7648000Y-8721000D01*
D11*
X-7132461Y-8737484D02*
X-7246747Y-8737484D01*
X-7189604Y-8737484D02*
X-7189604Y-8537484D01*
X-7189604Y-8537484D02*
X-7208652Y-8566055D01*
X-7208652Y-8566055D02*
X-7227699Y-8585103D01*
X-7227699Y-8585103D02*
X-7246747Y-8594627D01*
X-7046747Y-8718436D02*
X-7037223Y-8727960D01*
X-7037223Y-8727960D02*
X-7046747Y-8737484D01*
X-7046747Y-8737484D02*
X-7056271Y-8727960D01*
X-7056271Y-8727960D02*
X-7046747Y-8718436D01*
X-7046747Y-8718436D02*
X-7046747Y-8737484D01*
X-6856271Y-8537484D02*
X-6951509Y-8537484D01*
X-6951509Y-8537484D02*
X-6961033Y-8632722D01*
X-6961033Y-8632722D02*
X-6951509Y-8623198D01*
X-6951509Y-8623198D02*
X-6932461Y-8613674D01*
X-6932461Y-8613674D02*
X-6884842Y-8613674D01*
X-6884842Y-8613674D02*
X-6865795Y-8623198D01*
X-6865795Y-8623198D02*
X-6856271Y-8632722D01*
X-6856271Y-8632722D02*
X-6846747Y-8651770D01*
X-6846747Y-8651770D02*
X-6846747Y-8699389D01*
X-6846747Y-8699389D02*
X-6856271Y-8718436D01*
X-6856271Y-8718436D02*
X-6865795Y-8727960D01*
X-6865795Y-8727960D02*
X-6884842Y-8737484D01*
X-6884842Y-8737484D02*
X-6932461Y-8737484D01*
X-6932461Y-8737484D02*
X-6951509Y-8727960D01*
X-6951509Y-8727960D02*
X-6961033Y-8718436D01*
X-6722937Y-8537484D02*
X-6703890Y-8537484D01*
X-6703890Y-8537484D02*
X-6684842Y-8547008D01*
X-6684842Y-8547008D02*
X-6675318Y-8556531D01*
X-6675318Y-8556531D02*
X-6665795Y-8575579D01*
X-6665795Y-8575579D02*
X-6656271Y-8613674D01*
X-6656271Y-8613674D02*
X-6656271Y-8661293D01*
X-6656271Y-8661293D02*
X-6665795Y-8699389D01*
X-6665795Y-8699389D02*
X-6675318Y-8718436D01*
X-6675318Y-8718436D02*
X-6684842Y-8727960D01*
X-6684842Y-8727960D02*
X-6703890Y-8737484D01*
X-6703890Y-8737484D02*
X-6722937Y-8737484D01*
X-6722937Y-8737484D02*
X-6741985Y-8727960D01*
X-6741985Y-8727960D02*
X-6751509Y-8718436D01*
X-6751509Y-8718436D02*
X-6761033Y-8699389D01*
X-6761033Y-8699389D02*
X-6770556Y-8661293D01*
X-6770556Y-8661293D02*
X-6770556Y-8613674D01*
X-6770556Y-8613674D02*
X-6761033Y-8575579D01*
X-6761033Y-8575579D02*
X-6751509Y-8556531D01*
X-6751509Y-8556531D02*
X-6741985Y-8547008D01*
X-6741985Y-8547008D02*
X-6722937Y-8537484D01*
X-6532461Y-8537484D02*
X-6513414Y-8537484D01*
X-6513414Y-8537484D02*
X-6494366Y-8547008D01*
X-6494366Y-8547008D02*
X-6484842Y-8556531D01*
X-6484842Y-8556531D02*
X-6475318Y-8575579D01*
X-6475318Y-8575579D02*
X-6465795Y-8613674D01*
X-6465795Y-8613674D02*
X-6465795Y-8661293D01*
X-6465795Y-8661293D02*
X-6475318Y-8699389D01*
X-6475318Y-8699389D02*
X-6484842Y-8718436D01*
X-6484842Y-8718436D02*
X-6494366Y-8727960D01*
X-6494366Y-8727960D02*
X-6513414Y-8737484D01*
X-6513414Y-8737484D02*
X-6532461Y-8737484D01*
X-6532461Y-8737484D02*
X-6551509Y-8727960D01*
X-6551509Y-8727960D02*
X-6561033Y-8718436D01*
X-6561033Y-8718436D02*
X-6570556Y-8699389D01*
X-6570556Y-8699389D02*
X-6580080Y-8661293D01*
X-6580080Y-8661293D02*
X-6580080Y-8613674D01*
X-6580080Y-8613674D02*
X-6570556Y-8575579D01*
X-6570556Y-8575579D02*
X-6561033Y-8556531D01*
X-6561033Y-8556531D02*
X-6551509Y-8547008D01*
X-6551509Y-8547008D02*
X-6532461Y-8537484D01*
X-6380080Y-8737484D02*
X-6380080Y-8604150D01*
X-6380080Y-8623198D02*
X-6370556Y-8613674D01*
X-6370556Y-8613674D02*
X-6351509Y-8604150D01*
X-6351509Y-8604150D02*
X-6322937Y-8604150D01*
X-6322937Y-8604150D02*
X-6303890Y-8613674D01*
X-6303890Y-8613674D02*
X-6294366Y-8632722D01*
X-6294366Y-8632722D02*
X-6294366Y-8737484D01*
X-6294366Y-8632722D02*
X-6284842Y-8613674D01*
X-6284842Y-8613674D02*
X-6265795Y-8604150D01*
X-6265795Y-8604150D02*
X-6237223Y-8604150D01*
X-6237223Y-8604150D02*
X-6218175Y-8613674D01*
X-6218175Y-8613674D02*
X-6208652Y-8632722D01*
X-6208652Y-8632722D02*
X-6208652Y-8737484D01*
X-6113414Y-8737484D02*
X-6113414Y-8604150D01*
X-6113414Y-8623198D02*
X-6103890Y-8613674D01*
X-6103890Y-8613674D02*
X-6084842Y-8604150D01*
X-6084842Y-8604150D02*
X-6056271Y-8604150D01*
X-6056271Y-8604150D02*
X-6037223Y-8613674D01*
X-6037223Y-8613674D02*
X-6027699Y-8632722D01*
X-6027699Y-8632722D02*
X-6027699Y-8737484D01*
X-6027699Y-8632722D02*
X-6018175Y-8613674D01*
X-6018175Y-8613674D02*
X-5999128Y-8604150D01*
X-5999128Y-8604150D02*
X-5970556Y-8604150D01*
X-5970556Y-8604150D02*
X-5951509Y-8613674D01*
X-5951509Y-8613674D02*
X-5941985Y-8632722D01*
X-5941985Y-8632722D02*
X-5941985Y-8737484D01*
X-5551509Y-8527960D02*
X-5722937Y-8785103D01*
X-5294366Y-8537484D02*
X-5275318Y-8537484D01*
X-5275318Y-8537484D02*
X-5256271Y-8547008D01*
X-5256271Y-8547008D02*
X-5246747Y-8556531D01*
X-5246747Y-8556531D02*
X-5237223Y-8575579D01*
X-5237223Y-8575579D02*
X-5227699Y-8613674D01*
X-5227699Y-8613674D02*
X-5227699Y-8661293D01*
X-5227699Y-8661293D02*
X-5237223Y-8699389D01*
X-5237223Y-8699389D02*
X-5246747Y-8718436D01*
X-5246747Y-8718436D02*
X-5256271Y-8727960D01*
X-5256271Y-8727960D02*
X-5275318Y-8737484D01*
X-5275318Y-8737484D02*
X-5294366Y-8737484D01*
X-5294366Y-8737484D02*
X-5313414Y-8727960D01*
X-5313414Y-8727960D02*
X-5322937Y-8718436D01*
X-5322937Y-8718436D02*
X-5332461Y-8699389D01*
X-5332461Y-8699389D02*
X-5341985Y-8661293D01*
X-5341985Y-8661293D02*
X-5341985Y-8613674D01*
X-5341985Y-8613674D02*
X-5332461Y-8575579D01*
X-5332461Y-8575579D02*
X-5322937Y-8556531D01*
X-5322937Y-8556531D02*
X-5313414Y-8547008D01*
X-5313414Y-8547008D02*
X-5294366Y-8537484D01*
X-5141985Y-8718436D02*
X-5132461Y-8727960D01*
X-5132461Y-8727960D02*
X-5141985Y-8737484D01*
X-5141985Y-8737484D02*
X-5151509Y-8727960D01*
X-5151509Y-8727960D02*
X-5141985Y-8718436D01*
X-5141985Y-8718436D02*
X-5141985Y-8737484D01*
X-5008652Y-8537484D02*
X-4989604Y-8537484D01*
X-4989604Y-8537484D02*
X-4970556Y-8547008D01*
X-4970556Y-8547008D02*
X-4961033Y-8556531D01*
X-4961033Y-8556531D02*
X-4951509Y-8575579D01*
X-4951509Y-8575579D02*
X-4941985Y-8613674D01*
X-4941985Y-8613674D02*
X-4941985Y-8661293D01*
X-4941985Y-8661293D02*
X-4951509Y-8699389D01*
X-4951509Y-8699389D02*
X-4961033Y-8718436D01*
X-4961033Y-8718436D02*
X-4970556Y-8727960D01*
X-4970556Y-8727960D02*
X-4989604Y-8737484D01*
X-4989604Y-8737484D02*
X-5008652Y-8737484D01*
X-5008652Y-8737484D02*
X-5027699Y-8727960D01*
X-5027699Y-8727960D02*
X-5037223Y-8718436D01*
X-5037223Y-8718436D02*
X-5046747Y-8699389D01*
X-5046747Y-8699389D02*
X-5056271Y-8661293D01*
X-5056271Y-8661293D02*
X-5056271Y-8613674D01*
X-5056271Y-8613674D02*
X-5046747Y-8575579D01*
X-5046747Y-8575579D02*
X-5037223Y-8556531D01*
X-5037223Y-8556531D02*
X-5027699Y-8547008D01*
X-5027699Y-8547008D02*
X-5008652Y-8537484D01*
X-4761033Y-8537484D02*
X-4856271Y-8537484D01*
X-4856271Y-8537484D02*
X-4865794Y-8632722D01*
X-4865794Y-8632722D02*
X-4856271Y-8623198D01*
X-4856271Y-8623198D02*
X-4837223Y-8613674D01*
X-4837223Y-8613674D02*
X-4789604Y-8613674D01*
X-4789604Y-8613674D02*
X-4770556Y-8623198D01*
X-4770556Y-8623198D02*
X-4761033Y-8632722D01*
X-4761033Y-8632722D02*
X-4751509Y-8651770D01*
X-4751509Y-8651770D02*
X-4751509Y-8699389D01*
X-4751509Y-8699389D02*
X-4761033Y-8718436D01*
X-4761033Y-8718436D02*
X-4770556Y-8727960D01*
X-4770556Y-8727960D02*
X-4789604Y-8737484D01*
X-4789604Y-8737484D02*
X-4837223Y-8737484D01*
X-4837223Y-8737484D02*
X-4856271Y-8727960D01*
X-4856271Y-8727960D02*
X-4865794Y-8718436D01*
X-4656271Y-8737484D02*
X-4618175Y-8737484D01*
X-4618175Y-8737484D02*
X-4599128Y-8727960D01*
X-4599128Y-8727960D02*
X-4589604Y-8718436D01*
X-4589604Y-8718436D02*
X-4570556Y-8689865D01*
X-4570556Y-8689865D02*
X-4561033Y-8651770D01*
X-4561033Y-8651770D02*
X-4561033Y-8575579D01*
X-4561033Y-8575579D02*
X-4570556Y-8556531D01*
X-4570556Y-8556531D02*
X-4580080Y-8547008D01*
X-4580080Y-8547008D02*
X-4599128Y-8537484D01*
X-4599128Y-8537484D02*
X-4637223Y-8537484D01*
X-4637223Y-8537484D02*
X-4656271Y-8547008D01*
X-4656271Y-8547008D02*
X-4665794Y-8556531D01*
X-4665794Y-8556531D02*
X-4675318Y-8575579D01*
X-4675318Y-8575579D02*
X-4675318Y-8623198D01*
X-4675318Y-8623198D02*
X-4665794Y-8642246D01*
X-4665794Y-8642246D02*
X-4656271Y-8651770D01*
X-4656271Y-8651770D02*
X-4637223Y-8661293D01*
X-4637223Y-8661293D02*
X-4599128Y-8661293D01*
X-4599128Y-8661293D02*
X-4580080Y-8651770D01*
X-4580080Y-8651770D02*
X-4570556Y-8642246D01*
X-4570556Y-8642246D02*
X-4561033Y-8623198D01*
X-4370556Y-8737484D02*
X-4484842Y-8737484D01*
X-4427699Y-8737484D02*
X-4427699Y-8537484D01*
X-4427699Y-8537484D02*
X-4446747Y-8566055D01*
X-4446747Y-8566055D02*
X-4465794Y-8585103D01*
X-4465794Y-8585103D02*
X-4484842Y-8594627D01*
X-4294366Y-8537484D02*
X-4294366Y-8575579D01*
X-4218175Y-8537484D02*
X-4218175Y-8575579D01*
X-3922937Y-8813674D02*
X-3932461Y-8804150D01*
X-3932461Y-8804150D02*
X-3951509Y-8775579D01*
X-3951509Y-8775579D02*
X-3961032Y-8756531D01*
X-3961032Y-8756531D02*
X-3970556Y-8727960D01*
X-3970556Y-8727960D02*
X-3980080Y-8680341D01*
X-3980080Y-8680341D02*
X-3980080Y-8642246D01*
X-3980080Y-8642246D02*
X-3970556Y-8594627D01*
X-3970556Y-8594627D02*
X-3961032Y-8566055D01*
X-3961032Y-8566055D02*
X-3951509Y-8547008D01*
X-3951509Y-8547008D02*
X-3932461Y-8518436D01*
X-3932461Y-8518436D02*
X-3922937Y-8508912D01*
X-3856270Y-8556531D02*
X-3846747Y-8547008D01*
X-3846747Y-8547008D02*
X-3827699Y-8537484D01*
X-3827699Y-8537484D02*
X-3780080Y-8537484D01*
X-3780080Y-8537484D02*
X-3761032Y-8547008D01*
X-3761032Y-8547008D02*
X-3751509Y-8556531D01*
X-3751509Y-8556531D02*
X-3741985Y-8575579D01*
X-3741985Y-8575579D02*
X-3741985Y-8594627D01*
X-3741985Y-8594627D02*
X-3751509Y-8623198D01*
X-3751509Y-8623198D02*
X-3865794Y-8737484D01*
X-3865794Y-8737484D02*
X-3741985Y-8737484D01*
X-3503889Y-8737484D02*
X-3503889Y-8537484D01*
X-3418175Y-8737484D02*
X-3418175Y-8632722D01*
X-3418175Y-8632722D02*
X-3427699Y-8613674D01*
X-3427699Y-8613674D02*
X-3446747Y-8604150D01*
X-3446747Y-8604150D02*
X-3475318Y-8604150D01*
X-3475318Y-8604150D02*
X-3494366Y-8613674D01*
X-3494366Y-8613674D02*
X-3503889Y-8623198D01*
X-3294366Y-8737484D02*
X-3313413Y-8727960D01*
X-3313413Y-8727960D02*
X-3322937Y-8718436D01*
X-3322937Y-8718436D02*
X-3332461Y-8699389D01*
X-3332461Y-8699389D02*
X-3332461Y-8642246D01*
X-3332461Y-8642246D02*
X-3322937Y-8623198D01*
X-3322937Y-8623198D02*
X-3313413Y-8613674D01*
X-3313413Y-8613674D02*
X-3294366Y-8604150D01*
X-3294366Y-8604150D02*
X-3265794Y-8604150D01*
X-3265794Y-8604150D02*
X-3246747Y-8613674D01*
X-3246747Y-8613674D02*
X-3237223Y-8623198D01*
X-3237223Y-8623198D02*
X-3227699Y-8642246D01*
X-3227699Y-8642246D02*
X-3227699Y-8699389D01*
X-3227699Y-8699389D02*
X-3237223Y-8718436D01*
X-3237223Y-8718436D02*
X-3246747Y-8727960D01*
X-3246747Y-8727960D02*
X-3265794Y-8737484D01*
X-3265794Y-8737484D02*
X-3294366Y-8737484D01*
X-3113413Y-8737484D02*
X-3132461Y-8727960D01*
X-3132461Y-8727960D02*
X-3141985Y-8708912D01*
X-3141985Y-8708912D02*
X-3141985Y-8537484D01*
X-2961032Y-8727960D02*
X-2980080Y-8737484D01*
X-2980080Y-8737484D02*
X-3018175Y-8737484D01*
X-3018175Y-8737484D02*
X-3037223Y-8727960D01*
X-3037223Y-8727960D02*
X-3046747Y-8708912D01*
X-3046747Y-8708912D02*
X-3046747Y-8632722D01*
X-3046747Y-8632722D02*
X-3037223Y-8613674D01*
X-3037223Y-8613674D02*
X-3018175Y-8604150D01*
X-3018175Y-8604150D02*
X-2980080Y-8604150D01*
X-2980080Y-8604150D02*
X-2961032Y-8613674D01*
X-2961032Y-8613674D02*
X-2951508Y-8632722D01*
X-2951508Y-8632722D02*
X-2951508Y-8651770D01*
X-2951508Y-8651770D02*
X-3046747Y-8670817D01*
X-2875318Y-8727960D02*
X-2856270Y-8737484D01*
X-2856270Y-8737484D02*
X-2818175Y-8737484D01*
X-2818175Y-8737484D02*
X-2799127Y-8727960D01*
X-2799127Y-8727960D02*
X-2789604Y-8708912D01*
X-2789604Y-8708912D02*
X-2789604Y-8699389D01*
X-2789604Y-8699389D02*
X-2799127Y-8680341D01*
X-2799127Y-8680341D02*
X-2818175Y-8670817D01*
X-2818175Y-8670817D02*
X-2846747Y-8670817D01*
X-2846747Y-8670817D02*
X-2865794Y-8661293D01*
X-2865794Y-8661293D02*
X-2875318Y-8642246D01*
X-2875318Y-8642246D02*
X-2875318Y-8632722D01*
X-2875318Y-8632722D02*
X-2865794Y-8613674D01*
X-2865794Y-8613674D02*
X-2846747Y-8604150D01*
X-2846747Y-8604150D02*
X-2818175Y-8604150D01*
X-2818175Y-8604150D02*
X-2799127Y-8613674D01*
X-2722937Y-8813674D02*
X-2713413Y-8804150D01*
X-2713413Y-8804150D02*
X-2694366Y-8775579D01*
X-2694366Y-8775579D02*
X-2684842Y-8756531D01*
X-2684842Y-8756531D02*
X-2675318Y-8727960D01*
X-2675318Y-8727960D02*
X-2665794Y-8680341D01*
X-2665794Y-8680341D02*
X-2665794Y-8642246D01*
X-2665794Y-8642246D02*
X-2675318Y-8594627D01*
X-2675318Y-8594627D02*
X-2684842Y-8566055D01*
X-2684842Y-8566055D02*
X-2694366Y-8547008D01*
X-2694366Y-8547008D02*
X-2713413Y-8518436D01*
X-2713413Y-8518436D02*
X-2722937Y-8508912D01*
X-2361032Y-8813674D02*
X-2370556Y-8804150D01*
X-2370556Y-8804150D02*
X-2389604Y-8775579D01*
X-2389604Y-8775579D02*
X-2399128Y-8756531D01*
X-2399128Y-8756531D02*
X-2408651Y-8727960D01*
X-2408651Y-8727960D02*
X-2418175Y-8680341D01*
X-2418175Y-8680341D02*
X-2418175Y-8642246D01*
X-2418175Y-8642246D02*
X-2408651Y-8594627D01*
X-2408651Y-8594627D02*
X-2399128Y-8566055D01*
X-2399128Y-8566055D02*
X-2389604Y-8547008D01*
X-2389604Y-8547008D02*
X-2370556Y-8518436D01*
X-2370556Y-8518436D02*
X-2361032Y-8508912D01*
X-2284842Y-8604150D02*
X-2284842Y-8737484D01*
X-2284842Y-8623198D02*
X-2275318Y-8613674D01*
X-2275318Y-8613674D02*
X-2256270Y-8604150D01*
X-2256270Y-8604150D02*
X-2227699Y-8604150D01*
X-2227699Y-8604150D02*
X-2208651Y-8613674D01*
X-2208651Y-8613674D02*
X-2199128Y-8632722D01*
X-2199128Y-8632722D02*
X-2199128Y-8737484D01*
X-2075318Y-8737484D02*
X-2094366Y-8727960D01*
X-2094366Y-8727960D02*
X-2103889Y-8718436D01*
X-2103889Y-8718436D02*
X-2113413Y-8699389D01*
X-2113413Y-8699389D02*
X-2113413Y-8642246D01*
X-2113413Y-8642246D02*
X-2103889Y-8623198D01*
X-2103889Y-8623198D02*
X-2094366Y-8613674D01*
X-2094366Y-8613674D02*
X-2075318Y-8604150D01*
X-2075318Y-8604150D02*
X-2046746Y-8604150D01*
X-2046746Y-8604150D02*
X-2027699Y-8613674D01*
X-2027699Y-8613674D02*
X-2018175Y-8623198D01*
X-2018175Y-8623198D02*
X-2008651Y-8642246D01*
X-2008651Y-8642246D02*
X-2008651Y-8699389D01*
X-2008651Y-8699389D02*
X-2018175Y-8718436D01*
X-2018175Y-8718436D02*
X-2027699Y-8727960D01*
X-2027699Y-8727960D02*
X-2046746Y-8737484D01*
X-2046746Y-8737484D02*
X-2075318Y-8737484D01*
X-1951508Y-8604150D02*
X-1875318Y-8604150D01*
X-1922937Y-8537484D02*
X-1922937Y-8708912D01*
X-1922937Y-8708912D02*
X-1913413Y-8727960D01*
X-1913413Y-8727960D02*
X-1894366Y-8737484D01*
X-1894366Y-8737484D02*
X-1875318Y-8737484D01*
X-1656270Y-8604150D02*
X-1656270Y-8804150D01*
X-1656270Y-8613674D02*
X-1637223Y-8604150D01*
X-1637223Y-8604150D02*
X-1599127Y-8604150D01*
X-1599127Y-8604150D02*
X-1580080Y-8613674D01*
X-1580080Y-8613674D02*
X-1570556Y-8623198D01*
X-1570556Y-8623198D02*
X-1561032Y-8642246D01*
X-1561032Y-8642246D02*
X-1561032Y-8699389D01*
X-1561032Y-8699389D02*
X-1570556Y-8718436D01*
X-1570556Y-8718436D02*
X-1580080Y-8727960D01*
X-1580080Y-8727960D02*
X-1599127Y-8737484D01*
X-1599127Y-8737484D02*
X-1637223Y-8737484D01*
X-1637223Y-8737484D02*
X-1656270Y-8727960D01*
X-1446746Y-8737484D02*
X-1465794Y-8727960D01*
X-1465794Y-8727960D02*
X-1475318Y-8708912D01*
X-1475318Y-8708912D02*
X-1475318Y-8537484D01*
X-1284842Y-8737484D02*
X-1284842Y-8632722D01*
X-1284842Y-8632722D02*
X-1294366Y-8613674D01*
X-1294366Y-8613674D02*
X-1313413Y-8604150D01*
X-1313413Y-8604150D02*
X-1351508Y-8604150D01*
X-1351508Y-8604150D02*
X-1370556Y-8613674D01*
X-1284842Y-8727960D02*
X-1303889Y-8737484D01*
X-1303889Y-8737484D02*
X-1351508Y-8737484D01*
X-1351508Y-8737484D02*
X-1370556Y-8727960D01*
X-1370556Y-8727960D02*
X-1380080Y-8708912D01*
X-1380080Y-8708912D02*
X-1380080Y-8689865D01*
X-1380080Y-8689865D02*
X-1370556Y-8670817D01*
X-1370556Y-8670817D02*
X-1351508Y-8661293D01*
X-1351508Y-8661293D02*
X-1303889Y-8661293D01*
X-1303889Y-8661293D02*
X-1284842Y-8651770D01*
X-1218175Y-8604150D02*
X-1141985Y-8604150D01*
X-1189604Y-8537484D02*
X-1189604Y-8708912D01*
X-1189604Y-8708912D02*
X-1180080Y-8727960D01*
X-1180080Y-8727960D02*
X-1161032Y-8737484D01*
X-1161032Y-8737484D02*
X-1141985Y-8737484D01*
X-999127Y-8727960D02*
X-1018175Y-8737484D01*
X-1018175Y-8737484D02*
X-1056270Y-8737484D01*
X-1056270Y-8737484D02*
X-1075318Y-8727960D01*
X-1075318Y-8727960D02*
X-1084842Y-8708912D01*
X-1084842Y-8708912D02*
X-1084842Y-8632722D01*
X-1084842Y-8632722D02*
X-1075318Y-8613674D01*
X-1075318Y-8613674D02*
X-1056270Y-8604150D01*
X-1056270Y-8604150D02*
X-1018175Y-8604150D01*
X-1018175Y-8604150D02*
X-999127Y-8613674D01*
X-999127Y-8613674D02*
X-989604Y-8632722D01*
X-989604Y-8632722D02*
X-989604Y-8651770D01*
X-989604Y-8651770D02*
X-1084842Y-8670817D01*
X-818175Y-8737484D02*
X-818175Y-8537484D01*
X-818175Y-8727960D02*
X-837223Y-8737484D01*
X-837223Y-8737484D02*
X-875318Y-8737484D01*
X-875318Y-8737484D02*
X-894365Y-8727960D01*
X-894365Y-8727960D02*
X-903889Y-8718436D01*
X-903889Y-8718436D02*
X-913413Y-8699389D01*
X-913413Y-8699389D02*
X-913413Y-8642246D01*
X-913413Y-8642246D02*
X-903889Y-8623198D01*
X-903889Y-8623198D02*
X-894365Y-8613674D01*
X-894365Y-8613674D02*
X-875318Y-8604150D01*
X-875318Y-8604150D02*
X-837223Y-8604150D01*
X-837223Y-8604150D02*
X-818175Y-8613674D01*
X-741984Y-8813674D02*
X-732461Y-8804150D01*
X-732461Y-8804150D02*
X-713413Y-8775579D01*
X-713413Y-8775579D02*
X-703889Y-8756531D01*
X-703889Y-8756531D02*
X-694366Y-8727960D01*
X-694366Y-8727960D02*
X-684842Y-8680341D01*
X-684842Y-8680341D02*
X-684842Y-8642246D01*
X-684842Y-8642246D02*
X-694366Y-8594627D01*
X-694366Y-8594627D02*
X-703889Y-8566055D01*
X-703889Y-8566055D02*
X-713413Y-8547008D01*
X-713413Y-8547008D02*
X-732461Y-8518436D01*
X-732461Y-8518436D02*
X-741984Y-8508912D01*
X-7498000Y-8916000D02*
G75*
G02*
X-7698000Y-8916000I-100000J0D01*
G01*
X-7698000Y-8916000D02*
G75*
G02*
X-7498000Y-8916000I100000J0D01*
G01*
X-7246747Y-8826531D02*
X-7237223Y-8817008D01*
X-7237223Y-8817008D02*
X-7218176Y-8807484D01*
X-7218176Y-8807484D02*
X-7170556Y-8807484D01*
X-7170556Y-8807484D02*
X-7151509Y-8817008D01*
X-7151509Y-8817008D02*
X-7141985Y-8826531D01*
X-7141985Y-8826531D02*
X-7132461Y-8845579D01*
X-7132461Y-8845579D02*
X-7132461Y-8864627D01*
X-7132461Y-8864627D02*
X-7141985Y-8893198D01*
X-7141985Y-8893198D02*
X-7256271Y-9007484D01*
X-7256271Y-9007484D02*
X-7132461Y-9007484D01*
X-7046747Y-8988436D02*
X-7037223Y-8997960D01*
X-7037223Y-8997960D02*
X-7046747Y-9007484D01*
X-7046747Y-9007484D02*
X-7056271Y-8997960D01*
X-7056271Y-8997960D02*
X-7046747Y-8988436D01*
X-7046747Y-8988436D02*
X-7046747Y-9007484D01*
X-6913414Y-8807484D02*
X-6894366Y-8807484D01*
X-6894366Y-8807484D02*
X-6875318Y-8817008D01*
X-6875318Y-8817008D02*
X-6865795Y-8826531D01*
X-6865795Y-8826531D02*
X-6856271Y-8845579D01*
X-6856271Y-8845579D02*
X-6846747Y-8883674D01*
X-6846747Y-8883674D02*
X-6846747Y-8931293D01*
X-6846747Y-8931293D02*
X-6856271Y-8969389D01*
X-6856271Y-8969389D02*
X-6865795Y-8988436D01*
X-6865795Y-8988436D02*
X-6875318Y-8997960D01*
X-6875318Y-8997960D02*
X-6894366Y-9007484D01*
X-6894366Y-9007484D02*
X-6913414Y-9007484D01*
X-6913414Y-9007484D02*
X-6932461Y-8997960D01*
X-6932461Y-8997960D02*
X-6941985Y-8988436D01*
X-6941985Y-8988436D02*
X-6951509Y-8969389D01*
X-6951509Y-8969389D02*
X-6961033Y-8931293D01*
X-6961033Y-8931293D02*
X-6961033Y-8883674D01*
X-6961033Y-8883674D02*
X-6951509Y-8845579D01*
X-6951509Y-8845579D02*
X-6941985Y-8826531D01*
X-6941985Y-8826531D02*
X-6932461Y-8817008D01*
X-6932461Y-8817008D02*
X-6913414Y-8807484D01*
X-6722937Y-8807484D02*
X-6703890Y-8807484D01*
X-6703890Y-8807484D02*
X-6684842Y-8817008D01*
X-6684842Y-8817008D02*
X-6675318Y-8826531D01*
X-6675318Y-8826531D02*
X-6665795Y-8845579D01*
X-6665795Y-8845579D02*
X-6656271Y-8883674D01*
X-6656271Y-8883674D02*
X-6656271Y-8931293D01*
X-6656271Y-8931293D02*
X-6665795Y-8969389D01*
X-6665795Y-8969389D02*
X-6675318Y-8988436D01*
X-6675318Y-8988436D02*
X-6684842Y-8997960D01*
X-6684842Y-8997960D02*
X-6703890Y-9007484D01*
X-6703890Y-9007484D02*
X-6722937Y-9007484D01*
X-6722937Y-9007484D02*
X-6741985Y-8997960D01*
X-6741985Y-8997960D02*
X-6751509Y-8988436D01*
X-6751509Y-8988436D02*
X-6761033Y-8969389D01*
X-6761033Y-8969389D02*
X-6770556Y-8931293D01*
X-6770556Y-8931293D02*
X-6770556Y-8883674D01*
X-6770556Y-8883674D02*
X-6761033Y-8845579D01*
X-6761033Y-8845579D02*
X-6751509Y-8826531D01*
X-6751509Y-8826531D02*
X-6741985Y-8817008D01*
X-6741985Y-8817008D02*
X-6722937Y-8807484D01*
X-6532461Y-8807484D02*
X-6513414Y-8807484D01*
X-6513414Y-8807484D02*
X-6494366Y-8817008D01*
X-6494366Y-8817008D02*
X-6484842Y-8826531D01*
X-6484842Y-8826531D02*
X-6475318Y-8845579D01*
X-6475318Y-8845579D02*
X-6465795Y-8883674D01*
X-6465795Y-8883674D02*
X-6465795Y-8931293D01*
X-6465795Y-8931293D02*
X-6475318Y-8969389D01*
X-6475318Y-8969389D02*
X-6484842Y-8988436D01*
X-6484842Y-8988436D02*
X-6494366Y-8997960D01*
X-6494366Y-8997960D02*
X-6513414Y-9007484D01*
X-6513414Y-9007484D02*
X-6532461Y-9007484D01*
X-6532461Y-9007484D02*
X-6551509Y-8997960D01*
X-6551509Y-8997960D02*
X-6561033Y-8988436D01*
X-6561033Y-8988436D02*
X-6570556Y-8969389D01*
X-6570556Y-8969389D02*
X-6580080Y-8931293D01*
X-6580080Y-8931293D02*
X-6580080Y-8883674D01*
X-6580080Y-8883674D02*
X-6570556Y-8845579D01*
X-6570556Y-8845579D02*
X-6561033Y-8826531D01*
X-6561033Y-8826531D02*
X-6551509Y-8817008D01*
X-6551509Y-8817008D02*
X-6532461Y-8807484D01*
X-6380080Y-9007484D02*
X-6380080Y-8874150D01*
X-6380080Y-8893198D02*
X-6370556Y-8883674D01*
X-6370556Y-8883674D02*
X-6351509Y-8874150D01*
X-6351509Y-8874150D02*
X-6322937Y-8874150D01*
X-6322937Y-8874150D02*
X-6303890Y-8883674D01*
X-6303890Y-8883674D02*
X-6294366Y-8902722D01*
X-6294366Y-8902722D02*
X-6294366Y-9007484D01*
X-6294366Y-8902722D02*
X-6284842Y-8883674D01*
X-6284842Y-8883674D02*
X-6265795Y-8874150D01*
X-6265795Y-8874150D02*
X-6237223Y-8874150D01*
X-6237223Y-8874150D02*
X-6218175Y-8883674D01*
X-6218175Y-8883674D02*
X-6208652Y-8902722D01*
X-6208652Y-8902722D02*
X-6208652Y-9007484D01*
X-6113414Y-9007484D02*
X-6113414Y-8874150D01*
X-6113414Y-8893198D02*
X-6103890Y-8883674D01*
X-6103890Y-8883674D02*
X-6084842Y-8874150D01*
X-6084842Y-8874150D02*
X-6056271Y-8874150D01*
X-6056271Y-8874150D02*
X-6037223Y-8883674D01*
X-6037223Y-8883674D02*
X-6027699Y-8902722D01*
X-6027699Y-8902722D02*
X-6027699Y-9007484D01*
X-6027699Y-8902722D02*
X-6018175Y-8883674D01*
X-6018175Y-8883674D02*
X-5999128Y-8874150D01*
X-5999128Y-8874150D02*
X-5970556Y-8874150D01*
X-5970556Y-8874150D02*
X-5951509Y-8883674D01*
X-5951509Y-8883674D02*
X-5941985Y-8902722D01*
X-5941985Y-8902722D02*
X-5941985Y-9007484D01*
X-5551509Y-8797960D02*
X-5722937Y-9055103D01*
X-5294366Y-8807484D02*
X-5275318Y-8807484D01*
X-5275318Y-8807484D02*
X-5256271Y-8817008D01*
X-5256271Y-8817008D02*
X-5246747Y-8826531D01*
X-5246747Y-8826531D02*
X-5237223Y-8845579D01*
X-5237223Y-8845579D02*
X-5227699Y-8883674D01*
X-5227699Y-8883674D02*
X-5227699Y-8931293D01*
X-5227699Y-8931293D02*
X-5237223Y-8969389D01*
X-5237223Y-8969389D02*
X-5246747Y-8988436D01*
X-5246747Y-8988436D02*
X-5256271Y-8997960D01*
X-5256271Y-8997960D02*
X-5275318Y-9007484D01*
X-5275318Y-9007484D02*
X-5294366Y-9007484D01*
X-5294366Y-9007484D02*
X-5313414Y-8997960D01*
X-5313414Y-8997960D02*
X-5322937Y-8988436D01*
X-5322937Y-8988436D02*
X-5332461Y-8969389D01*
X-5332461Y-8969389D02*
X-5341985Y-8931293D01*
X-5341985Y-8931293D02*
X-5341985Y-8883674D01*
X-5341985Y-8883674D02*
X-5332461Y-8845579D01*
X-5332461Y-8845579D02*
X-5322937Y-8826531D01*
X-5322937Y-8826531D02*
X-5313414Y-8817008D01*
X-5313414Y-8817008D02*
X-5294366Y-8807484D01*
X-5141985Y-8988436D02*
X-5132461Y-8997960D01*
X-5132461Y-8997960D02*
X-5141985Y-9007484D01*
X-5141985Y-9007484D02*
X-5151509Y-8997960D01*
X-5151509Y-8997960D02*
X-5141985Y-8988436D01*
X-5141985Y-8988436D02*
X-5141985Y-9007484D01*
X-5008652Y-8807484D02*
X-4989604Y-8807484D01*
X-4989604Y-8807484D02*
X-4970556Y-8817008D01*
X-4970556Y-8817008D02*
X-4961033Y-8826531D01*
X-4961033Y-8826531D02*
X-4951509Y-8845579D01*
X-4951509Y-8845579D02*
X-4941985Y-8883674D01*
X-4941985Y-8883674D02*
X-4941985Y-8931293D01*
X-4941985Y-8931293D02*
X-4951509Y-8969389D01*
X-4951509Y-8969389D02*
X-4961033Y-8988436D01*
X-4961033Y-8988436D02*
X-4970556Y-8997960D01*
X-4970556Y-8997960D02*
X-4989604Y-9007484D01*
X-4989604Y-9007484D02*
X-5008652Y-9007484D01*
X-5008652Y-9007484D02*
X-5027699Y-8997960D01*
X-5027699Y-8997960D02*
X-5037223Y-8988436D01*
X-5037223Y-8988436D02*
X-5046747Y-8969389D01*
X-5046747Y-8969389D02*
X-5056271Y-8931293D01*
X-5056271Y-8931293D02*
X-5056271Y-8883674D01*
X-5056271Y-8883674D02*
X-5046747Y-8845579D01*
X-5046747Y-8845579D02*
X-5037223Y-8826531D01*
X-5037223Y-8826531D02*
X-5027699Y-8817008D01*
X-5027699Y-8817008D02*
X-5008652Y-8807484D01*
X-4875318Y-8807484D02*
X-4741985Y-8807484D01*
X-4741985Y-8807484D02*
X-4827699Y-9007484D01*
X-4637223Y-8893198D02*
X-4656271Y-8883674D01*
X-4656271Y-8883674D02*
X-4665794Y-8874150D01*
X-4665794Y-8874150D02*
X-4675318Y-8855103D01*
X-4675318Y-8855103D02*
X-4675318Y-8845579D01*
X-4675318Y-8845579D02*
X-4665794Y-8826531D01*
X-4665794Y-8826531D02*
X-4656271Y-8817008D01*
X-4656271Y-8817008D02*
X-4637223Y-8807484D01*
X-4637223Y-8807484D02*
X-4599128Y-8807484D01*
X-4599128Y-8807484D02*
X-4580080Y-8817008D01*
X-4580080Y-8817008D02*
X-4570556Y-8826531D01*
X-4570556Y-8826531D02*
X-4561033Y-8845579D01*
X-4561033Y-8845579D02*
X-4561033Y-8855103D01*
X-4561033Y-8855103D02*
X-4570556Y-8874150D01*
X-4570556Y-8874150D02*
X-4580080Y-8883674D01*
X-4580080Y-8883674D02*
X-4599128Y-8893198D01*
X-4599128Y-8893198D02*
X-4637223Y-8893198D01*
X-4637223Y-8893198D02*
X-4656271Y-8902722D01*
X-4656271Y-8902722D02*
X-4665794Y-8912246D01*
X-4665794Y-8912246D02*
X-4675318Y-8931293D01*
X-4675318Y-8931293D02*
X-4675318Y-8969389D01*
X-4675318Y-8969389D02*
X-4665794Y-8988436D01*
X-4665794Y-8988436D02*
X-4656271Y-8997960D01*
X-4656271Y-8997960D02*
X-4637223Y-9007484D01*
X-4637223Y-9007484D02*
X-4599128Y-9007484D01*
X-4599128Y-9007484D02*
X-4580080Y-8997960D01*
X-4580080Y-8997960D02*
X-4570556Y-8988436D01*
X-4570556Y-8988436D02*
X-4561033Y-8969389D01*
X-4561033Y-8969389D02*
X-4561033Y-8931293D01*
X-4561033Y-8931293D02*
X-4570556Y-8912246D01*
X-4570556Y-8912246D02*
X-4580080Y-8902722D01*
X-4580080Y-8902722D02*
X-4599128Y-8893198D01*
X-4494366Y-8807484D02*
X-4361033Y-8807484D01*
X-4361033Y-8807484D02*
X-4446747Y-9007484D01*
X-4294366Y-8807484D02*
X-4294366Y-8845579D01*
X-4218175Y-8807484D02*
X-4218175Y-8845579D01*
X-3922937Y-9083674D02*
X-3932461Y-9074150D01*
X-3932461Y-9074150D02*
X-3951509Y-9045579D01*
X-3951509Y-9045579D02*
X-3961032Y-9026531D01*
X-3961032Y-9026531D02*
X-3970556Y-8997960D01*
X-3970556Y-8997960D02*
X-3980080Y-8950341D01*
X-3980080Y-8950341D02*
X-3980080Y-8912246D01*
X-3980080Y-8912246D02*
X-3970556Y-8864627D01*
X-3970556Y-8864627D02*
X-3961032Y-8836055D01*
X-3961032Y-8836055D02*
X-3951509Y-8817008D01*
X-3951509Y-8817008D02*
X-3932461Y-8788436D01*
X-3932461Y-8788436D02*
X-3922937Y-8778912D01*
X-3741985Y-9007484D02*
X-3856270Y-9007484D01*
X-3799128Y-9007484D02*
X-3799128Y-8807484D01*
X-3799128Y-8807484D02*
X-3818175Y-8836055D01*
X-3818175Y-8836055D02*
X-3837223Y-8855103D01*
X-3837223Y-8855103D02*
X-3856270Y-8864627D01*
X-3503889Y-9007484D02*
X-3503889Y-8807484D01*
X-3418175Y-9007484D02*
X-3418175Y-8902722D01*
X-3418175Y-8902722D02*
X-3427699Y-8883674D01*
X-3427699Y-8883674D02*
X-3446747Y-8874150D01*
X-3446747Y-8874150D02*
X-3475318Y-8874150D01*
X-3475318Y-8874150D02*
X-3494366Y-8883674D01*
X-3494366Y-8883674D02*
X-3503889Y-8893198D01*
X-3294366Y-9007484D02*
X-3313413Y-8997960D01*
X-3313413Y-8997960D02*
X-3322937Y-8988436D01*
X-3322937Y-8988436D02*
X-3332461Y-8969389D01*
X-3332461Y-8969389D02*
X-3332461Y-8912246D01*
X-3332461Y-8912246D02*
X-3322937Y-8893198D01*
X-3322937Y-8893198D02*
X-3313413Y-8883674D01*
X-3313413Y-8883674D02*
X-3294366Y-8874150D01*
X-3294366Y-8874150D02*
X-3265794Y-8874150D01*
X-3265794Y-8874150D02*
X-3246747Y-8883674D01*
X-3246747Y-8883674D02*
X-3237223Y-8893198D01*
X-3237223Y-8893198D02*
X-3227699Y-8912246D01*
X-3227699Y-8912246D02*
X-3227699Y-8969389D01*
X-3227699Y-8969389D02*
X-3237223Y-8988436D01*
X-3237223Y-8988436D02*
X-3246747Y-8997960D01*
X-3246747Y-8997960D02*
X-3265794Y-9007484D01*
X-3265794Y-9007484D02*
X-3294366Y-9007484D01*
X-3113413Y-9007484D02*
X-3132461Y-8997960D01*
X-3132461Y-8997960D02*
X-3141985Y-8978912D01*
X-3141985Y-8978912D02*
X-3141985Y-8807484D01*
X-2961032Y-8997960D02*
X-2980080Y-9007484D01*
X-2980080Y-9007484D02*
X-3018175Y-9007484D01*
X-3018175Y-9007484D02*
X-3037223Y-8997960D01*
X-3037223Y-8997960D02*
X-3046747Y-8978912D01*
X-3046747Y-8978912D02*
X-3046747Y-8902722D01*
X-3046747Y-8902722D02*
X-3037223Y-8883674D01*
X-3037223Y-8883674D02*
X-3018175Y-8874150D01*
X-3018175Y-8874150D02*
X-2980080Y-8874150D01*
X-2980080Y-8874150D02*
X-2961032Y-8883674D01*
X-2961032Y-8883674D02*
X-2951508Y-8902722D01*
X-2951508Y-8902722D02*
X-2951508Y-8921770D01*
X-2951508Y-8921770D02*
X-3046747Y-8940817D01*
X-2884842Y-9083674D02*
X-2875318Y-9074150D01*
X-2875318Y-9074150D02*
X-2856270Y-9045579D01*
X-2856270Y-9045579D02*
X-2846747Y-9026531D01*
X-2846747Y-9026531D02*
X-2837223Y-8997960D01*
X-2837223Y-8997960D02*
X-2827699Y-8950341D01*
X-2827699Y-8950341D02*
X-2827699Y-8912246D01*
X-2827699Y-8912246D02*
X-2837223Y-8864627D01*
X-2837223Y-8864627D02*
X-2846747Y-8836055D01*
X-2846747Y-8836055D02*
X-2856270Y-8817008D01*
X-2856270Y-8817008D02*
X-2875318Y-8788436D01*
X-2875318Y-8788436D02*
X-2884842Y-8778912D01*
X-2522937Y-9083674D02*
X-2532461Y-9074150D01*
X-2532461Y-9074150D02*
X-2551509Y-9045579D01*
X-2551509Y-9045579D02*
X-2561032Y-9026531D01*
X-2561032Y-9026531D02*
X-2570556Y-8997960D01*
X-2570556Y-8997960D02*
X-2580080Y-8950341D01*
X-2580080Y-8950341D02*
X-2580080Y-8912246D01*
X-2580080Y-8912246D02*
X-2570556Y-8864627D01*
X-2570556Y-8864627D02*
X-2561032Y-8836055D01*
X-2561032Y-8836055D02*
X-2551509Y-8817008D01*
X-2551509Y-8817008D02*
X-2532461Y-8788436D01*
X-2532461Y-8788436D02*
X-2522937Y-8778912D01*
X-2446747Y-8874150D02*
X-2446747Y-9007484D01*
X-2446747Y-8893198D02*
X-2437223Y-8883674D01*
X-2437223Y-8883674D02*
X-2418175Y-8874150D01*
X-2418175Y-8874150D02*
X-2389604Y-8874150D01*
X-2389604Y-8874150D02*
X-2370556Y-8883674D01*
X-2370556Y-8883674D02*
X-2361032Y-8902722D01*
X-2361032Y-8902722D02*
X-2361032Y-9007484D01*
X-2237223Y-9007484D02*
X-2256270Y-8997960D01*
X-2256270Y-8997960D02*
X-2265794Y-8988436D01*
X-2265794Y-8988436D02*
X-2275318Y-8969389D01*
X-2275318Y-8969389D02*
X-2275318Y-8912246D01*
X-2275318Y-8912246D02*
X-2265794Y-8893198D01*
X-2265794Y-8893198D02*
X-2256270Y-8883674D01*
X-2256270Y-8883674D02*
X-2237223Y-8874150D01*
X-2237223Y-8874150D02*
X-2208651Y-8874150D01*
X-2208651Y-8874150D02*
X-2189604Y-8883674D01*
X-2189604Y-8883674D02*
X-2180080Y-8893198D01*
X-2180080Y-8893198D02*
X-2170556Y-8912246D01*
X-2170556Y-8912246D02*
X-2170556Y-8969389D01*
X-2170556Y-8969389D02*
X-2180080Y-8988436D01*
X-2180080Y-8988436D02*
X-2189604Y-8997960D01*
X-2189604Y-8997960D02*
X-2208651Y-9007484D01*
X-2208651Y-9007484D02*
X-2237223Y-9007484D01*
X-2113413Y-8874150D02*
X-2037223Y-8874150D01*
X-2084842Y-8807484D02*
X-2084842Y-8978912D01*
X-2084842Y-8978912D02*
X-2075318Y-8997960D01*
X-2075318Y-8997960D02*
X-2056270Y-9007484D01*
X-2056270Y-9007484D02*
X-2037223Y-9007484D01*
X-1818175Y-8874150D02*
X-1818175Y-9074150D01*
X-1818175Y-8883674D02*
X-1799127Y-8874150D01*
X-1799127Y-8874150D02*
X-1761032Y-8874150D01*
X-1761032Y-8874150D02*
X-1741985Y-8883674D01*
X-1741985Y-8883674D02*
X-1732461Y-8893198D01*
X-1732461Y-8893198D02*
X-1722937Y-8912246D01*
X-1722937Y-8912246D02*
X-1722937Y-8969389D01*
X-1722937Y-8969389D02*
X-1732461Y-8988436D01*
X-1732461Y-8988436D02*
X-1741985Y-8997960D01*
X-1741985Y-8997960D02*
X-1761032Y-9007484D01*
X-1761032Y-9007484D02*
X-1799127Y-9007484D01*
X-1799127Y-9007484D02*
X-1818175Y-8997960D01*
X-1608651Y-9007484D02*
X-1627699Y-8997960D01*
X-1627699Y-8997960D02*
X-1637223Y-8978912D01*
X-1637223Y-8978912D02*
X-1637223Y-8807484D01*
X-1446746Y-9007484D02*
X-1446746Y-8902722D01*
X-1446746Y-8902722D02*
X-1456270Y-8883674D01*
X-1456270Y-8883674D02*
X-1475318Y-8874150D01*
X-1475318Y-8874150D02*
X-1513413Y-8874150D01*
X-1513413Y-8874150D02*
X-1532461Y-8883674D01*
X-1446746Y-8997960D02*
X-1465794Y-9007484D01*
X-1465794Y-9007484D02*
X-1513413Y-9007484D01*
X-1513413Y-9007484D02*
X-1532461Y-8997960D01*
X-1532461Y-8997960D02*
X-1541985Y-8978912D01*
X-1541985Y-8978912D02*
X-1541985Y-8959865D01*
X-1541985Y-8959865D02*
X-1532461Y-8940817D01*
X-1532461Y-8940817D02*
X-1513413Y-8931293D01*
X-1513413Y-8931293D02*
X-1465794Y-8931293D01*
X-1465794Y-8931293D02*
X-1446746Y-8921770D01*
X-1380080Y-8874150D02*
X-1303889Y-8874150D01*
X-1351508Y-8807484D02*
X-1351508Y-8978912D01*
X-1351508Y-8978912D02*
X-1341985Y-8997960D01*
X-1341985Y-8997960D02*
X-1322937Y-9007484D01*
X-1322937Y-9007484D02*
X-1303889Y-9007484D01*
X-1161032Y-8997960D02*
X-1180080Y-9007484D01*
X-1180080Y-9007484D02*
X-1218175Y-9007484D01*
X-1218175Y-9007484D02*
X-1237223Y-8997960D01*
X-1237223Y-8997960D02*
X-1246747Y-8978912D01*
X-1246747Y-8978912D02*
X-1246747Y-8902722D01*
X-1246747Y-8902722D02*
X-1237223Y-8883674D01*
X-1237223Y-8883674D02*
X-1218175Y-8874150D01*
X-1218175Y-8874150D02*
X-1180080Y-8874150D01*
X-1180080Y-8874150D02*
X-1161032Y-8883674D01*
X-1161032Y-8883674D02*
X-1151508Y-8902722D01*
X-1151508Y-8902722D02*
X-1151508Y-8921770D01*
X-1151508Y-8921770D02*
X-1246747Y-8940817D01*
X-980080Y-9007484D02*
X-980080Y-8807484D01*
X-980080Y-8997960D02*
X-999127Y-9007484D01*
X-999127Y-9007484D02*
X-1037223Y-9007484D01*
X-1037223Y-9007484D02*
X-1056270Y-8997960D01*
X-1056270Y-8997960D02*
X-1065794Y-8988436D01*
X-1065794Y-8988436D02*
X-1075318Y-8969389D01*
X-1075318Y-8969389D02*
X-1075318Y-8912246D01*
X-1075318Y-8912246D02*
X-1065794Y-8893198D01*
X-1065794Y-8893198D02*
X-1056270Y-8883674D01*
X-1056270Y-8883674D02*
X-1037223Y-8874150D01*
X-1037223Y-8874150D02*
X-999127Y-8874150D01*
X-999127Y-8874150D02*
X-980080Y-8883674D01*
X-903889Y-9083674D02*
X-894365Y-9074150D01*
X-894365Y-9074150D02*
X-875318Y-9045579D01*
X-875318Y-9045579D02*
X-865794Y-9026531D01*
X-865794Y-9026531D02*
X-856270Y-8997960D01*
X-856270Y-8997960D02*
X-846746Y-8950341D01*
X-846746Y-8950341D02*
X-846746Y-8912246D01*
X-846746Y-8912246D02*
X-856270Y-8864627D01*
X-856270Y-8864627D02*
X-865794Y-8836055D01*
X-865794Y-8836055D02*
X-875318Y-8817008D01*
X-875318Y-8817008D02*
X-894365Y-8788436D01*
X-894365Y-8788436D02*
X-903889Y-8778912D01*
M02*
