%TF.GenerationSoftware,KiCad,Pcbnew,8.0.8*%
%TF.CreationDate,2026-01-29T15:06:10+11:00*%
%TF.ProjectId,lfo_rw,6c666f5f-7277-42e6-9b69-6361645f7063,rev?*%
%TF.SameCoordinates,PX8b48bd0PY38ecc10*%
%TF.FileFunction,Drillmap*%
%TF.FilePolarity,Positive*%
%FSLAX45Y45*%
G04 Gerber Fmt 4.5, Leading zero omitted, Abs format (unit mm)*
G04 Created by KiCad (PCBNEW 8.0.8) date 2026-01-29 15:06:10*
%MOMM*%
%LPD*%
G01*
G04 APERTURE LIST*
%ADD10C,0.100000*%
%ADD11C,0.200000*%
%ADD12C,0.130000*%
G04 APERTURE END LIST*
D10*
X-7493000Y381000D02*
X381000Y381000D01*
X381000Y-8001000D01*
X-7493000Y-8001000D01*
X-7493000Y381000D01*
D11*
D10*
X-6554681Y-6696000D02*
X-6484681Y-6766000D01*
X-6484681Y-6696000D02*
X-6554681Y-6766000D01*
X-5792681Y-6696000D02*
X-5722681Y-6766000D01*
X-5722681Y-6696000D02*
X-5792681Y-6766000D01*
X-4942789Y-4931973D02*
X-4872789Y-5001973D01*
X-4872789Y-4931973D02*
X-4942789Y-5001973D01*
X-4942789Y-5693973D02*
X-4872789Y-5763973D01*
X-4872789Y-5693973D02*
X-4942789Y-5763973D01*
X-3223047Y-4931973D02*
X-3153047Y-5001973D01*
X-3153047Y-4931973D02*
X-3223047Y-5001973D01*
X-3223047Y-5693973D02*
X-3153047Y-5763973D01*
X-3153047Y-5693973D02*
X-3223047Y-5763973D01*
X-7108726Y-2920554D02*
G75*
G02*
X-7188726Y-2920554I-40000J0D01*
G01*
X-7188726Y-2920554D02*
G75*
G02*
X-7108726Y-2920554I40000J0D01*
G01*
X-7108726Y-3388840D02*
G75*
G02*
X-7188726Y-3388840I-40000J0D01*
G01*
X-7188726Y-3388840D02*
G75*
G02*
X-7108726Y-3388840I40000J0D01*
G01*
X-7108726Y-3727944D02*
G75*
G02*
X-7188726Y-3727944I-40000J0D01*
G01*
X-7188726Y-3727944D02*
G75*
G02*
X-7108726Y-3727944I40000J0D01*
G01*
X-6885887Y-4937818D02*
G75*
G02*
X-6965887Y-4937818I-40000J0D01*
G01*
X-6965887Y-4937818D02*
G75*
G02*
X-6885887Y-4937818I40000J0D01*
G01*
X-6885887Y-5313255D02*
G75*
G02*
X-6965887Y-5313255I-40000J0D01*
G01*
X-6965887Y-5313255D02*
G75*
G02*
X-6885887Y-5313255I40000J0D01*
G01*
X-6793844Y-2185829D02*
G75*
G02*
X-6873844Y-2185829I-40000J0D01*
G01*
X-6873844Y-2185829D02*
G75*
G02*
X-6793844Y-2185829I40000J0D01*
G01*
X-6098681Y-6148904D02*
G75*
G02*
X-6178681Y-6148904I-40000J0D01*
G01*
X-6178681Y-6148904D02*
G75*
G02*
X-6098681Y-6148904I40000J0D01*
G01*
X-6098681Y-6475897D02*
G75*
G02*
X-6178681Y-6475897I-40000J0D01*
G01*
X-6178681Y-6475897D02*
G75*
G02*
X-6098681Y-6475897I40000J0D01*
G01*
X-6092726Y-2920554D02*
G75*
G02*
X-6172726Y-2920554I-40000J0D01*
G01*
X-6172726Y-2920554D02*
G75*
G02*
X-6092726Y-2920554I40000J0D01*
G01*
X-6092726Y-3388840D02*
G75*
G02*
X-6172726Y-3388840I-40000J0D01*
G01*
X-6172726Y-3388840D02*
G75*
G02*
X-6092726Y-3388840I40000J0D01*
G01*
X-6092726Y-3727944D02*
G75*
G02*
X-6172726Y-3727944I-40000J0D01*
G01*
X-6172726Y-3727944D02*
G75*
G02*
X-6092726Y-3727944I40000J0D01*
G01*
X-6087226Y-6960331D02*
G75*
G02*
X-6167226Y-6960331I-40000J0D01*
G01*
X-6167226Y-6960331D02*
G75*
G02*
X-6087226Y-6960331I40000J0D01*
G01*
X-6087226Y-7335767D02*
G75*
G02*
X-6167226Y-7335767I-40000J0D01*
G01*
X-6167226Y-7335767D02*
G75*
G02*
X-6087226Y-7335767I40000J0D01*
G01*
X-5998135Y-396652D02*
G75*
G02*
X-6078135Y-396652I-40000J0D01*
G01*
X-6078135Y-396652D02*
G75*
G02*
X-5998135Y-396652I40000J0D01*
G01*
X-5869887Y-4937818D02*
G75*
G02*
X-5949887Y-4937818I-40000J0D01*
G01*
X-5949887Y-4937818D02*
G75*
G02*
X-5869887Y-4937818I40000J0D01*
G01*
X-5869887Y-5313255D02*
G75*
G02*
X-5949887Y-5313255I-40000J0D01*
G01*
X-5949887Y-5313255D02*
G75*
G02*
X-5869887Y-5313255I40000J0D01*
G01*
X-5818856Y-3107680D02*
G75*
G02*
X-5898856Y-3107680I-40000J0D01*
G01*
X-5898856Y-3107680D02*
G75*
G02*
X-5818856Y-3107680I40000J0D01*
G01*
X-5818856Y-4123680D02*
G75*
G02*
X-5898856Y-4123680I-40000J0D01*
G01*
X-5898856Y-4123680D02*
G75*
G02*
X-5818856Y-4123680I40000J0D01*
G01*
X-5777844Y-2185829D02*
G75*
G02*
X-5857844Y-2185829I-40000J0D01*
G01*
X-5857844Y-2185829D02*
G75*
G02*
X-5777844Y-2185829I40000J0D01*
G01*
X-5744135Y-142652D02*
G75*
G02*
X-5824135Y-142652I-40000J0D01*
G01*
X-5824135Y-142652D02*
G75*
G02*
X-5744135Y-142652I40000J0D01*
G01*
X-5553693Y-940631D02*
G75*
G02*
X-5633693Y-940631I-40000J0D01*
G01*
X-5633693Y-940631D02*
G75*
G02*
X-5553693Y-940631I40000J0D01*
G01*
X-5490135Y-396652D02*
G75*
G02*
X-5570135Y-396652I-40000J0D01*
G01*
X-5570135Y-396652D02*
G75*
G02*
X-5490135Y-396652I40000J0D01*
G01*
X-5316320Y-3372692D02*
G75*
G02*
X-5396320Y-3372692I-40000J0D01*
G01*
X-5396320Y-3372692D02*
G75*
G02*
X-5316320Y-3372692I40000J0D01*
G01*
X-5316320Y-4075122D02*
G75*
G02*
X-5396320Y-4075122I-40000J0D01*
G01*
X-5396320Y-4075122D02*
G75*
G02*
X-5316320Y-4075122I40000J0D01*
G01*
X-5316320Y-4583778D02*
G75*
G02*
X-5396320Y-4583778I-40000J0D01*
G01*
X-5396320Y-4583778D02*
G75*
G02*
X-5316320Y-4583778I40000J0D01*
G01*
X-5248311Y-2208011D02*
G75*
G02*
X-5328311Y-2208011I-40000J0D01*
G01*
X-5328311Y-2208011D02*
G75*
G02*
X-5248311Y-2208011I40000J0D01*
G01*
X-5248311Y-2932191D02*
G75*
G02*
X-5328311Y-2932191I-40000J0D01*
G01*
X-5328311Y-2932191D02*
G75*
G02*
X-5248311Y-2932191I40000J0D01*
G01*
X-5226700Y-8095D02*
G75*
G02*
X-5306700Y-8095I-40000J0D01*
G01*
X-5306700Y-8095D02*
G75*
G02*
X-5226700Y-8095I40000J0D01*
G01*
X-5226700Y-419864D02*
G75*
G02*
X-5306700Y-419864I-40000J0D01*
G01*
X-5306700Y-419864D02*
G75*
G02*
X-5226700Y-419864I40000J0D01*
G01*
X-5166801Y-4890031D02*
G75*
G02*
X-5246801Y-4890031I-40000J0D01*
G01*
X-5246801Y-4890031D02*
G75*
G02*
X-5166801Y-4890031I40000J0D01*
G01*
X-5166801Y-5906031D02*
G75*
G02*
X-5246801Y-5906031I-40000J0D01*
G01*
X-5246801Y-5906031D02*
G75*
G02*
X-5166801Y-5906031I40000J0D01*
G01*
X-5082681Y-6148904D02*
G75*
G02*
X-5162681Y-6148904I-40000J0D01*
G01*
X-5162681Y-6148904D02*
G75*
G02*
X-5082681Y-6148904I40000J0D01*
G01*
X-5082681Y-6475897D02*
G75*
G02*
X-5162681Y-6475897I-40000J0D01*
G01*
X-5162681Y-6475897D02*
G75*
G02*
X-5082681Y-6475897I40000J0D01*
G01*
X-5071226Y-6960331D02*
G75*
G02*
X-5151226Y-6960331I-40000J0D01*
G01*
X-5151226Y-6960331D02*
G75*
G02*
X-5071226Y-6960331I40000J0D01*
G01*
X-5071226Y-7335767D02*
G75*
G02*
X-5151226Y-7335767I-40000J0D01*
G01*
X-5151226Y-7335767D02*
G75*
G02*
X-5071226Y-7335767I40000J0D01*
G01*
X-5065499Y-1817659D02*
G75*
G02*
X-5145499Y-1817659I-40000J0D01*
G01*
X-5145499Y-1817659D02*
G75*
G02*
X-5065499Y-1817659I40000J0D01*
G01*
X-4808320Y-3731173D02*
G75*
G02*
X-4888320Y-3731173I-40000J0D01*
G01*
X-4888320Y-3731173D02*
G75*
G02*
X-4808320Y-3731173I40000J0D01*
G01*
X-4806239Y-2215787D02*
G75*
G02*
X-4886239Y-2215787I-40000J0D01*
G01*
X-4886239Y-2215787D02*
G75*
G02*
X-4806239Y-2215787I40000J0D01*
G01*
X-4806239Y-2977787D02*
G75*
G02*
X-4886239Y-2977787I-40000J0D01*
G01*
X-4886239Y-2977787D02*
G75*
G02*
X-4806239Y-2977787I40000J0D01*
G01*
X-4730811Y-6706659D02*
G75*
G02*
X-4810811Y-6706659I-40000J0D01*
G01*
X-4810811Y-6706659D02*
G75*
G02*
X-4730811Y-6706659I40000J0D01*
G01*
X-4730811Y-7722659D02*
G75*
G02*
X-4810811Y-7722659I-40000J0D01*
G01*
X-4810811Y-7722659D02*
G75*
G02*
X-4730811Y-7722659I40000J0D01*
G01*
X-4565499Y-1817659D02*
G75*
G02*
X-4645499Y-1817659I-40000J0D01*
G01*
X-4645499Y-1817659D02*
G75*
G02*
X-4565499Y-1817659I40000J0D01*
G01*
X-4552239Y-2215787D02*
G75*
G02*
X-4632239Y-2215787I-40000J0D01*
G01*
X-4632239Y-2215787D02*
G75*
G02*
X-4552239Y-2215787I40000J0D01*
G01*
X-4552239Y-2977787D02*
G75*
G02*
X-4632239Y-2977787I-40000J0D01*
G01*
X-4632239Y-2977787D02*
G75*
G02*
X-4552239Y-2977787I40000J0D01*
G01*
X-4537693Y-940631D02*
G75*
G02*
X-4617693Y-940631I-40000J0D01*
G01*
X-4617693Y-940631D02*
G75*
G02*
X-4537693Y-940631I40000J0D01*
G01*
X-4427788Y-5501630D02*
G75*
G02*
X-4507788Y-5501630I-40000J0D01*
G01*
X-4507788Y-5501630D02*
G75*
G02*
X-4427788Y-5501630I40000J0D01*
G01*
X-4427788Y-5755630D02*
G75*
G02*
X-4507788Y-5755630I-40000J0D01*
G01*
X-4507788Y-5755630D02*
G75*
G02*
X-4427788Y-5755630I40000J0D01*
G01*
X-4427788Y-6009630D02*
G75*
G02*
X-4507788Y-6009630I-40000J0D01*
G01*
X-4507788Y-6009630D02*
G75*
G02*
X-4427788Y-6009630I40000J0D01*
G01*
X-4427788Y-6263630D02*
G75*
G02*
X-4507788Y-6263630I-40000J0D01*
G01*
X-4507788Y-6263630D02*
G75*
G02*
X-4427788Y-6263630I40000J0D01*
G01*
X-4427788Y-6517630D02*
G75*
G02*
X-4507788Y-6517630I-40000J0D01*
G01*
X-4507788Y-6517630D02*
G75*
G02*
X-4427788Y-6517630I40000J0D01*
G01*
X-4427788Y-6771630D02*
G75*
G02*
X-4507788Y-6771630I-40000J0D01*
G01*
X-4507788Y-6771630D02*
G75*
G02*
X-4427788Y-6771630I40000J0D01*
G01*
X-4427788Y-7025630D02*
G75*
G02*
X-4507788Y-7025630I-40000J0D01*
G01*
X-4507788Y-7025630D02*
G75*
G02*
X-4427788Y-7025630I40000J0D01*
G01*
X-4427788Y-7279630D02*
G75*
G02*
X-4507788Y-7279630I-40000J0D01*
G01*
X-4507788Y-7279630D02*
G75*
G02*
X-4427788Y-7279630I40000J0D01*
G01*
X-4405000Y-7620000D02*
G75*
G02*
X-4485000Y-7620000I-40000J0D01*
G01*
X-4485000Y-7620000D02*
G75*
G02*
X-4405000Y-7620000I40000J0D01*
G01*
X-4308320Y-3731173D02*
G75*
G02*
X-4388320Y-3731173I-40000J0D01*
G01*
X-4388320Y-3731173D02*
G75*
G02*
X-4308320Y-3731173I40000J0D01*
G01*
X-4300320Y-3372692D02*
G75*
G02*
X-4380320Y-3372692I-40000J0D01*
G01*
X-4380320Y-3372692D02*
G75*
G02*
X-4300320Y-3372692I40000J0D01*
G01*
X-4300320Y-4075122D02*
G75*
G02*
X-4380320Y-4075122I-40000J0D01*
G01*
X-4380320Y-4075122D02*
G75*
G02*
X-4300320Y-4075122I40000J0D01*
G01*
X-4300320Y-4583778D02*
G75*
G02*
X-4380320Y-4583778I-40000J0D01*
G01*
X-4380320Y-4583778D02*
G75*
G02*
X-4300320Y-4583778I40000J0D01*
G01*
X-4298239Y-2215787D02*
G75*
G02*
X-4378239Y-2215787I-40000J0D01*
G01*
X-4378239Y-2215787D02*
G75*
G02*
X-4298239Y-2215787I40000J0D01*
G01*
X-4298239Y-2977787D02*
G75*
G02*
X-4378239Y-2977787I-40000J0D01*
G01*
X-4378239Y-2977787D02*
G75*
G02*
X-4298239Y-2977787I40000J0D01*
G01*
X-4210700Y-8095D02*
G75*
G02*
X-4290700Y-8095I-40000J0D01*
G01*
X-4290700Y-8095D02*
G75*
G02*
X-4210700Y-8095I40000J0D01*
G01*
X-4210700Y-419864D02*
G75*
G02*
X-4290700Y-419864I-40000J0D01*
G01*
X-4290700Y-419864D02*
G75*
G02*
X-4210700Y-419864I40000J0D01*
G01*
X-4044239Y-2215787D02*
G75*
G02*
X-4124239Y-2215787I-40000J0D01*
G01*
X-4124239Y-2215787D02*
G75*
G02*
X-4044239Y-2215787I40000J0D01*
G01*
X-4044239Y-2977787D02*
G75*
G02*
X-4124239Y-2977787I-40000J0D01*
G01*
X-4124239Y-2977787D02*
G75*
G02*
X-4044239Y-2977787I40000J0D01*
G01*
X-3806500Y-3372692D02*
G75*
G02*
X-3886500Y-3372692I-40000J0D01*
G01*
X-3886500Y-3372692D02*
G75*
G02*
X-3806500Y-3372692I40000J0D01*
G01*
X-3806500Y-4075122D02*
G75*
G02*
X-3886500Y-4075122I-40000J0D01*
G01*
X-3886500Y-4075122D02*
G75*
G02*
X-3806500Y-4075122I40000J0D01*
G01*
X-3806500Y-4583778D02*
G75*
G02*
X-3886500Y-4583778I-40000J0D01*
G01*
X-3886500Y-4583778D02*
G75*
G02*
X-3806500Y-4583778I40000J0D01*
G01*
X-3797314Y-3731173D02*
G75*
G02*
X-3877314Y-3731173I-40000J0D01*
G01*
X-3877314Y-3731173D02*
G75*
G02*
X-3797314Y-3731173I40000J0D01*
G01*
X-3790239Y-2215787D02*
G75*
G02*
X-3870239Y-2215787I-40000J0D01*
G01*
X-3870239Y-2215787D02*
G75*
G02*
X-3790239Y-2215787I40000J0D01*
G01*
X-3790239Y-2977787D02*
G75*
G02*
X-3870239Y-2977787I-40000J0D01*
G01*
X-3870239Y-2977787D02*
G75*
G02*
X-3790239Y-2977787I40000J0D01*
G01*
X-3665788Y-5501630D02*
G75*
G02*
X-3745788Y-5501630I-40000J0D01*
G01*
X-3745788Y-5501630D02*
G75*
G02*
X-3665788Y-5501630I40000J0D01*
G01*
X-3665788Y-5755630D02*
G75*
G02*
X-3745788Y-5755630I-40000J0D01*
G01*
X-3745788Y-5755630D02*
G75*
G02*
X-3665788Y-5755630I40000J0D01*
G01*
X-3665788Y-6009630D02*
G75*
G02*
X-3745788Y-6009630I-40000J0D01*
G01*
X-3745788Y-6009630D02*
G75*
G02*
X-3665788Y-6009630I40000J0D01*
G01*
X-3665788Y-6263630D02*
G75*
G02*
X-3745788Y-6263630I-40000J0D01*
G01*
X-3745788Y-6263630D02*
G75*
G02*
X-3665788Y-6263630I40000J0D01*
G01*
X-3665788Y-6517630D02*
G75*
G02*
X-3745788Y-6517630I-40000J0D01*
G01*
X-3745788Y-6517630D02*
G75*
G02*
X-3665788Y-6517630I40000J0D01*
G01*
X-3665788Y-6771630D02*
G75*
G02*
X-3745788Y-6771630I-40000J0D01*
G01*
X-3745788Y-6771630D02*
G75*
G02*
X-3665788Y-6771630I40000J0D01*
G01*
X-3665788Y-7025630D02*
G75*
G02*
X-3745788Y-7025630I-40000J0D01*
G01*
X-3745788Y-7025630D02*
G75*
G02*
X-3665788Y-7025630I40000J0D01*
G01*
X-3665788Y-7279630D02*
G75*
G02*
X-3745788Y-7279630I-40000J0D01*
G01*
X-3745788Y-7279630D02*
G75*
G02*
X-3665788Y-7279630I40000J0D01*
G01*
X-3643000Y-7620000D02*
G75*
G02*
X-3723000Y-7620000I-40000J0D01*
G01*
X-3723000Y-7620000D02*
G75*
G02*
X-3643000Y-7620000I40000J0D01*
G01*
X-3557403Y-1817659D02*
G75*
G02*
X-3637403Y-1817659I-40000J0D01*
G01*
X-3637403Y-1817659D02*
G75*
G02*
X-3557403Y-1817659I40000J0D01*
G01*
X-3543291Y-940631D02*
G75*
G02*
X-3623291Y-940631I-40000J0D01*
G01*
X-3623291Y-940631D02*
G75*
G02*
X-3543291Y-940631I40000J0D01*
G01*
X-3536239Y-2215787D02*
G75*
G02*
X-3616239Y-2215787I-40000J0D01*
G01*
X-3616239Y-2215787D02*
G75*
G02*
X-3536239Y-2215787I40000J0D01*
G01*
X-3536239Y-2977787D02*
G75*
G02*
X-3616239Y-2977787I-40000J0D01*
G01*
X-3616239Y-2977787D02*
G75*
G02*
X-3536239Y-2977787I40000J0D01*
G01*
X-3313841Y-6706659D02*
G75*
G02*
X-3393841Y-6706659I-40000J0D01*
G01*
X-3393841Y-6706659D02*
G75*
G02*
X-3313841Y-6706659I40000J0D01*
G01*
X-3313841Y-7722659D02*
G75*
G02*
X-3393841Y-7722659I-40000J0D01*
G01*
X-3393841Y-7722659D02*
G75*
G02*
X-3313841Y-7722659I40000J0D01*
G01*
X-3297314Y-3731173D02*
G75*
G02*
X-3377314Y-3731173I-40000J0D01*
G01*
X-3377314Y-3731173D02*
G75*
G02*
X-3297314Y-3731173I40000J0D01*
G01*
X-3282239Y-2215787D02*
G75*
G02*
X-3362239Y-2215787I-40000J0D01*
G01*
X-3362239Y-2215787D02*
G75*
G02*
X-3282239Y-2215787I40000J0D01*
G01*
X-3282239Y-2977787D02*
G75*
G02*
X-3362239Y-2977787I-40000J0D01*
G01*
X-3362239Y-2977787D02*
G75*
G02*
X-3282239Y-2977787I40000J0D01*
G01*
X-3057403Y-1817659D02*
G75*
G02*
X-3137403Y-1817659I-40000J0D01*
G01*
X-3137403Y-1817659D02*
G75*
G02*
X-3057403Y-1817659I40000J0D01*
G01*
X-2961970Y-6960331D02*
G75*
G02*
X-3041970Y-6960331I-40000J0D01*
G01*
X-3041970Y-6960331D02*
G75*
G02*
X-2961970Y-6960331I40000J0D01*
G01*
X-2961970Y-7359989D02*
G75*
G02*
X-3041970Y-7359989I-40000J0D01*
G01*
X-3041970Y-7359989D02*
G75*
G02*
X-2961970Y-7359989I40000J0D01*
G01*
X-2946200Y-419864D02*
G75*
G02*
X-3026200Y-419864I-40000J0D01*
G01*
X-3026200Y-419864D02*
G75*
G02*
X-2946200Y-419864I40000J0D01*
G01*
X-2937748Y-6136793D02*
G75*
G02*
X-3017748Y-6136793I-40000J0D01*
G01*
X-3017748Y-6136793D02*
G75*
G02*
X-2937748Y-6136793I40000J0D01*
G01*
X-2937748Y-6427453D02*
G75*
G02*
X-3017748Y-6427453I-40000J0D01*
G01*
X-3017748Y-6427453D02*
G75*
G02*
X-2937748Y-6427453I40000J0D01*
G01*
X-2853628Y-4890031D02*
G75*
G02*
X-2933628Y-4890031I-40000J0D01*
G01*
X-2933628Y-4890031D02*
G75*
G02*
X-2853628Y-4890031I40000J0D01*
G01*
X-2853628Y-5906031D02*
G75*
G02*
X-2933628Y-5906031I-40000J0D01*
G01*
X-2933628Y-5906031D02*
G75*
G02*
X-2853628Y-5906031I40000J0D01*
G01*
X-2790500Y-3372692D02*
G75*
G02*
X-2870500Y-3372692I-40000J0D01*
G01*
X-2870500Y-3372692D02*
G75*
G02*
X-2790500Y-3372692I40000J0D01*
G01*
X-2790500Y-4075122D02*
G75*
G02*
X-2870500Y-4075122I-40000J0D01*
G01*
X-2870500Y-4075122D02*
G75*
G02*
X-2790500Y-4075122I40000J0D01*
G01*
X-2790500Y-4583778D02*
G75*
G02*
X-2870500Y-4583778I-40000J0D01*
G01*
X-2870500Y-4583778D02*
G75*
G02*
X-2790500Y-4583778I40000J0D01*
G01*
X-2692200Y-165864D02*
G75*
G02*
X-2772200Y-165864I-40000J0D01*
G01*
X-2772200Y-165864D02*
G75*
G02*
X-2692200Y-165864I40000J0D01*
G01*
X-2527291Y-940631D02*
G75*
G02*
X-2607291Y-940631I-40000J0D01*
G01*
X-2607291Y-940631D02*
G75*
G02*
X-2527291Y-940631I40000J0D01*
G01*
X-2438200Y-419864D02*
G75*
G02*
X-2518200Y-419864I-40000J0D01*
G01*
X-2518200Y-419864D02*
G75*
G02*
X-2438200Y-419864I40000J0D01*
G01*
X-2429093Y-5143703D02*
G75*
G02*
X-2509093Y-5143703I-40000J0D01*
G01*
X-2509093Y-5143703D02*
G75*
G02*
X-2429093Y-5143703I40000J0D01*
G01*
X-2429093Y-5494918D02*
G75*
G02*
X-2509093Y-5494918I-40000J0D01*
G01*
X-2509093Y-5494918D02*
G75*
G02*
X-2429093Y-5494918I40000J0D01*
G01*
X-2316058Y-2193903D02*
G75*
G02*
X-2396058Y-2193903I-40000J0D01*
G01*
X-2396058Y-2193903D02*
G75*
G02*
X-2316058Y-2193903I40000J0D01*
G01*
X-2268270Y-3267832D02*
G75*
G02*
X-2348270Y-3267832I-40000J0D01*
G01*
X-2348270Y-3267832D02*
G75*
G02*
X-2268270Y-3267832I40000J0D01*
G01*
X-2268270Y-4283832D02*
G75*
G02*
X-2348270Y-4283832I-40000J0D01*
G01*
X-2348270Y-4283832D02*
G75*
G02*
X-2268270Y-4283832I40000J0D01*
G01*
X-2150543Y-20206D02*
G75*
G02*
X-2230543Y-20206I-40000J0D01*
G01*
X-2230543Y-20206D02*
G75*
G02*
X-2150543Y-20206I40000J0D01*
G01*
X-2150543Y-419864D02*
G75*
G02*
X-2230543Y-419864I-40000J0D01*
G01*
X-2230543Y-419864D02*
G75*
G02*
X-2150543Y-419864I40000J0D01*
G01*
X-1945970Y-6960331D02*
G75*
G02*
X-2025970Y-6960331I-40000J0D01*
G01*
X-2025970Y-6960331D02*
G75*
G02*
X-1945970Y-6960331I40000J0D01*
G01*
X-1945970Y-7359989D02*
G75*
G02*
X-2025970Y-7359989I-40000J0D01*
G01*
X-2025970Y-7359989D02*
G75*
G02*
X-1945970Y-7359989I40000J0D01*
G01*
X-1921748Y-6136793D02*
G75*
G02*
X-2001748Y-6136793I-40000J0D01*
G01*
X-2001748Y-6136793D02*
G75*
G02*
X-1921748Y-6136793I40000J0D01*
G01*
X-1921748Y-6427453D02*
G75*
G02*
X-2001748Y-6427453I-40000J0D01*
G01*
X-2001748Y-6427453D02*
G75*
G02*
X-1921748Y-6427453I40000J0D01*
G01*
X-1807402Y-2912480D02*
G75*
G02*
X-1887402Y-2912480I-40000J0D01*
G01*
X-1887402Y-2912480D02*
G75*
G02*
X-1807402Y-2912480I40000J0D01*
G01*
X-1807402Y-3380766D02*
G75*
G02*
X-1887402Y-3380766I-40000J0D01*
G01*
X-1887402Y-3380766D02*
G75*
G02*
X-1807402Y-3380766I40000J0D01*
G01*
X-1807402Y-3736018D02*
G75*
G02*
X-1887402Y-3736018I-40000J0D01*
G01*
X-1887402Y-3736018D02*
G75*
G02*
X-1807402Y-3736018I40000J0D01*
G01*
X-1686671Y-6724573D02*
G75*
G02*
X-1766671Y-6724573I-40000J0D01*
G01*
X-1766671Y-6724573D02*
G75*
G02*
X-1686671Y-6724573I40000J0D01*
G01*
X-1674560Y-7596554D02*
G75*
G02*
X-1754560Y-7596554I-40000J0D01*
G01*
X-1754560Y-7596554D02*
G75*
G02*
X-1674560Y-7596554I40000J0D01*
G01*
X-1484000Y-4572000D02*
G75*
G02*
X-1564000Y-4572000I-40000J0D01*
G01*
X-1564000Y-4572000D02*
G75*
G02*
X-1484000Y-4572000I40000J0D01*
G01*
X-1413092Y-5143703D02*
G75*
G02*
X-1493092Y-5143703I-40000J0D01*
G01*
X-1493092Y-5143703D02*
G75*
G02*
X-1413092Y-5143703I40000J0D01*
G01*
X-1413092Y-5494918D02*
G75*
G02*
X-1493092Y-5494918I-40000J0D01*
G01*
X-1493092Y-5494918D02*
G75*
G02*
X-1413092Y-5494918I40000J0D01*
G01*
X-1300058Y-2193903D02*
G75*
G02*
X-1380058Y-2193903I-40000J0D01*
G01*
X-1380058Y-2193903D02*
G75*
G02*
X-1300058Y-2193903I40000J0D01*
G01*
X-1186671Y-6724573D02*
G75*
G02*
X-1266671Y-6724573I-40000J0D01*
G01*
X-1266671Y-6724573D02*
G75*
G02*
X-1186671Y-6724573I40000J0D01*
G01*
X-1174560Y-7596554D02*
G75*
G02*
X-1254560Y-7596554I-40000J0D01*
G01*
X-1254560Y-7596554D02*
G75*
G02*
X-1174560Y-7596554I40000J0D01*
G01*
X-1134543Y-20206D02*
G75*
G02*
X-1214543Y-20206I-40000J0D01*
G01*
X-1214543Y-20206D02*
G75*
G02*
X-1134543Y-20206I40000J0D01*
G01*
X-1134543Y-419864D02*
G75*
G02*
X-1214543Y-419864I-40000J0D01*
G01*
X-1214543Y-419864D02*
G75*
G02*
X-1134543Y-419864I40000J0D01*
G01*
X-791402Y-2912480D02*
G75*
G02*
X-871402Y-2912480I-40000J0D01*
G01*
X-871402Y-2912480D02*
G75*
G02*
X-791402Y-2912480I40000J0D01*
G01*
X-791402Y-3380766D02*
G75*
G02*
X-871402Y-3380766I-40000J0D01*
G01*
X-871402Y-3380766D02*
G75*
G02*
X-791402Y-3380766I40000J0D01*
G01*
X-791402Y-3736018D02*
G75*
G02*
X-871402Y-3736018I-40000J0D01*
G01*
X-871402Y-3736018D02*
G75*
G02*
X-791402Y-3736018I40000J0D01*
G01*
X-275227Y-4570876D02*
G75*
G02*
X-355227Y-4570876I-40000J0D01*
G01*
X-355227Y-4570876D02*
G75*
G02*
X-275227Y-4570876I40000J0D01*
G01*
X-7077254Y-6407288D02*
X-7077254Y-6507288D01*
X-7127254Y-6457288D02*
X-7027254Y-6457288D01*
X-7077254Y-6661288D02*
X-7077254Y-6761288D01*
X-7127254Y-6711288D02*
X-7027254Y-6711288D01*
X-7077254Y-6915288D02*
X-7077254Y-7015288D01*
X-7127254Y-6965288D02*
X-7027254Y-6965288D01*
X-7077254Y-7169288D02*
X-7077254Y-7269288D01*
X-7127254Y-7219288D02*
X-7027254Y-7219288D01*
X-7077254Y-7423288D02*
X-7077254Y-7523288D01*
X-7127254Y-7473288D02*
X-7027254Y-7473288D01*
X-6823254Y-6407288D02*
X-6823254Y-6507288D01*
X-6873254Y-6457288D02*
X-6773254Y-6457288D01*
X-6823254Y-6661288D02*
X-6823254Y-6761288D01*
X-6873254Y-6711288D02*
X-6773254Y-6711288D01*
X-6823254Y-6915288D02*
X-6823254Y-7015288D01*
X-6873254Y-6965288D02*
X-6773254Y-6965288D01*
X-6823254Y-7169288D02*
X-6823254Y-7269288D01*
X-6873254Y-7219288D02*
X-6773254Y-7219288D01*
X-6823254Y-7423288D02*
X-6823254Y-7523288D01*
X-6873254Y-7473288D02*
X-6773254Y-7473288D01*
D12*
X-7166926Y-2661323D02*
X-7166926Y-2569398D01*
X-7258850Y-2569398D01*
X-7258850Y-2661323D01*
X-7166926Y-2661323D01*
X-7166926Y-4090403D02*
X-7166926Y-3998479D01*
X-7258850Y-3998479D01*
X-7258850Y-4090403D01*
X-7166926Y-4090403D01*
X-7166926Y-4983781D02*
X-7166926Y-4891856D01*
X-7258850Y-4891856D01*
X-7258850Y-4983781D01*
X-7166926Y-4983781D01*
X-6767267Y-932498D02*
X-6767267Y-840573D01*
X-6859192Y-840573D01*
X-6859192Y-932498D01*
X-6767267Y-932498D01*
X-6609826Y-553962D02*
X-6609826Y-462038D01*
X-6701751Y-462038D01*
X-6701751Y-553962D01*
X-6609826Y-553962D01*
X-6512939Y-932498D02*
X-6512939Y-840573D01*
X-6604864Y-840573D01*
X-6604864Y-932498D01*
X-6512939Y-932498D01*
X-6500829Y-1442962D02*
X-6500829Y-1351038D01*
X-6592753Y-1351038D01*
X-6592753Y-1442962D01*
X-6500829Y-1442962D01*
X-6500829Y-1828701D02*
X-6500829Y-1736777D01*
X-6592753Y-1736777D01*
X-6592753Y-1828701D01*
X-6500829Y-1828701D01*
X-6304038Y-553962D02*
X-6304038Y-462038D01*
X-6395962Y-462038D01*
X-6395962Y-553962D01*
X-6304038Y-553962D01*
X-6004284Y-1442962D02*
X-6004284Y-1351038D01*
X-6096208Y-1351038D01*
X-6096208Y-1442962D01*
X-6004284Y-1442962D01*
X-6004284Y-1828701D02*
X-6004284Y-1736777D01*
X-6096208Y-1736777D01*
X-6096208Y-1828701D01*
X-6004284Y-1828701D01*
X-5822621Y-986593D02*
X-5822621Y-894668D01*
X-5914546Y-894668D01*
X-5914546Y-986593D01*
X-5822621Y-986593D01*
X-5580404Y-2252581D02*
X-5580404Y-2160657D01*
X-5672328Y-2160657D01*
X-5672328Y-2252581D01*
X-5580404Y-2252581D01*
X-5528053Y-3420738D02*
X-5528053Y-3328813D01*
X-5619978Y-3328813D01*
X-5619978Y-3420738D01*
X-5528053Y-3420738D01*
X-4114990Y-1453265D02*
X-4114990Y-1361340D01*
X-4206915Y-1361340D01*
X-4206915Y-1453265D01*
X-4114990Y-1453265D01*
X-4005993Y-72628D02*
X-4005993Y19297D01*
X-4097917Y19297D01*
X-4097917Y-72628D01*
X-4005993Y-72628D01*
X-4005993Y-460175D02*
X-4005993Y-368250D01*
X-4097917Y-368250D01*
X-4097917Y-460175D01*
X-4005993Y-460175D01*
X-3739554Y-72628D02*
X-3739554Y19297D01*
X-3831479Y19297D01*
X-3831479Y-72628D01*
X-3739554Y-72628D01*
X-3618445Y-1453265D02*
X-3618445Y-1361340D01*
X-3710370Y-1361340D01*
X-3710370Y-1453265D01*
X-3618445Y-1453265D01*
X-3256038Y-299962D02*
X-3256038Y-208038D01*
X-3347962Y-208038D01*
X-3347962Y-299962D01*
X-3256038Y-299962D01*
X-3256038Y-593394D02*
X-3256038Y-501469D01*
X-3347962Y-501469D01*
X-3347962Y-593394D01*
X-3256038Y-593394D01*
X-2579491Y-3420738D02*
X-2579491Y-3328813D01*
X-2671415Y-3328813D01*
X-2671415Y-3420738D01*
X-2579491Y-3420738D01*
X-2576912Y-2252581D02*
X-2576912Y-2160657D01*
X-2668837Y-2160657D01*
X-2668837Y-2252581D01*
X-2576912Y-2252581D01*
X-2298362Y-980942D02*
X-2298362Y-889017D01*
X-2390287Y-889017D01*
X-2390287Y-980942D01*
X-2298362Y-980942D01*
X-2140921Y-1442962D02*
X-2140921Y-1351038D01*
X-2232846Y-1351038D01*
X-2232846Y-1442962D01*
X-2140921Y-1442962D01*
X-2140921Y-1828701D02*
X-2140921Y-1736777D01*
X-2232846Y-1736777D01*
X-2232846Y-1828701D01*
X-2140921Y-1828701D01*
X-1620154Y-1828701D02*
X-1620154Y-1736777D01*
X-1712079Y-1736777D01*
X-1712079Y-1828701D01*
X-1620154Y-1828701D01*
X-1605038Y-1442962D02*
X-1605038Y-1351038D01*
X-1696962Y-1351038D01*
X-1696962Y-1442962D01*
X-1605038Y-1442962D01*
X-1268940Y-4984790D02*
X-1268940Y-4892865D01*
X-1360865Y-4892865D01*
X-1360865Y-4984790D01*
X-1268940Y-4984790D01*
X-917725Y-78279D02*
X-917725Y13646D01*
X-1009650Y13646D01*
X-1009650Y-78279D01*
X-917725Y-78279D01*
X-917725Y-465827D02*
X-917725Y-373902D01*
X-1009650Y-373902D01*
X-1009650Y-465827D01*
X-917725Y-465827D01*
X-808727Y-2697655D02*
X-808727Y-2605730D01*
X-900652Y-2605730D01*
X-900652Y-2697655D01*
X-808727Y-2697655D01*
X-808727Y-4054071D02*
X-808727Y-3962146D01*
X-900652Y-3962146D01*
X-900652Y-4054071D01*
X-808727Y-4054071D01*
X-651286Y-78279D02*
X-651286Y13646D01*
X-743211Y13646D01*
X-743211Y-78279D01*
X-651286Y-78279D01*
D11*
X-7237223Y-8317484D02*
X-7237223Y-8117484D01*
X-7237223Y-8117484D02*
X-7189604Y-8117484D01*
X-7189604Y-8117484D02*
X-7161033Y-8127008D01*
X-7161033Y-8127008D02*
X-7141985Y-8146055D01*
X-7141985Y-8146055D02*
X-7132461Y-8165103D01*
X-7132461Y-8165103D02*
X-7122937Y-8203198D01*
X-7122937Y-8203198D02*
X-7122937Y-8231769D01*
X-7122937Y-8231769D02*
X-7132461Y-8269865D01*
X-7132461Y-8269865D02*
X-7141985Y-8288912D01*
X-7141985Y-8288912D02*
X-7161033Y-8307960D01*
X-7161033Y-8307960D02*
X-7189604Y-8317484D01*
X-7189604Y-8317484D02*
X-7237223Y-8317484D01*
X-7037223Y-8317484D02*
X-7037223Y-8184150D01*
X-7037223Y-8222246D02*
X-7027699Y-8203198D01*
X-7027699Y-8203198D02*
X-7018176Y-8193674D01*
X-7018176Y-8193674D02*
X-6999128Y-8184150D01*
X-6999128Y-8184150D02*
X-6980080Y-8184150D01*
X-6913414Y-8317484D02*
X-6913414Y-8184150D01*
X-6913414Y-8117484D02*
X-6922937Y-8127008D01*
X-6922937Y-8127008D02*
X-6913414Y-8136531D01*
X-6913414Y-8136531D02*
X-6903890Y-8127008D01*
X-6903890Y-8127008D02*
X-6913414Y-8117484D01*
X-6913414Y-8117484D02*
X-6913414Y-8136531D01*
X-6789604Y-8317484D02*
X-6808652Y-8307960D01*
X-6808652Y-8307960D02*
X-6818176Y-8288912D01*
X-6818176Y-8288912D02*
X-6818176Y-8117484D01*
X-6684842Y-8317484D02*
X-6703890Y-8307960D01*
X-6703890Y-8307960D02*
X-6713414Y-8288912D01*
X-6713414Y-8288912D02*
X-6713414Y-8117484D01*
X-6456271Y-8317484D02*
X-6456271Y-8117484D01*
X-6456271Y-8117484D02*
X-6389604Y-8260341D01*
X-6389604Y-8260341D02*
X-6322937Y-8117484D01*
X-6322937Y-8117484D02*
X-6322937Y-8317484D01*
X-6141985Y-8317484D02*
X-6141985Y-8212722D01*
X-6141985Y-8212722D02*
X-6151509Y-8193674D01*
X-6151509Y-8193674D02*
X-6170556Y-8184150D01*
X-6170556Y-8184150D02*
X-6208652Y-8184150D01*
X-6208652Y-8184150D02*
X-6227699Y-8193674D01*
X-6141985Y-8307960D02*
X-6161033Y-8317484D01*
X-6161033Y-8317484D02*
X-6208652Y-8317484D01*
X-6208652Y-8317484D02*
X-6227699Y-8307960D01*
X-6227699Y-8307960D02*
X-6237223Y-8288912D01*
X-6237223Y-8288912D02*
X-6237223Y-8269865D01*
X-6237223Y-8269865D02*
X-6227699Y-8250817D01*
X-6227699Y-8250817D02*
X-6208652Y-8241293D01*
X-6208652Y-8241293D02*
X-6161033Y-8241293D01*
X-6161033Y-8241293D02*
X-6141985Y-8231769D01*
X-6046747Y-8184150D02*
X-6046747Y-8384150D01*
X-6046747Y-8193674D02*
X-6027699Y-8184150D01*
X-6027699Y-8184150D02*
X-5989604Y-8184150D01*
X-5989604Y-8184150D02*
X-5970556Y-8193674D01*
X-5970556Y-8193674D02*
X-5961033Y-8203198D01*
X-5961033Y-8203198D02*
X-5951509Y-8222246D01*
X-5951509Y-8222246D02*
X-5951509Y-8279388D01*
X-5951509Y-8279388D02*
X-5961033Y-8298436D01*
X-5961033Y-8298436D02*
X-5970556Y-8307960D01*
X-5970556Y-8307960D02*
X-5989604Y-8317484D01*
X-5989604Y-8317484D02*
X-6027699Y-8317484D01*
X-6027699Y-8317484D02*
X-6046747Y-8307960D01*
X-5865795Y-8298436D02*
X-5856271Y-8307960D01*
X-5856271Y-8307960D02*
X-5865795Y-8317484D01*
X-5865795Y-8317484D02*
X-5875318Y-8307960D01*
X-5875318Y-8307960D02*
X-5865795Y-8298436D01*
X-5865795Y-8298436D02*
X-5865795Y-8317484D01*
X-5865795Y-8193674D02*
X-5856271Y-8203198D01*
X-5856271Y-8203198D02*
X-5865795Y-8212722D01*
X-5865795Y-8212722D02*
X-5875318Y-8203198D01*
X-5875318Y-8203198D02*
X-5865795Y-8193674D01*
X-5865795Y-8193674D02*
X-5865795Y-8212722D01*
D10*
X-7568000Y-8611000D02*
X-7498000Y-8681000D01*
X-7498000Y-8611000D02*
X-7568000Y-8681000D01*
D11*
X-7199128Y-8537484D02*
X-7180080Y-8537484D01*
X-7180080Y-8537484D02*
X-7161033Y-8547008D01*
X-7161033Y-8547008D02*
X-7151509Y-8556531D01*
X-7151509Y-8556531D02*
X-7141985Y-8575579D01*
X-7141985Y-8575579D02*
X-7132461Y-8613674D01*
X-7132461Y-8613674D02*
X-7132461Y-8661293D01*
X-7132461Y-8661293D02*
X-7141985Y-8699389D01*
X-7141985Y-8699389D02*
X-7151509Y-8718436D01*
X-7151509Y-8718436D02*
X-7161033Y-8727960D01*
X-7161033Y-8727960D02*
X-7180080Y-8737484D01*
X-7180080Y-8737484D02*
X-7199128Y-8737484D01*
X-7199128Y-8737484D02*
X-7218176Y-8727960D01*
X-7218176Y-8727960D02*
X-7227699Y-8718436D01*
X-7227699Y-8718436D02*
X-7237223Y-8699389D01*
X-7237223Y-8699389D02*
X-7246747Y-8661293D01*
X-7246747Y-8661293D02*
X-7246747Y-8613674D01*
X-7246747Y-8613674D02*
X-7237223Y-8575579D01*
X-7237223Y-8575579D02*
X-7227699Y-8556531D01*
X-7227699Y-8556531D02*
X-7218176Y-8547008D01*
X-7218176Y-8547008D02*
X-7199128Y-8537484D01*
X-7046747Y-8718436D02*
X-7037223Y-8727960D01*
X-7037223Y-8727960D02*
X-7046747Y-8737484D01*
X-7046747Y-8737484D02*
X-7056271Y-8727960D01*
X-7056271Y-8727960D02*
X-7046747Y-8718436D01*
X-7046747Y-8718436D02*
X-7046747Y-8737484D01*
X-6970556Y-8537484D02*
X-6837223Y-8537484D01*
X-6837223Y-8537484D02*
X-6922937Y-8737484D01*
X-6722937Y-8537484D02*
X-6703890Y-8537484D01*
X-6703890Y-8537484D02*
X-6684842Y-8547008D01*
X-6684842Y-8547008D02*
X-6675318Y-8556531D01*
X-6675318Y-8556531D02*
X-6665795Y-8575579D01*
X-6665795Y-8575579D02*
X-6656271Y-8613674D01*
X-6656271Y-8613674D02*
X-6656271Y-8661293D01*
X-6656271Y-8661293D02*
X-6665795Y-8699389D01*
X-6665795Y-8699389D02*
X-6675318Y-8718436D01*
X-6675318Y-8718436D02*
X-6684842Y-8727960D01*
X-6684842Y-8727960D02*
X-6703890Y-8737484D01*
X-6703890Y-8737484D02*
X-6722937Y-8737484D01*
X-6722937Y-8737484D02*
X-6741985Y-8727960D01*
X-6741985Y-8727960D02*
X-6751509Y-8718436D01*
X-6751509Y-8718436D02*
X-6761033Y-8699389D01*
X-6761033Y-8699389D02*
X-6770556Y-8661293D01*
X-6770556Y-8661293D02*
X-6770556Y-8613674D01*
X-6770556Y-8613674D02*
X-6761033Y-8575579D01*
X-6761033Y-8575579D02*
X-6751509Y-8556531D01*
X-6751509Y-8556531D02*
X-6741985Y-8547008D01*
X-6741985Y-8547008D02*
X-6722937Y-8537484D01*
X-6532461Y-8537484D02*
X-6513414Y-8537484D01*
X-6513414Y-8537484D02*
X-6494366Y-8547008D01*
X-6494366Y-8547008D02*
X-6484842Y-8556531D01*
X-6484842Y-8556531D02*
X-6475318Y-8575579D01*
X-6475318Y-8575579D02*
X-6465795Y-8613674D01*
X-6465795Y-8613674D02*
X-6465795Y-8661293D01*
X-6465795Y-8661293D02*
X-6475318Y-8699389D01*
X-6475318Y-8699389D02*
X-6484842Y-8718436D01*
X-6484842Y-8718436D02*
X-6494366Y-8727960D01*
X-6494366Y-8727960D02*
X-6513414Y-8737484D01*
X-6513414Y-8737484D02*
X-6532461Y-8737484D01*
X-6532461Y-8737484D02*
X-6551509Y-8727960D01*
X-6551509Y-8727960D02*
X-6561033Y-8718436D01*
X-6561033Y-8718436D02*
X-6570556Y-8699389D01*
X-6570556Y-8699389D02*
X-6580080Y-8661293D01*
X-6580080Y-8661293D02*
X-6580080Y-8613674D01*
X-6580080Y-8613674D02*
X-6570556Y-8575579D01*
X-6570556Y-8575579D02*
X-6561033Y-8556531D01*
X-6561033Y-8556531D02*
X-6551509Y-8547008D01*
X-6551509Y-8547008D02*
X-6532461Y-8537484D01*
X-6380080Y-8737484D02*
X-6380080Y-8604150D01*
X-6380080Y-8623198D02*
X-6370556Y-8613674D01*
X-6370556Y-8613674D02*
X-6351509Y-8604150D01*
X-6351509Y-8604150D02*
X-6322937Y-8604150D01*
X-6322937Y-8604150D02*
X-6303890Y-8613674D01*
X-6303890Y-8613674D02*
X-6294366Y-8632722D01*
X-6294366Y-8632722D02*
X-6294366Y-8737484D01*
X-6294366Y-8632722D02*
X-6284842Y-8613674D01*
X-6284842Y-8613674D02*
X-6265795Y-8604150D01*
X-6265795Y-8604150D02*
X-6237223Y-8604150D01*
X-6237223Y-8604150D02*
X-6218175Y-8613674D01*
X-6218175Y-8613674D02*
X-6208652Y-8632722D01*
X-6208652Y-8632722D02*
X-6208652Y-8737484D01*
X-6113414Y-8737484D02*
X-6113414Y-8604150D01*
X-6113414Y-8623198D02*
X-6103890Y-8613674D01*
X-6103890Y-8613674D02*
X-6084842Y-8604150D01*
X-6084842Y-8604150D02*
X-6056271Y-8604150D01*
X-6056271Y-8604150D02*
X-6037223Y-8613674D01*
X-6037223Y-8613674D02*
X-6027699Y-8632722D01*
X-6027699Y-8632722D02*
X-6027699Y-8737484D01*
X-6027699Y-8632722D02*
X-6018175Y-8613674D01*
X-6018175Y-8613674D02*
X-5999128Y-8604150D01*
X-5999128Y-8604150D02*
X-5970556Y-8604150D01*
X-5970556Y-8604150D02*
X-5951509Y-8613674D01*
X-5951509Y-8613674D02*
X-5941985Y-8632722D01*
X-5941985Y-8632722D02*
X-5941985Y-8737484D01*
X-5551509Y-8527960D02*
X-5722937Y-8785103D01*
X-5294366Y-8537484D02*
X-5275318Y-8537484D01*
X-5275318Y-8537484D02*
X-5256271Y-8547008D01*
X-5256271Y-8547008D02*
X-5246747Y-8556531D01*
X-5246747Y-8556531D02*
X-5237223Y-8575579D01*
X-5237223Y-8575579D02*
X-5227699Y-8613674D01*
X-5227699Y-8613674D02*
X-5227699Y-8661293D01*
X-5227699Y-8661293D02*
X-5237223Y-8699389D01*
X-5237223Y-8699389D02*
X-5246747Y-8718436D01*
X-5246747Y-8718436D02*
X-5256271Y-8727960D01*
X-5256271Y-8727960D02*
X-5275318Y-8737484D01*
X-5275318Y-8737484D02*
X-5294366Y-8737484D01*
X-5294366Y-8737484D02*
X-5313414Y-8727960D01*
X-5313414Y-8727960D02*
X-5322937Y-8718436D01*
X-5322937Y-8718436D02*
X-5332461Y-8699389D01*
X-5332461Y-8699389D02*
X-5341985Y-8661293D01*
X-5341985Y-8661293D02*
X-5341985Y-8613674D01*
X-5341985Y-8613674D02*
X-5332461Y-8575579D01*
X-5332461Y-8575579D02*
X-5322937Y-8556531D01*
X-5322937Y-8556531D02*
X-5313414Y-8547008D01*
X-5313414Y-8547008D02*
X-5294366Y-8537484D01*
X-5141985Y-8718436D02*
X-5132461Y-8727960D01*
X-5132461Y-8727960D02*
X-5141985Y-8737484D01*
X-5141985Y-8737484D02*
X-5151509Y-8727960D01*
X-5151509Y-8727960D02*
X-5141985Y-8718436D01*
X-5141985Y-8718436D02*
X-5141985Y-8737484D01*
X-5008652Y-8537484D02*
X-4989604Y-8537484D01*
X-4989604Y-8537484D02*
X-4970556Y-8547008D01*
X-4970556Y-8547008D02*
X-4961033Y-8556531D01*
X-4961033Y-8556531D02*
X-4951509Y-8575579D01*
X-4951509Y-8575579D02*
X-4941985Y-8613674D01*
X-4941985Y-8613674D02*
X-4941985Y-8661293D01*
X-4941985Y-8661293D02*
X-4951509Y-8699389D01*
X-4951509Y-8699389D02*
X-4961033Y-8718436D01*
X-4961033Y-8718436D02*
X-4970556Y-8727960D01*
X-4970556Y-8727960D02*
X-4989604Y-8737484D01*
X-4989604Y-8737484D02*
X-5008652Y-8737484D01*
X-5008652Y-8737484D02*
X-5027699Y-8727960D01*
X-5027699Y-8727960D02*
X-5037223Y-8718436D01*
X-5037223Y-8718436D02*
X-5046747Y-8699389D01*
X-5046747Y-8699389D02*
X-5056271Y-8661293D01*
X-5056271Y-8661293D02*
X-5056271Y-8613674D01*
X-5056271Y-8613674D02*
X-5046747Y-8575579D01*
X-5046747Y-8575579D02*
X-5037223Y-8556531D01*
X-5037223Y-8556531D02*
X-5027699Y-8547008D01*
X-5027699Y-8547008D02*
X-5008652Y-8537484D01*
X-4865794Y-8556531D02*
X-4856271Y-8547008D01*
X-4856271Y-8547008D02*
X-4837223Y-8537484D01*
X-4837223Y-8537484D02*
X-4789604Y-8537484D01*
X-4789604Y-8537484D02*
X-4770556Y-8547008D01*
X-4770556Y-8547008D02*
X-4761033Y-8556531D01*
X-4761033Y-8556531D02*
X-4751509Y-8575579D01*
X-4751509Y-8575579D02*
X-4751509Y-8594627D01*
X-4751509Y-8594627D02*
X-4761033Y-8623198D01*
X-4761033Y-8623198D02*
X-4875318Y-8737484D01*
X-4875318Y-8737484D02*
X-4751509Y-8737484D01*
X-4684842Y-8537484D02*
X-4551509Y-8537484D01*
X-4551509Y-8537484D02*
X-4637223Y-8737484D01*
X-4389604Y-8537484D02*
X-4427699Y-8537484D01*
X-4427699Y-8537484D02*
X-4446747Y-8547008D01*
X-4446747Y-8547008D02*
X-4456271Y-8556531D01*
X-4456271Y-8556531D02*
X-4475318Y-8585103D01*
X-4475318Y-8585103D02*
X-4484842Y-8623198D01*
X-4484842Y-8623198D02*
X-4484842Y-8699389D01*
X-4484842Y-8699389D02*
X-4475318Y-8718436D01*
X-4475318Y-8718436D02*
X-4465794Y-8727960D01*
X-4465794Y-8727960D02*
X-4446747Y-8737484D01*
X-4446747Y-8737484D02*
X-4408652Y-8737484D01*
X-4408652Y-8737484D02*
X-4389604Y-8727960D01*
X-4389604Y-8727960D02*
X-4380080Y-8718436D01*
X-4380080Y-8718436D02*
X-4370556Y-8699389D01*
X-4370556Y-8699389D02*
X-4370556Y-8651770D01*
X-4370556Y-8651770D02*
X-4380080Y-8632722D01*
X-4380080Y-8632722D02*
X-4389604Y-8623198D01*
X-4389604Y-8623198D02*
X-4408652Y-8613674D01*
X-4408652Y-8613674D02*
X-4446747Y-8613674D01*
X-4446747Y-8613674D02*
X-4465794Y-8623198D01*
X-4465794Y-8623198D02*
X-4475318Y-8632722D01*
X-4475318Y-8632722D02*
X-4484842Y-8651770D01*
X-4294366Y-8537484D02*
X-4294366Y-8575579D01*
X-4218175Y-8537484D02*
X-4218175Y-8575579D01*
X-3922937Y-8813674D02*
X-3932461Y-8804150D01*
X-3932461Y-8804150D02*
X-3951509Y-8775579D01*
X-3951509Y-8775579D02*
X-3961032Y-8756531D01*
X-3961032Y-8756531D02*
X-3970556Y-8727960D01*
X-3970556Y-8727960D02*
X-3980080Y-8680341D01*
X-3980080Y-8680341D02*
X-3980080Y-8642246D01*
X-3980080Y-8642246D02*
X-3970556Y-8594627D01*
X-3970556Y-8594627D02*
X-3961032Y-8566055D01*
X-3961032Y-8566055D02*
X-3951509Y-8547008D01*
X-3951509Y-8547008D02*
X-3932461Y-8518436D01*
X-3932461Y-8518436D02*
X-3922937Y-8508912D01*
X-3761032Y-8537484D02*
X-3799128Y-8537484D01*
X-3799128Y-8537484D02*
X-3818175Y-8547008D01*
X-3818175Y-8547008D02*
X-3827699Y-8556531D01*
X-3827699Y-8556531D02*
X-3846747Y-8585103D01*
X-3846747Y-8585103D02*
X-3856270Y-8623198D01*
X-3856270Y-8623198D02*
X-3856270Y-8699389D01*
X-3856270Y-8699389D02*
X-3846747Y-8718436D01*
X-3846747Y-8718436D02*
X-3837223Y-8727960D01*
X-3837223Y-8727960D02*
X-3818175Y-8737484D01*
X-3818175Y-8737484D02*
X-3780080Y-8737484D01*
X-3780080Y-8737484D02*
X-3761032Y-8727960D01*
X-3761032Y-8727960D02*
X-3751509Y-8718436D01*
X-3751509Y-8718436D02*
X-3741985Y-8699389D01*
X-3741985Y-8699389D02*
X-3741985Y-8651770D01*
X-3741985Y-8651770D02*
X-3751509Y-8632722D01*
X-3751509Y-8632722D02*
X-3761032Y-8623198D01*
X-3761032Y-8623198D02*
X-3780080Y-8613674D01*
X-3780080Y-8613674D02*
X-3818175Y-8613674D01*
X-3818175Y-8613674D02*
X-3837223Y-8623198D01*
X-3837223Y-8623198D02*
X-3846747Y-8632722D01*
X-3846747Y-8632722D02*
X-3856270Y-8651770D01*
X-3503889Y-8737484D02*
X-3503889Y-8537484D01*
X-3418175Y-8737484D02*
X-3418175Y-8632722D01*
X-3418175Y-8632722D02*
X-3427699Y-8613674D01*
X-3427699Y-8613674D02*
X-3446747Y-8604150D01*
X-3446747Y-8604150D02*
X-3475318Y-8604150D01*
X-3475318Y-8604150D02*
X-3494366Y-8613674D01*
X-3494366Y-8613674D02*
X-3503889Y-8623198D01*
X-3294366Y-8737484D02*
X-3313413Y-8727960D01*
X-3313413Y-8727960D02*
X-3322937Y-8718436D01*
X-3322937Y-8718436D02*
X-3332461Y-8699389D01*
X-3332461Y-8699389D02*
X-3332461Y-8642246D01*
X-3332461Y-8642246D02*
X-3322937Y-8623198D01*
X-3322937Y-8623198D02*
X-3313413Y-8613674D01*
X-3313413Y-8613674D02*
X-3294366Y-8604150D01*
X-3294366Y-8604150D02*
X-3265794Y-8604150D01*
X-3265794Y-8604150D02*
X-3246747Y-8613674D01*
X-3246747Y-8613674D02*
X-3237223Y-8623198D01*
X-3237223Y-8623198D02*
X-3227699Y-8642246D01*
X-3227699Y-8642246D02*
X-3227699Y-8699389D01*
X-3227699Y-8699389D02*
X-3237223Y-8718436D01*
X-3237223Y-8718436D02*
X-3246747Y-8727960D01*
X-3246747Y-8727960D02*
X-3265794Y-8737484D01*
X-3265794Y-8737484D02*
X-3294366Y-8737484D01*
X-3113413Y-8737484D02*
X-3132461Y-8727960D01*
X-3132461Y-8727960D02*
X-3141985Y-8708912D01*
X-3141985Y-8708912D02*
X-3141985Y-8537484D01*
X-2961032Y-8727960D02*
X-2980080Y-8737484D01*
X-2980080Y-8737484D02*
X-3018175Y-8737484D01*
X-3018175Y-8737484D02*
X-3037223Y-8727960D01*
X-3037223Y-8727960D02*
X-3046747Y-8708912D01*
X-3046747Y-8708912D02*
X-3046747Y-8632722D01*
X-3046747Y-8632722D02*
X-3037223Y-8613674D01*
X-3037223Y-8613674D02*
X-3018175Y-8604150D01*
X-3018175Y-8604150D02*
X-2980080Y-8604150D01*
X-2980080Y-8604150D02*
X-2961032Y-8613674D01*
X-2961032Y-8613674D02*
X-2951508Y-8632722D01*
X-2951508Y-8632722D02*
X-2951508Y-8651770D01*
X-2951508Y-8651770D02*
X-3046747Y-8670817D01*
X-2875318Y-8727960D02*
X-2856270Y-8737484D01*
X-2856270Y-8737484D02*
X-2818175Y-8737484D01*
X-2818175Y-8737484D02*
X-2799127Y-8727960D01*
X-2799127Y-8727960D02*
X-2789604Y-8708912D01*
X-2789604Y-8708912D02*
X-2789604Y-8699389D01*
X-2789604Y-8699389D02*
X-2799127Y-8680341D01*
X-2799127Y-8680341D02*
X-2818175Y-8670817D01*
X-2818175Y-8670817D02*
X-2846747Y-8670817D01*
X-2846747Y-8670817D02*
X-2865794Y-8661293D01*
X-2865794Y-8661293D02*
X-2875318Y-8642246D01*
X-2875318Y-8642246D02*
X-2875318Y-8632722D01*
X-2875318Y-8632722D02*
X-2865794Y-8613674D01*
X-2865794Y-8613674D02*
X-2846747Y-8604150D01*
X-2846747Y-8604150D02*
X-2818175Y-8604150D01*
X-2818175Y-8604150D02*
X-2799127Y-8613674D01*
X-2722937Y-8813674D02*
X-2713413Y-8804150D01*
X-2713413Y-8804150D02*
X-2694366Y-8775579D01*
X-2694366Y-8775579D02*
X-2684842Y-8756531D01*
X-2684842Y-8756531D02*
X-2675318Y-8727960D01*
X-2675318Y-8727960D02*
X-2665794Y-8680341D01*
X-2665794Y-8680341D02*
X-2665794Y-8642246D01*
X-2665794Y-8642246D02*
X-2675318Y-8594627D01*
X-2675318Y-8594627D02*
X-2684842Y-8566055D01*
X-2684842Y-8566055D02*
X-2694366Y-8547008D01*
X-2694366Y-8547008D02*
X-2713413Y-8518436D01*
X-2713413Y-8518436D02*
X-2722937Y-8508912D01*
D10*
X-7498000Y-8910000D02*
G75*
G02*
X-7578000Y-8910000I-40000J0D01*
G01*
X-7578000Y-8910000D02*
G75*
G02*
X-7498000Y-8910000I40000J0D01*
G01*
D11*
X-7199128Y-8801484D02*
X-7180080Y-8801484D01*
X-7180080Y-8801484D02*
X-7161033Y-8811008D01*
X-7161033Y-8811008D02*
X-7151509Y-8820531D01*
X-7151509Y-8820531D02*
X-7141985Y-8839579D01*
X-7141985Y-8839579D02*
X-7132461Y-8877674D01*
X-7132461Y-8877674D02*
X-7132461Y-8925293D01*
X-7132461Y-8925293D02*
X-7141985Y-8963389D01*
X-7141985Y-8963389D02*
X-7151509Y-8982436D01*
X-7151509Y-8982436D02*
X-7161033Y-8991960D01*
X-7161033Y-8991960D02*
X-7180080Y-9001484D01*
X-7180080Y-9001484D02*
X-7199128Y-9001484D01*
X-7199128Y-9001484D02*
X-7218176Y-8991960D01*
X-7218176Y-8991960D02*
X-7227699Y-8982436D01*
X-7227699Y-8982436D02*
X-7237223Y-8963389D01*
X-7237223Y-8963389D02*
X-7246747Y-8925293D01*
X-7246747Y-8925293D02*
X-7246747Y-8877674D01*
X-7246747Y-8877674D02*
X-7237223Y-8839579D01*
X-7237223Y-8839579D02*
X-7227699Y-8820531D01*
X-7227699Y-8820531D02*
X-7218176Y-8811008D01*
X-7218176Y-8811008D02*
X-7199128Y-8801484D01*
X-7046747Y-8982436D02*
X-7037223Y-8991960D01*
X-7037223Y-8991960D02*
X-7046747Y-9001484D01*
X-7046747Y-9001484D02*
X-7056271Y-8991960D01*
X-7056271Y-8991960D02*
X-7046747Y-8982436D01*
X-7046747Y-8982436D02*
X-7046747Y-9001484D01*
X-6922937Y-8887198D02*
X-6941985Y-8877674D01*
X-6941985Y-8877674D02*
X-6951509Y-8868150D01*
X-6951509Y-8868150D02*
X-6961033Y-8849103D01*
X-6961033Y-8849103D02*
X-6961033Y-8839579D01*
X-6961033Y-8839579D02*
X-6951509Y-8820531D01*
X-6951509Y-8820531D02*
X-6941985Y-8811008D01*
X-6941985Y-8811008D02*
X-6922937Y-8801484D01*
X-6922937Y-8801484D02*
X-6884842Y-8801484D01*
X-6884842Y-8801484D02*
X-6865795Y-8811008D01*
X-6865795Y-8811008D02*
X-6856271Y-8820531D01*
X-6856271Y-8820531D02*
X-6846747Y-8839579D01*
X-6846747Y-8839579D02*
X-6846747Y-8849103D01*
X-6846747Y-8849103D02*
X-6856271Y-8868150D01*
X-6856271Y-8868150D02*
X-6865795Y-8877674D01*
X-6865795Y-8877674D02*
X-6884842Y-8887198D01*
X-6884842Y-8887198D02*
X-6922937Y-8887198D01*
X-6922937Y-8887198D02*
X-6941985Y-8896722D01*
X-6941985Y-8896722D02*
X-6951509Y-8906246D01*
X-6951509Y-8906246D02*
X-6961033Y-8925293D01*
X-6961033Y-8925293D02*
X-6961033Y-8963389D01*
X-6961033Y-8963389D02*
X-6951509Y-8982436D01*
X-6951509Y-8982436D02*
X-6941985Y-8991960D01*
X-6941985Y-8991960D02*
X-6922937Y-9001484D01*
X-6922937Y-9001484D02*
X-6884842Y-9001484D01*
X-6884842Y-9001484D02*
X-6865795Y-8991960D01*
X-6865795Y-8991960D02*
X-6856271Y-8982436D01*
X-6856271Y-8982436D02*
X-6846747Y-8963389D01*
X-6846747Y-8963389D02*
X-6846747Y-8925293D01*
X-6846747Y-8925293D02*
X-6856271Y-8906246D01*
X-6856271Y-8906246D02*
X-6865795Y-8896722D01*
X-6865795Y-8896722D02*
X-6884842Y-8887198D01*
X-6722937Y-8801484D02*
X-6703890Y-8801484D01*
X-6703890Y-8801484D02*
X-6684842Y-8811008D01*
X-6684842Y-8811008D02*
X-6675318Y-8820531D01*
X-6675318Y-8820531D02*
X-6665795Y-8839579D01*
X-6665795Y-8839579D02*
X-6656271Y-8877674D01*
X-6656271Y-8877674D02*
X-6656271Y-8925293D01*
X-6656271Y-8925293D02*
X-6665795Y-8963389D01*
X-6665795Y-8963389D02*
X-6675318Y-8982436D01*
X-6675318Y-8982436D02*
X-6684842Y-8991960D01*
X-6684842Y-8991960D02*
X-6703890Y-9001484D01*
X-6703890Y-9001484D02*
X-6722937Y-9001484D01*
X-6722937Y-9001484D02*
X-6741985Y-8991960D01*
X-6741985Y-8991960D02*
X-6751509Y-8982436D01*
X-6751509Y-8982436D02*
X-6761033Y-8963389D01*
X-6761033Y-8963389D02*
X-6770556Y-8925293D01*
X-6770556Y-8925293D02*
X-6770556Y-8877674D01*
X-6770556Y-8877674D02*
X-6761033Y-8839579D01*
X-6761033Y-8839579D02*
X-6751509Y-8820531D01*
X-6751509Y-8820531D02*
X-6741985Y-8811008D01*
X-6741985Y-8811008D02*
X-6722937Y-8801484D01*
X-6532461Y-8801484D02*
X-6513414Y-8801484D01*
X-6513414Y-8801484D02*
X-6494366Y-8811008D01*
X-6494366Y-8811008D02*
X-6484842Y-8820531D01*
X-6484842Y-8820531D02*
X-6475318Y-8839579D01*
X-6475318Y-8839579D02*
X-6465795Y-8877674D01*
X-6465795Y-8877674D02*
X-6465795Y-8925293D01*
X-6465795Y-8925293D02*
X-6475318Y-8963389D01*
X-6475318Y-8963389D02*
X-6484842Y-8982436D01*
X-6484842Y-8982436D02*
X-6494366Y-8991960D01*
X-6494366Y-8991960D02*
X-6513414Y-9001484D01*
X-6513414Y-9001484D02*
X-6532461Y-9001484D01*
X-6532461Y-9001484D02*
X-6551509Y-8991960D01*
X-6551509Y-8991960D02*
X-6561033Y-8982436D01*
X-6561033Y-8982436D02*
X-6570556Y-8963389D01*
X-6570556Y-8963389D02*
X-6580080Y-8925293D01*
X-6580080Y-8925293D02*
X-6580080Y-8877674D01*
X-6580080Y-8877674D02*
X-6570556Y-8839579D01*
X-6570556Y-8839579D02*
X-6561033Y-8820531D01*
X-6561033Y-8820531D02*
X-6551509Y-8811008D01*
X-6551509Y-8811008D02*
X-6532461Y-8801484D01*
X-6380080Y-9001484D02*
X-6380080Y-8868150D01*
X-6380080Y-8887198D02*
X-6370556Y-8877674D01*
X-6370556Y-8877674D02*
X-6351509Y-8868150D01*
X-6351509Y-8868150D02*
X-6322937Y-8868150D01*
X-6322937Y-8868150D02*
X-6303890Y-8877674D01*
X-6303890Y-8877674D02*
X-6294366Y-8896722D01*
X-6294366Y-8896722D02*
X-6294366Y-9001484D01*
X-6294366Y-8896722D02*
X-6284842Y-8877674D01*
X-6284842Y-8877674D02*
X-6265795Y-8868150D01*
X-6265795Y-8868150D02*
X-6237223Y-8868150D01*
X-6237223Y-8868150D02*
X-6218175Y-8877674D01*
X-6218175Y-8877674D02*
X-6208652Y-8896722D01*
X-6208652Y-8896722D02*
X-6208652Y-9001484D01*
X-6113414Y-9001484D02*
X-6113414Y-8868150D01*
X-6113414Y-8887198D02*
X-6103890Y-8877674D01*
X-6103890Y-8877674D02*
X-6084842Y-8868150D01*
X-6084842Y-8868150D02*
X-6056271Y-8868150D01*
X-6056271Y-8868150D02*
X-6037223Y-8877674D01*
X-6037223Y-8877674D02*
X-6027699Y-8896722D01*
X-6027699Y-8896722D02*
X-6027699Y-9001484D01*
X-6027699Y-8896722D02*
X-6018175Y-8877674D01*
X-6018175Y-8877674D02*
X-5999128Y-8868150D01*
X-5999128Y-8868150D02*
X-5970556Y-8868150D01*
X-5970556Y-8868150D02*
X-5951509Y-8877674D01*
X-5951509Y-8877674D02*
X-5941985Y-8896722D01*
X-5941985Y-8896722D02*
X-5941985Y-9001484D01*
X-5551509Y-8791960D02*
X-5722937Y-9049103D01*
X-5294366Y-8801484D02*
X-5275318Y-8801484D01*
X-5275318Y-8801484D02*
X-5256271Y-8811008D01*
X-5256271Y-8811008D02*
X-5246747Y-8820531D01*
X-5246747Y-8820531D02*
X-5237223Y-8839579D01*
X-5237223Y-8839579D02*
X-5227699Y-8877674D01*
X-5227699Y-8877674D02*
X-5227699Y-8925293D01*
X-5227699Y-8925293D02*
X-5237223Y-8963389D01*
X-5237223Y-8963389D02*
X-5246747Y-8982436D01*
X-5246747Y-8982436D02*
X-5256271Y-8991960D01*
X-5256271Y-8991960D02*
X-5275318Y-9001484D01*
X-5275318Y-9001484D02*
X-5294366Y-9001484D01*
X-5294366Y-9001484D02*
X-5313414Y-8991960D01*
X-5313414Y-8991960D02*
X-5322937Y-8982436D01*
X-5322937Y-8982436D02*
X-5332461Y-8963389D01*
X-5332461Y-8963389D02*
X-5341985Y-8925293D01*
X-5341985Y-8925293D02*
X-5341985Y-8877674D01*
X-5341985Y-8877674D02*
X-5332461Y-8839579D01*
X-5332461Y-8839579D02*
X-5322937Y-8820531D01*
X-5322937Y-8820531D02*
X-5313414Y-8811008D01*
X-5313414Y-8811008D02*
X-5294366Y-8801484D01*
X-5141985Y-8982436D02*
X-5132461Y-8991960D01*
X-5132461Y-8991960D02*
X-5141985Y-9001484D01*
X-5141985Y-9001484D02*
X-5151509Y-8991960D01*
X-5151509Y-8991960D02*
X-5141985Y-8982436D01*
X-5141985Y-8982436D02*
X-5141985Y-9001484D01*
X-5008652Y-8801484D02*
X-4989604Y-8801484D01*
X-4989604Y-8801484D02*
X-4970556Y-8811008D01*
X-4970556Y-8811008D02*
X-4961033Y-8820531D01*
X-4961033Y-8820531D02*
X-4951509Y-8839579D01*
X-4951509Y-8839579D02*
X-4941985Y-8877674D01*
X-4941985Y-8877674D02*
X-4941985Y-8925293D01*
X-4941985Y-8925293D02*
X-4951509Y-8963389D01*
X-4951509Y-8963389D02*
X-4961033Y-8982436D01*
X-4961033Y-8982436D02*
X-4970556Y-8991960D01*
X-4970556Y-8991960D02*
X-4989604Y-9001484D01*
X-4989604Y-9001484D02*
X-5008652Y-9001484D01*
X-5008652Y-9001484D02*
X-5027699Y-8991960D01*
X-5027699Y-8991960D02*
X-5037223Y-8982436D01*
X-5037223Y-8982436D02*
X-5046747Y-8963389D01*
X-5046747Y-8963389D02*
X-5056271Y-8925293D01*
X-5056271Y-8925293D02*
X-5056271Y-8877674D01*
X-5056271Y-8877674D02*
X-5046747Y-8839579D01*
X-5046747Y-8839579D02*
X-5037223Y-8820531D01*
X-5037223Y-8820531D02*
X-5027699Y-8811008D01*
X-5027699Y-8811008D02*
X-5008652Y-8801484D01*
X-4875318Y-8801484D02*
X-4751509Y-8801484D01*
X-4751509Y-8801484D02*
X-4818175Y-8877674D01*
X-4818175Y-8877674D02*
X-4789604Y-8877674D01*
X-4789604Y-8877674D02*
X-4770556Y-8887198D01*
X-4770556Y-8887198D02*
X-4761033Y-8896722D01*
X-4761033Y-8896722D02*
X-4751509Y-8915770D01*
X-4751509Y-8915770D02*
X-4751509Y-8963389D01*
X-4751509Y-8963389D02*
X-4761033Y-8982436D01*
X-4761033Y-8982436D02*
X-4770556Y-8991960D01*
X-4770556Y-8991960D02*
X-4789604Y-9001484D01*
X-4789604Y-9001484D02*
X-4846747Y-9001484D01*
X-4846747Y-9001484D02*
X-4865794Y-8991960D01*
X-4865794Y-8991960D02*
X-4875318Y-8982436D01*
X-4561033Y-9001484D02*
X-4675318Y-9001484D01*
X-4618175Y-9001484D02*
X-4618175Y-8801484D01*
X-4618175Y-8801484D02*
X-4637223Y-8830055D01*
X-4637223Y-8830055D02*
X-4656271Y-8849103D01*
X-4656271Y-8849103D02*
X-4675318Y-8858627D01*
X-4380080Y-8801484D02*
X-4475318Y-8801484D01*
X-4475318Y-8801484D02*
X-4484842Y-8896722D01*
X-4484842Y-8896722D02*
X-4475318Y-8887198D01*
X-4475318Y-8887198D02*
X-4456271Y-8877674D01*
X-4456271Y-8877674D02*
X-4408652Y-8877674D01*
X-4408652Y-8877674D02*
X-4389604Y-8887198D01*
X-4389604Y-8887198D02*
X-4380080Y-8896722D01*
X-4380080Y-8896722D02*
X-4370556Y-8915770D01*
X-4370556Y-8915770D02*
X-4370556Y-8963389D01*
X-4370556Y-8963389D02*
X-4380080Y-8982436D01*
X-4380080Y-8982436D02*
X-4389604Y-8991960D01*
X-4389604Y-8991960D02*
X-4408652Y-9001484D01*
X-4408652Y-9001484D02*
X-4456271Y-9001484D01*
X-4456271Y-9001484D02*
X-4475318Y-8991960D01*
X-4475318Y-8991960D02*
X-4484842Y-8982436D01*
X-4294366Y-8801484D02*
X-4294366Y-8839579D01*
X-4218175Y-8801484D02*
X-4218175Y-8839579D01*
X-3922937Y-9077674D02*
X-3932461Y-9068150D01*
X-3932461Y-9068150D02*
X-3951509Y-9039579D01*
X-3951509Y-9039579D02*
X-3961032Y-9020531D01*
X-3961032Y-9020531D02*
X-3970556Y-8991960D01*
X-3970556Y-8991960D02*
X-3980080Y-8944341D01*
X-3980080Y-8944341D02*
X-3980080Y-8906246D01*
X-3980080Y-8906246D02*
X-3970556Y-8858627D01*
X-3970556Y-8858627D02*
X-3961032Y-8830055D01*
X-3961032Y-8830055D02*
X-3951509Y-8811008D01*
X-3951509Y-8811008D02*
X-3932461Y-8782436D01*
X-3932461Y-8782436D02*
X-3922937Y-8772912D01*
X-3741985Y-9001484D02*
X-3856270Y-9001484D01*
X-3799128Y-9001484D02*
X-3799128Y-8801484D01*
X-3799128Y-8801484D02*
X-3818175Y-8830055D01*
X-3818175Y-8830055D02*
X-3837223Y-8849103D01*
X-3837223Y-8849103D02*
X-3856270Y-8858627D01*
X-3675318Y-8801484D02*
X-3551509Y-8801484D01*
X-3551509Y-8801484D02*
X-3618175Y-8877674D01*
X-3618175Y-8877674D02*
X-3589604Y-8877674D01*
X-3589604Y-8877674D02*
X-3570556Y-8887198D01*
X-3570556Y-8887198D02*
X-3561032Y-8896722D01*
X-3561032Y-8896722D02*
X-3551509Y-8915770D01*
X-3551509Y-8915770D02*
X-3551509Y-8963389D01*
X-3551509Y-8963389D02*
X-3561032Y-8982436D01*
X-3561032Y-8982436D02*
X-3570556Y-8991960D01*
X-3570556Y-8991960D02*
X-3589604Y-9001484D01*
X-3589604Y-9001484D02*
X-3646747Y-9001484D01*
X-3646747Y-9001484D02*
X-3665794Y-8991960D01*
X-3665794Y-8991960D02*
X-3675318Y-8982436D01*
X-3427699Y-8801484D02*
X-3408651Y-8801484D01*
X-3408651Y-8801484D02*
X-3389604Y-8811008D01*
X-3389604Y-8811008D02*
X-3380080Y-8820531D01*
X-3380080Y-8820531D02*
X-3370556Y-8839579D01*
X-3370556Y-8839579D02*
X-3361032Y-8877674D01*
X-3361032Y-8877674D02*
X-3361032Y-8925293D01*
X-3361032Y-8925293D02*
X-3370556Y-8963389D01*
X-3370556Y-8963389D02*
X-3380080Y-8982436D01*
X-3380080Y-8982436D02*
X-3389604Y-8991960D01*
X-3389604Y-8991960D02*
X-3408651Y-9001484D01*
X-3408651Y-9001484D02*
X-3427699Y-9001484D01*
X-3427699Y-9001484D02*
X-3446747Y-8991960D01*
X-3446747Y-8991960D02*
X-3456270Y-8982436D01*
X-3456270Y-8982436D02*
X-3465794Y-8963389D01*
X-3465794Y-8963389D02*
X-3475318Y-8925293D01*
X-3475318Y-8925293D02*
X-3475318Y-8877674D01*
X-3475318Y-8877674D02*
X-3465794Y-8839579D01*
X-3465794Y-8839579D02*
X-3456270Y-8820531D01*
X-3456270Y-8820531D02*
X-3446747Y-8811008D01*
X-3446747Y-8811008D02*
X-3427699Y-8801484D01*
X-3122937Y-9001484D02*
X-3122937Y-8801484D01*
X-3037223Y-9001484D02*
X-3037223Y-8896722D01*
X-3037223Y-8896722D02*
X-3046747Y-8877674D01*
X-3046747Y-8877674D02*
X-3065794Y-8868150D01*
X-3065794Y-8868150D02*
X-3094366Y-8868150D01*
X-3094366Y-8868150D02*
X-3113413Y-8877674D01*
X-3113413Y-8877674D02*
X-3122937Y-8887198D01*
X-2913413Y-9001484D02*
X-2932461Y-8991960D01*
X-2932461Y-8991960D02*
X-2941985Y-8982436D01*
X-2941985Y-8982436D02*
X-2951508Y-8963389D01*
X-2951508Y-8963389D02*
X-2951508Y-8906246D01*
X-2951508Y-8906246D02*
X-2941985Y-8887198D01*
X-2941985Y-8887198D02*
X-2932461Y-8877674D01*
X-2932461Y-8877674D02*
X-2913413Y-8868150D01*
X-2913413Y-8868150D02*
X-2884842Y-8868150D01*
X-2884842Y-8868150D02*
X-2865794Y-8877674D01*
X-2865794Y-8877674D02*
X-2856270Y-8887198D01*
X-2856270Y-8887198D02*
X-2846747Y-8906246D01*
X-2846747Y-8906246D02*
X-2846747Y-8963389D01*
X-2846747Y-8963389D02*
X-2856270Y-8982436D01*
X-2856270Y-8982436D02*
X-2865794Y-8991960D01*
X-2865794Y-8991960D02*
X-2884842Y-9001484D01*
X-2884842Y-9001484D02*
X-2913413Y-9001484D01*
X-2732461Y-9001484D02*
X-2751509Y-8991960D01*
X-2751509Y-8991960D02*
X-2761032Y-8972912D01*
X-2761032Y-8972912D02*
X-2761032Y-8801484D01*
X-2580080Y-8991960D02*
X-2599128Y-9001484D01*
X-2599128Y-9001484D02*
X-2637223Y-9001484D01*
X-2637223Y-9001484D02*
X-2656270Y-8991960D01*
X-2656270Y-8991960D02*
X-2665794Y-8972912D01*
X-2665794Y-8972912D02*
X-2665794Y-8896722D01*
X-2665794Y-8896722D02*
X-2656270Y-8877674D01*
X-2656270Y-8877674D02*
X-2637223Y-8868150D01*
X-2637223Y-8868150D02*
X-2599128Y-8868150D01*
X-2599128Y-8868150D02*
X-2580080Y-8877674D01*
X-2580080Y-8877674D02*
X-2570556Y-8896722D01*
X-2570556Y-8896722D02*
X-2570556Y-8915770D01*
X-2570556Y-8915770D02*
X-2665794Y-8934817D01*
X-2494366Y-8991960D02*
X-2475318Y-9001484D01*
X-2475318Y-9001484D02*
X-2437223Y-9001484D01*
X-2437223Y-9001484D02*
X-2418175Y-8991960D01*
X-2418175Y-8991960D02*
X-2408651Y-8972912D01*
X-2408651Y-8972912D02*
X-2408651Y-8963389D01*
X-2408651Y-8963389D02*
X-2418175Y-8944341D01*
X-2418175Y-8944341D02*
X-2437223Y-8934817D01*
X-2437223Y-8934817D02*
X-2465794Y-8934817D01*
X-2465794Y-8934817D02*
X-2484842Y-8925293D01*
X-2484842Y-8925293D02*
X-2494366Y-8906246D01*
X-2494366Y-8906246D02*
X-2494366Y-8896722D01*
X-2494366Y-8896722D02*
X-2484842Y-8877674D01*
X-2484842Y-8877674D02*
X-2465794Y-8868150D01*
X-2465794Y-8868150D02*
X-2437223Y-8868150D01*
X-2437223Y-8868150D02*
X-2418175Y-8877674D01*
X-2341985Y-9077674D02*
X-2332461Y-9068150D01*
X-2332461Y-9068150D02*
X-2313413Y-9039579D01*
X-2313413Y-9039579D02*
X-2303889Y-9020531D01*
X-2303889Y-9020531D02*
X-2294366Y-8991960D01*
X-2294366Y-8991960D02*
X-2284842Y-8944341D01*
X-2284842Y-8944341D02*
X-2284842Y-8906246D01*
X-2284842Y-8906246D02*
X-2294366Y-8858627D01*
X-2294366Y-8858627D02*
X-2303889Y-8830055D01*
X-2303889Y-8830055D02*
X-2313413Y-8811008D01*
X-2313413Y-8811008D02*
X-2332461Y-8782436D01*
X-2332461Y-8782436D02*
X-2341985Y-8772912D01*
D10*
X-7548000Y-9124000D02*
X-7548000Y-9224000D01*
X-7598000Y-9174000D02*
X-7498000Y-9174000D01*
D11*
X-7132461Y-9265484D02*
X-7246747Y-9265484D01*
X-7189604Y-9265484D02*
X-7189604Y-9065484D01*
X-7189604Y-9065484D02*
X-7208652Y-9094055D01*
X-7208652Y-9094055D02*
X-7227699Y-9113103D01*
X-7227699Y-9113103D02*
X-7246747Y-9122627D01*
X-7046747Y-9246436D02*
X-7037223Y-9255960D01*
X-7037223Y-9255960D02*
X-7046747Y-9265484D01*
X-7046747Y-9265484D02*
X-7056271Y-9255960D01*
X-7056271Y-9255960D02*
X-7046747Y-9246436D01*
X-7046747Y-9246436D02*
X-7046747Y-9265484D01*
X-6913414Y-9065484D02*
X-6894366Y-9065484D01*
X-6894366Y-9065484D02*
X-6875318Y-9075008D01*
X-6875318Y-9075008D02*
X-6865795Y-9084531D01*
X-6865795Y-9084531D02*
X-6856271Y-9103579D01*
X-6856271Y-9103579D02*
X-6846747Y-9141674D01*
X-6846747Y-9141674D02*
X-6846747Y-9189293D01*
X-6846747Y-9189293D02*
X-6856271Y-9227389D01*
X-6856271Y-9227389D02*
X-6865795Y-9246436D01*
X-6865795Y-9246436D02*
X-6875318Y-9255960D01*
X-6875318Y-9255960D02*
X-6894366Y-9265484D01*
X-6894366Y-9265484D02*
X-6913414Y-9265484D01*
X-6913414Y-9265484D02*
X-6932461Y-9255960D01*
X-6932461Y-9255960D02*
X-6941985Y-9246436D01*
X-6941985Y-9246436D02*
X-6951509Y-9227389D01*
X-6951509Y-9227389D02*
X-6961033Y-9189293D01*
X-6961033Y-9189293D02*
X-6961033Y-9141674D01*
X-6961033Y-9141674D02*
X-6951509Y-9103579D01*
X-6951509Y-9103579D02*
X-6941985Y-9084531D01*
X-6941985Y-9084531D02*
X-6932461Y-9075008D01*
X-6932461Y-9075008D02*
X-6913414Y-9065484D01*
X-6722937Y-9065484D02*
X-6703890Y-9065484D01*
X-6703890Y-9065484D02*
X-6684842Y-9075008D01*
X-6684842Y-9075008D02*
X-6675318Y-9084531D01*
X-6675318Y-9084531D02*
X-6665795Y-9103579D01*
X-6665795Y-9103579D02*
X-6656271Y-9141674D01*
X-6656271Y-9141674D02*
X-6656271Y-9189293D01*
X-6656271Y-9189293D02*
X-6665795Y-9227389D01*
X-6665795Y-9227389D02*
X-6675318Y-9246436D01*
X-6675318Y-9246436D02*
X-6684842Y-9255960D01*
X-6684842Y-9255960D02*
X-6703890Y-9265484D01*
X-6703890Y-9265484D02*
X-6722937Y-9265484D01*
X-6722937Y-9265484D02*
X-6741985Y-9255960D01*
X-6741985Y-9255960D02*
X-6751509Y-9246436D01*
X-6751509Y-9246436D02*
X-6761033Y-9227389D01*
X-6761033Y-9227389D02*
X-6770556Y-9189293D01*
X-6770556Y-9189293D02*
X-6770556Y-9141674D01*
X-6770556Y-9141674D02*
X-6761033Y-9103579D01*
X-6761033Y-9103579D02*
X-6751509Y-9084531D01*
X-6751509Y-9084531D02*
X-6741985Y-9075008D01*
X-6741985Y-9075008D02*
X-6722937Y-9065484D01*
X-6532461Y-9065484D02*
X-6513414Y-9065484D01*
X-6513414Y-9065484D02*
X-6494366Y-9075008D01*
X-6494366Y-9075008D02*
X-6484842Y-9084531D01*
X-6484842Y-9084531D02*
X-6475318Y-9103579D01*
X-6475318Y-9103579D02*
X-6465795Y-9141674D01*
X-6465795Y-9141674D02*
X-6465795Y-9189293D01*
X-6465795Y-9189293D02*
X-6475318Y-9227389D01*
X-6475318Y-9227389D02*
X-6484842Y-9246436D01*
X-6484842Y-9246436D02*
X-6494366Y-9255960D01*
X-6494366Y-9255960D02*
X-6513414Y-9265484D01*
X-6513414Y-9265484D02*
X-6532461Y-9265484D01*
X-6532461Y-9265484D02*
X-6551509Y-9255960D01*
X-6551509Y-9255960D02*
X-6561033Y-9246436D01*
X-6561033Y-9246436D02*
X-6570556Y-9227389D01*
X-6570556Y-9227389D02*
X-6580080Y-9189293D01*
X-6580080Y-9189293D02*
X-6580080Y-9141674D01*
X-6580080Y-9141674D02*
X-6570556Y-9103579D01*
X-6570556Y-9103579D02*
X-6561033Y-9084531D01*
X-6561033Y-9084531D02*
X-6551509Y-9075008D01*
X-6551509Y-9075008D02*
X-6532461Y-9065484D01*
X-6380080Y-9265484D02*
X-6380080Y-9132150D01*
X-6380080Y-9151198D02*
X-6370556Y-9141674D01*
X-6370556Y-9141674D02*
X-6351509Y-9132150D01*
X-6351509Y-9132150D02*
X-6322937Y-9132150D01*
X-6322937Y-9132150D02*
X-6303890Y-9141674D01*
X-6303890Y-9141674D02*
X-6294366Y-9160722D01*
X-6294366Y-9160722D02*
X-6294366Y-9265484D01*
X-6294366Y-9160722D02*
X-6284842Y-9141674D01*
X-6284842Y-9141674D02*
X-6265795Y-9132150D01*
X-6265795Y-9132150D02*
X-6237223Y-9132150D01*
X-6237223Y-9132150D02*
X-6218175Y-9141674D01*
X-6218175Y-9141674D02*
X-6208652Y-9160722D01*
X-6208652Y-9160722D02*
X-6208652Y-9265484D01*
X-6113414Y-9265484D02*
X-6113414Y-9132150D01*
X-6113414Y-9151198D02*
X-6103890Y-9141674D01*
X-6103890Y-9141674D02*
X-6084842Y-9132150D01*
X-6084842Y-9132150D02*
X-6056271Y-9132150D01*
X-6056271Y-9132150D02*
X-6037223Y-9141674D01*
X-6037223Y-9141674D02*
X-6027699Y-9160722D01*
X-6027699Y-9160722D02*
X-6027699Y-9265484D01*
X-6027699Y-9160722D02*
X-6018175Y-9141674D01*
X-6018175Y-9141674D02*
X-5999128Y-9132150D01*
X-5999128Y-9132150D02*
X-5970556Y-9132150D01*
X-5970556Y-9132150D02*
X-5951509Y-9141674D01*
X-5951509Y-9141674D02*
X-5941985Y-9160722D01*
X-5941985Y-9160722D02*
X-5941985Y-9265484D01*
X-5551509Y-9055960D02*
X-5722937Y-9313103D01*
X-5294366Y-9065484D02*
X-5275318Y-9065484D01*
X-5275318Y-9065484D02*
X-5256271Y-9075008D01*
X-5256271Y-9075008D02*
X-5246747Y-9084531D01*
X-5246747Y-9084531D02*
X-5237223Y-9103579D01*
X-5237223Y-9103579D02*
X-5227699Y-9141674D01*
X-5227699Y-9141674D02*
X-5227699Y-9189293D01*
X-5227699Y-9189293D02*
X-5237223Y-9227389D01*
X-5237223Y-9227389D02*
X-5246747Y-9246436D01*
X-5246747Y-9246436D02*
X-5256271Y-9255960D01*
X-5256271Y-9255960D02*
X-5275318Y-9265484D01*
X-5275318Y-9265484D02*
X-5294366Y-9265484D01*
X-5294366Y-9265484D02*
X-5313414Y-9255960D01*
X-5313414Y-9255960D02*
X-5322937Y-9246436D01*
X-5322937Y-9246436D02*
X-5332461Y-9227389D01*
X-5332461Y-9227389D02*
X-5341985Y-9189293D01*
X-5341985Y-9189293D02*
X-5341985Y-9141674D01*
X-5341985Y-9141674D02*
X-5332461Y-9103579D01*
X-5332461Y-9103579D02*
X-5322937Y-9084531D01*
X-5322937Y-9084531D02*
X-5313414Y-9075008D01*
X-5313414Y-9075008D02*
X-5294366Y-9065484D01*
X-5141985Y-9246436D02*
X-5132461Y-9255960D01*
X-5132461Y-9255960D02*
X-5141985Y-9265484D01*
X-5141985Y-9265484D02*
X-5151509Y-9255960D01*
X-5151509Y-9255960D02*
X-5141985Y-9246436D01*
X-5141985Y-9246436D02*
X-5141985Y-9265484D01*
X-5008652Y-9065484D02*
X-4989604Y-9065484D01*
X-4989604Y-9065484D02*
X-4970556Y-9075008D01*
X-4970556Y-9075008D02*
X-4961033Y-9084531D01*
X-4961033Y-9084531D02*
X-4951509Y-9103579D01*
X-4951509Y-9103579D02*
X-4941985Y-9141674D01*
X-4941985Y-9141674D02*
X-4941985Y-9189293D01*
X-4941985Y-9189293D02*
X-4951509Y-9227389D01*
X-4951509Y-9227389D02*
X-4961033Y-9246436D01*
X-4961033Y-9246436D02*
X-4970556Y-9255960D01*
X-4970556Y-9255960D02*
X-4989604Y-9265484D01*
X-4989604Y-9265484D02*
X-5008652Y-9265484D01*
X-5008652Y-9265484D02*
X-5027699Y-9255960D01*
X-5027699Y-9255960D02*
X-5037223Y-9246436D01*
X-5037223Y-9246436D02*
X-5046747Y-9227389D01*
X-5046747Y-9227389D02*
X-5056271Y-9189293D01*
X-5056271Y-9189293D02*
X-5056271Y-9141674D01*
X-5056271Y-9141674D02*
X-5046747Y-9103579D01*
X-5046747Y-9103579D02*
X-5037223Y-9084531D01*
X-5037223Y-9084531D02*
X-5027699Y-9075008D01*
X-5027699Y-9075008D02*
X-5008652Y-9065484D01*
X-4875318Y-9065484D02*
X-4751509Y-9065484D01*
X-4751509Y-9065484D02*
X-4818175Y-9141674D01*
X-4818175Y-9141674D02*
X-4789604Y-9141674D01*
X-4789604Y-9141674D02*
X-4770556Y-9151198D01*
X-4770556Y-9151198D02*
X-4761033Y-9160722D01*
X-4761033Y-9160722D02*
X-4751509Y-9179770D01*
X-4751509Y-9179770D02*
X-4751509Y-9227389D01*
X-4751509Y-9227389D02*
X-4761033Y-9246436D01*
X-4761033Y-9246436D02*
X-4770556Y-9255960D01*
X-4770556Y-9255960D02*
X-4789604Y-9265484D01*
X-4789604Y-9265484D02*
X-4846747Y-9265484D01*
X-4846747Y-9265484D02*
X-4865794Y-9255960D01*
X-4865794Y-9255960D02*
X-4875318Y-9246436D01*
X-4656271Y-9265484D02*
X-4618175Y-9265484D01*
X-4618175Y-9265484D02*
X-4599128Y-9255960D01*
X-4599128Y-9255960D02*
X-4589604Y-9246436D01*
X-4589604Y-9246436D02*
X-4570556Y-9217865D01*
X-4570556Y-9217865D02*
X-4561033Y-9179770D01*
X-4561033Y-9179770D02*
X-4561033Y-9103579D01*
X-4561033Y-9103579D02*
X-4570556Y-9084531D01*
X-4570556Y-9084531D02*
X-4580080Y-9075008D01*
X-4580080Y-9075008D02*
X-4599128Y-9065484D01*
X-4599128Y-9065484D02*
X-4637223Y-9065484D01*
X-4637223Y-9065484D02*
X-4656271Y-9075008D01*
X-4656271Y-9075008D02*
X-4665794Y-9084531D01*
X-4665794Y-9084531D02*
X-4675318Y-9103579D01*
X-4675318Y-9103579D02*
X-4675318Y-9151198D01*
X-4675318Y-9151198D02*
X-4665794Y-9170246D01*
X-4665794Y-9170246D02*
X-4656271Y-9179770D01*
X-4656271Y-9179770D02*
X-4637223Y-9189293D01*
X-4637223Y-9189293D02*
X-4599128Y-9189293D01*
X-4599128Y-9189293D02*
X-4580080Y-9179770D01*
X-4580080Y-9179770D02*
X-4570556Y-9170246D01*
X-4570556Y-9170246D02*
X-4561033Y-9151198D01*
X-4389604Y-9132150D02*
X-4389604Y-9265484D01*
X-4437223Y-9055960D02*
X-4484842Y-9198817D01*
X-4484842Y-9198817D02*
X-4361033Y-9198817D01*
X-4294366Y-9065484D02*
X-4294366Y-9103579D01*
X-4218175Y-9065484D02*
X-4218175Y-9103579D01*
X-3922937Y-9341674D02*
X-3932461Y-9332150D01*
X-3932461Y-9332150D02*
X-3951509Y-9303579D01*
X-3951509Y-9303579D02*
X-3961032Y-9284531D01*
X-3961032Y-9284531D02*
X-3970556Y-9255960D01*
X-3970556Y-9255960D02*
X-3980080Y-9208341D01*
X-3980080Y-9208341D02*
X-3980080Y-9170246D01*
X-3980080Y-9170246D02*
X-3970556Y-9122627D01*
X-3970556Y-9122627D02*
X-3961032Y-9094055D01*
X-3961032Y-9094055D02*
X-3951509Y-9075008D01*
X-3951509Y-9075008D02*
X-3932461Y-9046436D01*
X-3932461Y-9046436D02*
X-3922937Y-9036912D01*
X-3741985Y-9265484D02*
X-3856270Y-9265484D01*
X-3799128Y-9265484D02*
X-3799128Y-9065484D01*
X-3799128Y-9065484D02*
X-3818175Y-9094055D01*
X-3818175Y-9094055D02*
X-3837223Y-9113103D01*
X-3837223Y-9113103D02*
X-3856270Y-9122627D01*
X-3618175Y-9065484D02*
X-3599128Y-9065484D01*
X-3599128Y-9065484D02*
X-3580080Y-9075008D01*
X-3580080Y-9075008D02*
X-3570556Y-9084531D01*
X-3570556Y-9084531D02*
X-3561032Y-9103579D01*
X-3561032Y-9103579D02*
X-3551509Y-9141674D01*
X-3551509Y-9141674D02*
X-3551509Y-9189293D01*
X-3551509Y-9189293D02*
X-3561032Y-9227389D01*
X-3561032Y-9227389D02*
X-3570556Y-9246436D01*
X-3570556Y-9246436D02*
X-3580080Y-9255960D01*
X-3580080Y-9255960D02*
X-3599128Y-9265484D01*
X-3599128Y-9265484D02*
X-3618175Y-9265484D01*
X-3618175Y-9265484D02*
X-3637223Y-9255960D01*
X-3637223Y-9255960D02*
X-3646747Y-9246436D01*
X-3646747Y-9246436D02*
X-3656270Y-9227389D01*
X-3656270Y-9227389D02*
X-3665794Y-9189293D01*
X-3665794Y-9189293D02*
X-3665794Y-9141674D01*
X-3665794Y-9141674D02*
X-3656270Y-9103579D01*
X-3656270Y-9103579D02*
X-3646747Y-9084531D01*
X-3646747Y-9084531D02*
X-3637223Y-9075008D01*
X-3637223Y-9075008D02*
X-3618175Y-9065484D01*
X-3313413Y-9265484D02*
X-3313413Y-9065484D01*
X-3227699Y-9265484D02*
X-3227699Y-9160722D01*
X-3227699Y-9160722D02*
X-3237223Y-9141674D01*
X-3237223Y-9141674D02*
X-3256270Y-9132150D01*
X-3256270Y-9132150D02*
X-3284842Y-9132150D01*
X-3284842Y-9132150D02*
X-3303889Y-9141674D01*
X-3303889Y-9141674D02*
X-3313413Y-9151198D01*
X-3103889Y-9265484D02*
X-3122937Y-9255960D01*
X-3122937Y-9255960D02*
X-3132461Y-9246436D01*
X-3132461Y-9246436D02*
X-3141985Y-9227389D01*
X-3141985Y-9227389D02*
X-3141985Y-9170246D01*
X-3141985Y-9170246D02*
X-3132461Y-9151198D01*
X-3132461Y-9151198D02*
X-3122937Y-9141674D01*
X-3122937Y-9141674D02*
X-3103889Y-9132150D01*
X-3103889Y-9132150D02*
X-3075318Y-9132150D01*
X-3075318Y-9132150D02*
X-3056270Y-9141674D01*
X-3056270Y-9141674D02*
X-3046747Y-9151198D01*
X-3046747Y-9151198D02*
X-3037223Y-9170246D01*
X-3037223Y-9170246D02*
X-3037223Y-9227389D01*
X-3037223Y-9227389D02*
X-3046747Y-9246436D01*
X-3046747Y-9246436D02*
X-3056270Y-9255960D01*
X-3056270Y-9255960D02*
X-3075318Y-9265484D01*
X-3075318Y-9265484D02*
X-3103889Y-9265484D01*
X-2922937Y-9265484D02*
X-2941985Y-9255960D01*
X-2941985Y-9255960D02*
X-2951508Y-9236912D01*
X-2951508Y-9236912D02*
X-2951508Y-9065484D01*
X-2770556Y-9255960D02*
X-2789604Y-9265484D01*
X-2789604Y-9265484D02*
X-2827699Y-9265484D01*
X-2827699Y-9265484D02*
X-2846747Y-9255960D01*
X-2846747Y-9255960D02*
X-2856270Y-9236912D01*
X-2856270Y-9236912D02*
X-2856270Y-9160722D01*
X-2856270Y-9160722D02*
X-2846747Y-9141674D01*
X-2846747Y-9141674D02*
X-2827699Y-9132150D01*
X-2827699Y-9132150D02*
X-2789604Y-9132150D01*
X-2789604Y-9132150D02*
X-2770556Y-9141674D01*
X-2770556Y-9141674D02*
X-2761032Y-9160722D01*
X-2761032Y-9160722D02*
X-2761032Y-9179770D01*
X-2761032Y-9179770D02*
X-2856270Y-9198817D01*
X-2684842Y-9255960D02*
X-2665794Y-9265484D01*
X-2665794Y-9265484D02*
X-2627699Y-9265484D01*
X-2627699Y-9265484D02*
X-2608651Y-9255960D01*
X-2608651Y-9255960D02*
X-2599128Y-9236912D01*
X-2599128Y-9236912D02*
X-2599128Y-9227389D01*
X-2599128Y-9227389D02*
X-2608651Y-9208341D01*
X-2608651Y-9208341D02*
X-2627699Y-9198817D01*
X-2627699Y-9198817D02*
X-2656270Y-9198817D01*
X-2656270Y-9198817D02*
X-2675318Y-9189293D01*
X-2675318Y-9189293D02*
X-2684842Y-9170246D01*
X-2684842Y-9170246D02*
X-2684842Y-9160722D01*
X-2684842Y-9160722D02*
X-2675318Y-9141674D01*
X-2675318Y-9141674D02*
X-2656270Y-9132150D01*
X-2656270Y-9132150D02*
X-2627699Y-9132150D01*
X-2627699Y-9132150D02*
X-2608651Y-9141674D01*
X-2532461Y-9341674D02*
X-2522937Y-9332150D01*
X-2522937Y-9332150D02*
X-2503889Y-9303579D01*
X-2503889Y-9303579D02*
X-2494366Y-9284531D01*
X-2494366Y-9284531D02*
X-2484842Y-9255960D01*
X-2484842Y-9255960D02*
X-2475318Y-9208341D01*
X-2475318Y-9208341D02*
X-2475318Y-9170246D01*
X-2475318Y-9170246D02*
X-2484842Y-9122627D01*
X-2484842Y-9122627D02*
X-2494366Y-9094055D01*
X-2494366Y-9094055D02*
X-2503889Y-9075008D01*
X-2503889Y-9075008D02*
X-2522937Y-9046436D01*
X-2522937Y-9046436D02*
X-2532461Y-9036912D01*
D12*
X-7517038Y-9483962D02*
X-7517038Y-9392038D01*
X-7608962Y-9392038D01*
X-7608962Y-9483962D01*
X-7517038Y-9483962D01*
D11*
X-7132461Y-9529484D02*
X-7246747Y-9529484D01*
X-7189604Y-9529484D02*
X-7189604Y-9329484D01*
X-7189604Y-9329484D02*
X-7208652Y-9358055D01*
X-7208652Y-9358055D02*
X-7227699Y-9377103D01*
X-7227699Y-9377103D02*
X-7246747Y-9386627D01*
X-7046747Y-9510436D02*
X-7037223Y-9519960D01*
X-7037223Y-9519960D02*
X-7046747Y-9529484D01*
X-7046747Y-9529484D02*
X-7056271Y-9519960D01*
X-7056271Y-9519960D02*
X-7046747Y-9510436D01*
X-7046747Y-9510436D02*
X-7046747Y-9529484D01*
X-6970556Y-9329484D02*
X-6846747Y-9329484D01*
X-6846747Y-9329484D02*
X-6913414Y-9405674D01*
X-6913414Y-9405674D02*
X-6884842Y-9405674D01*
X-6884842Y-9405674D02*
X-6865795Y-9415198D01*
X-6865795Y-9415198D02*
X-6856271Y-9424722D01*
X-6856271Y-9424722D02*
X-6846747Y-9443770D01*
X-6846747Y-9443770D02*
X-6846747Y-9491389D01*
X-6846747Y-9491389D02*
X-6856271Y-9510436D01*
X-6856271Y-9510436D02*
X-6865795Y-9519960D01*
X-6865795Y-9519960D02*
X-6884842Y-9529484D01*
X-6884842Y-9529484D02*
X-6941985Y-9529484D01*
X-6941985Y-9529484D02*
X-6961033Y-9519960D01*
X-6961033Y-9519960D02*
X-6970556Y-9510436D01*
X-6722937Y-9329484D02*
X-6703890Y-9329484D01*
X-6703890Y-9329484D02*
X-6684842Y-9339008D01*
X-6684842Y-9339008D02*
X-6675318Y-9348531D01*
X-6675318Y-9348531D02*
X-6665795Y-9367579D01*
X-6665795Y-9367579D02*
X-6656271Y-9405674D01*
X-6656271Y-9405674D02*
X-6656271Y-9453293D01*
X-6656271Y-9453293D02*
X-6665795Y-9491389D01*
X-6665795Y-9491389D02*
X-6675318Y-9510436D01*
X-6675318Y-9510436D02*
X-6684842Y-9519960D01*
X-6684842Y-9519960D02*
X-6703890Y-9529484D01*
X-6703890Y-9529484D02*
X-6722937Y-9529484D01*
X-6722937Y-9529484D02*
X-6741985Y-9519960D01*
X-6741985Y-9519960D02*
X-6751509Y-9510436D01*
X-6751509Y-9510436D02*
X-6761033Y-9491389D01*
X-6761033Y-9491389D02*
X-6770556Y-9453293D01*
X-6770556Y-9453293D02*
X-6770556Y-9405674D01*
X-6770556Y-9405674D02*
X-6761033Y-9367579D01*
X-6761033Y-9367579D02*
X-6751509Y-9348531D01*
X-6751509Y-9348531D02*
X-6741985Y-9339008D01*
X-6741985Y-9339008D02*
X-6722937Y-9329484D01*
X-6532461Y-9329484D02*
X-6513414Y-9329484D01*
X-6513414Y-9329484D02*
X-6494366Y-9339008D01*
X-6494366Y-9339008D02*
X-6484842Y-9348531D01*
X-6484842Y-9348531D02*
X-6475318Y-9367579D01*
X-6475318Y-9367579D02*
X-6465795Y-9405674D01*
X-6465795Y-9405674D02*
X-6465795Y-9453293D01*
X-6465795Y-9453293D02*
X-6475318Y-9491389D01*
X-6475318Y-9491389D02*
X-6484842Y-9510436D01*
X-6484842Y-9510436D02*
X-6494366Y-9519960D01*
X-6494366Y-9519960D02*
X-6513414Y-9529484D01*
X-6513414Y-9529484D02*
X-6532461Y-9529484D01*
X-6532461Y-9529484D02*
X-6551509Y-9519960D01*
X-6551509Y-9519960D02*
X-6561033Y-9510436D01*
X-6561033Y-9510436D02*
X-6570556Y-9491389D01*
X-6570556Y-9491389D02*
X-6580080Y-9453293D01*
X-6580080Y-9453293D02*
X-6580080Y-9405674D01*
X-6580080Y-9405674D02*
X-6570556Y-9367579D01*
X-6570556Y-9367579D02*
X-6561033Y-9348531D01*
X-6561033Y-9348531D02*
X-6551509Y-9339008D01*
X-6551509Y-9339008D02*
X-6532461Y-9329484D01*
X-6380080Y-9529484D02*
X-6380080Y-9396150D01*
X-6380080Y-9415198D02*
X-6370556Y-9405674D01*
X-6370556Y-9405674D02*
X-6351509Y-9396150D01*
X-6351509Y-9396150D02*
X-6322937Y-9396150D01*
X-6322937Y-9396150D02*
X-6303890Y-9405674D01*
X-6303890Y-9405674D02*
X-6294366Y-9424722D01*
X-6294366Y-9424722D02*
X-6294366Y-9529484D01*
X-6294366Y-9424722D02*
X-6284842Y-9405674D01*
X-6284842Y-9405674D02*
X-6265795Y-9396150D01*
X-6265795Y-9396150D02*
X-6237223Y-9396150D01*
X-6237223Y-9396150D02*
X-6218175Y-9405674D01*
X-6218175Y-9405674D02*
X-6208652Y-9424722D01*
X-6208652Y-9424722D02*
X-6208652Y-9529484D01*
X-6113414Y-9529484D02*
X-6113414Y-9396150D01*
X-6113414Y-9415198D02*
X-6103890Y-9405674D01*
X-6103890Y-9405674D02*
X-6084842Y-9396150D01*
X-6084842Y-9396150D02*
X-6056271Y-9396150D01*
X-6056271Y-9396150D02*
X-6037223Y-9405674D01*
X-6037223Y-9405674D02*
X-6027699Y-9424722D01*
X-6027699Y-9424722D02*
X-6027699Y-9529484D01*
X-6027699Y-9424722D02*
X-6018175Y-9405674D01*
X-6018175Y-9405674D02*
X-5999128Y-9396150D01*
X-5999128Y-9396150D02*
X-5970556Y-9396150D01*
X-5970556Y-9396150D02*
X-5951509Y-9405674D01*
X-5951509Y-9405674D02*
X-5941985Y-9424722D01*
X-5941985Y-9424722D02*
X-5941985Y-9529484D01*
X-5551509Y-9319960D02*
X-5722937Y-9577103D01*
X-5294366Y-9329484D02*
X-5275318Y-9329484D01*
X-5275318Y-9329484D02*
X-5256271Y-9339008D01*
X-5256271Y-9339008D02*
X-5246747Y-9348531D01*
X-5246747Y-9348531D02*
X-5237223Y-9367579D01*
X-5237223Y-9367579D02*
X-5227699Y-9405674D01*
X-5227699Y-9405674D02*
X-5227699Y-9453293D01*
X-5227699Y-9453293D02*
X-5237223Y-9491389D01*
X-5237223Y-9491389D02*
X-5246747Y-9510436D01*
X-5246747Y-9510436D02*
X-5256271Y-9519960D01*
X-5256271Y-9519960D02*
X-5275318Y-9529484D01*
X-5275318Y-9529484D02*
X-5294366Y-9529484D01*
X-5294366Y-9529484D02*
X-5313414Y-9519960D01*
X-5313414Y-9519960D02*
X-5322937Y-9510436D01*
X-5322937Y-9510436D02*
X-5332461Y-9491389D01*
X-5332461Y-9491389D02*
X-5341985Y-9453293D01*
X-5341985Y-9453293D02*
X-5341985Y-9405674D01*
X-5341985Y-9405674D02*
X-5332461Y-9367579D01*
X-5332461Y-9367579D02*
X-5322937Y-9348531D01*
X-5322937Y-9348531D02*
X-5313414Y-9339008D01*
X-5313414Y-9339008D02*
X-5294366Y-9329484D01*
X-5141985Y-9510436D02*
X-5132461Y-9519960D01*
X-5132461Y-9519960D02*
X-5141985Y-9529484D01*
X-5141985Y-9529484D02*
X-5151509Y-9519960D01*
X-5151509Y-9519960D02*
X-5141985Y-9510436D01*
X-5141985Y-9510436D02*
X-5141985Y-9529484D01*
X-5008652Y-9329484D02*
X-4989604Y-9329484D01*
X-4989604Y-9329484D02*
X-4970556Y-9339008D01*
X-4970556Y-9339008D02*
X-4961033Y-9348531D01*
X-4961033Y-9348531D02*
X-4951509Y-9367579D01*
X-4951509Y-9367579D02*
X-4941985Y-9405674D01*
X-4941985Y-9405674D02*
X-4941985Y-9453293D01*
X-4941985Y-9453293D02*
X-4951509Y-9491389D01*
X-4951509Y-9491389D02*
X-4961033Y-9510436D01*
X-4961033Y-9510436D02*
X-4970556Y-9519960D01*
X-4970556Y-9519960D02*
X-4989604Y-9529484D01*
X-4989604Y-9529484D02*
X-5008652Y-9529484D01*
X-5008652Y-9529484D02*
X-5027699Y-9519960D01*
X-5027699Y-9519960D02*
X-5037223Y-9510436D01*
X-5037223Y-9510436D02*
X-5046747Y-9491389D01*
X-5046747Y-9491389D02*
X-5056271Y-9453293D01*
X-5056271Y-9453293D02*
X-5056271Y-9405674D01*
X-5056271Y-9405674D02*
X-5046747Y-9367579D01*
X-5046747Y-9367579D02*
X-5037223Y-9348531D01*
X-5037223Y-9348531D02*
X-5027699Y-9339008D01*
X-5027699Y-9339008D02*
X-5008652Y-9329484D01*
X-4761033Y-9329484D02*
X-4856271Y-9329484D01*
X-4856271Y-9329484D02*
X-4865794Y-9424722D01*
X-4865794Y-9424722D02*
X-4856271Y-9415198D01*
X-4856271Y-9415198D02*
X-4837223Y-9405674D01*
X-4837223Y-9405674D02*
X-4789604Y-9405674D01*
X-4789604Y-9405674D02*
X-4770556Y-9415198D01*
X-4770556Y-9415198D02*
X-4761033Y-9424722D01*
X-4761033Y-9424722D02*
X-4751509Y-9443770D01*
X-4751509Y-9443770D02*
X-4751509Y-9491389D01*
X-4751509Y-9491389D02*
X-4761033Y-9510436D01*
X-4761033Y-9510436D02*
X-4770556Y-9519960D01*
X-4770556Y-9519960D02*
X-4789604Y-9529484D01*
X-4789604Y-9529484D02*
X-4837223Y-9529484D01*
X-4837223Y-9529484D02*
X-4856271Y-9519960D01*
X-4856271Y-9519960D02*
X-4865794Y-9510436D01*
X-4561033Y-9529484D02*
X-4675318Y-9529484D01*
X-4618175Y-9529484D02*
X-4618175Y-9329484D01*
X-4618175Y-9329484D02*
X-4637223Y-9358055D01*
X-4637223Y-9358055D02*
X-4656271Y-9377103D01*
X-4656271Y-9377103D02*
X-4675318Y-9386627D01*
X-4484842Y-9348531D02*
X-4475318Y-9339008D01*
X-4475318Y-9339008D02*
X-4456271Y-9329484D01*
X-4456271Y-9329484D02*
X-4408652Y-9329484D01*
X-4408652Y-9329484D02*
X-4389604Y-9339008D01*
X-4389604Y-9339008D02*
X-4380080Y-9348531D01*
X-4380080Y-9348531D02*
X-4370556Y-9367579D01*
X-4370556Y-9367579D02*
X-4370556Y-9386627D01*
X-4370556Y-9386627D02*
X-4380080Y-9415198D01*
X-4380080Y-9415198D02*
X-4494366Y-9529484D01*
X-4494366Y-9529484D02*
X-4370556Y-9529484D01*
X-4294366Y-9329484D02*
X-4294366Y-9367579D01*
X-4218175Y-9329484D02*
X-4218175Y-9367579D01*
X-3922937Y-9605674D02*
X-3932461Y-9596150D01*
X-3932461Y-9596150D02*
X-3951509Y-9567579D01*
X-3951509Y-9567579D02*
X-3961032Y-9548531D01*
X-3961032Y-9548531D02*
X-3970556Y-9519960D01*
X-3970556Y-9519960D02*
X-3980080Y-9472341D01*
X-3980080Y-9472341D02*
X-3980080Y-9434246D01*
X-3980080Y-9434246D02*
X-3970556Y-9386627D01*
X-3970556Y-9386627D02*
X-3961032Y-9358055D01*
X-3961032Y-9358055D02*
X-3951509Y-9339008D01*
X-3951509Y-9339008D02*
X-3932461Y-9310436D01*
X-3932461Y-9310436D02*
X-3922937Y-9300912D01*
X-3865794Y-9329484D02*
X-3741985Y-9329484D01*
X-3741985Y-9329484D02*
X-3808651Y-9405674D01*
X-3808651Y-9405674D02*
X-3780080Y-9405674D01*
X-3780080Y-9405674D02*
X-3761032Y-9415198D01*
X-3761032Y-9415198D02*
X-3751509Y-9424722D01*
X-3751509Y-9424722D02*
X-3741985Y-9443770D01*
X-3741985Y-9443770D02*
X-3741985Y-9491389D01*
X-3741985Y-9491389D02*
X-3751509Y-9510436D01*
X-3751509Y-9510436D02*
X-3761032Y-9519960D01*
X-3761032Y-9519960D02*
X-3780080Y-9529484D01*
X-3780080Y-9529484D02*
X-3837223Y-9529484D01*
X-3837223Y-9529484D02*
X-3856270Y-9519960D01*
X-3856270Y-9519960D02*
X-3865794Y-9510436D01*
X-3570556Y-9396150D02*
X-3570556Y-9529484D01*
X-3618175Y-9319960D02*
X-3665794Y-9462817D01*
X-3665794Y-9462817D02*
X-3541985Y-9462817D01*
X-3313413Y-9529484D02*
X-3313413Y-9329484D01*
X-3227699Y-9529484D02*
X-3227699Y-9424722D01*
X-3227699Y-9424722D02*
X-3237223Y-9405674D01*
X-3237223Y-9405674D02*
X-3256270Y-9396150D01*
X-3256270Y-9396150D02*
X-3284842Y-9396150D01*
X-3284842Y-9396150D02*
X-3303889Y-9405674D01*
X-3303889Y-9405674D02*
X-3313413Y-9415198D01*
X-3103889Y-9529484D02*
X-3122937Y-9519960D01*
X-3122937Y-9519960D02*
X-3132461Y-9510436D01*
X-3132461Y-9510436D02*
X-3141985Y-9491389D01*
X-3141985Y-9491389D02*
X-3141985Y-9434246D01*
X-3141985Y-9434246D02*
X-3132461Y-9415198D01*
X-3132461Y-9415198D02*
X-3122937Y-9405674D01*
X-3122937Y-9405674D02*
X-3103889Y-9396150D01*
X-3103889Y-9396150D02*
X-3075318Y-9396150D01*
X-3075318Y-9396150D02*
X-3056270Y-9405674D01*
X-3056270Y-9405674D02*
X-3046747Y-9415198D01*
X-3046747Y-9415198D02*
X-3037223Y-9434246D01*
X-3037223Y-9434246D02*
X-3037223Y-9491389D01*
X-3037223Y-9491389D02*
X-3046747Y-9510436D01*
X-3046747Y-9510436D02*
X-3056270Y-9519960D01*
X-3056270Y-9519960D02*
X-3075318Y-9529484D01*
X-3075318Y-9529484D02*
X-3103889Y-9529484D01*
X-2922937Y-9529484D02*
X-2941985Y-9519960D01*
X-2941985Y-9519960D02*
X-2951508Y-9500912D01*
X-2951508Y-9500912D02*
X-2951508Y-9329484D01*
X-2770556Y-9519960D02*
X-2789604Y-9529484D01*
X-2789604Y-9529484D02*
X-2827699Y-9529484D01*
X-2827699Y-9529484D02*
X-2846747Y-9519960D01*
X-2846747Y-9519960D02*
X-2856270Y-9500912D01*
X-2856270Y-9500912D02*
X-2856270Y-9424722D01*
X-2856270Y-9424722D02*
X-2846747Y-9405674D01*
X-2846747Y-9405674D02*
X-2827699Y-9396150D01*
X-2827699Y-9396150D02*
X-2789604Y-9396150D01*
X-2789604Y-9396150D02*
X-2770556Y-9405674D01*
X-2770556Y-9405674D02*
X-2761032Y-9424722D01*
X-2761032Y-9424722D02*
X-2761032Y-9443770D01*
X-2761032Y-9443770D02*
X-2856270Y-9462817D01*
X-2684842Y-9519960D02*
X-2665794Y-9529484D01*
X-2665794Y-9529484D02*
X-2627699Y-9529484D01*
X-2627699Y-9529484D02*
X-2608651Y-9519960D01*
X-2608651Y-9519960D02*
X-2599128Y-9500912D01*
X-2599128Y-9500912D02*
X-2599128Y-9491389D01*
X-2599128Y-9491389D02*
X-2608651Y-9472341D01*
X-2608651Y-9472341D02*
X-2627699Y-9462817D01*
X-2627699Y-9462817D02*
X-2656270Y-9462817D01*
X-2656270Y-9462817D02*
X-2675318Y-9453293D01*
X-2675318Y-9453293D02*
X-2684842Y-9434246D01*
X-2684842Y-9434246D02*
X-2684842Y-9424722D01*
X-2684842Y-9424722D02*
X-2675318Y-9405674D01*
X-2675318Y-9405674D02*
X-2656270Y-9396150D01*
X-2656270Y-9396150D02*
X-2627699Y-9396150D01*
X-2627699Y-9396150D02*
X-2608651Y-9405674D01*
X-2532461Y-9605674D02*
X-2522937Y-9596150D01*
X-2522937Y-9596150D02*
X-2503889Y-9567579D01*
X-2503889Y-9567579D02*
X-2494366Y-9548531D01*
X-2494366Y-9548531D02*
X-2484842Y-9519960D01*
X-2484842Y-9519960D02*
X-2475318Y-9472341D01*
X-2475318Y-9472341D02*
X-2475318Y-9434246D01*
X-2475318Y-9434246D02*
X-2484842Y-9386627D01*
X-2484842Y-9386627D02*
X-2494366Y-9358055D01*
X-2494366Y-9358055D02*
X-2503889Y-9339008D01*
X-2503889Y-9339008D02*
X-2522937Y-9310436D01*
X-2522937Y-9310436D02*
X-2532461Y-9300912D01*
M02*
