M48
; DRILL file {KiCad 8.0.8} date 2026-01-29T15:06:08+1100
; FORMAT={-:-/ absolute / metric / decimal}
; #@! TF.CreationDate,2026-01-29T15:06:08+11:00
; #@! TF.GenerationSoftware,Kicad,Pcbnew,8.0.8
; #@! TF.FileFunction,Plated,1,2,PTH
FMAT,2
METRIC
; #@! TA.AperFunction,Plated,PTH,ComponentDrill
T1C0.700
; #@! TA.AperFunction,Plated,PTH,ComponentDrill
T2C0.800
; #@! TA.AperFunction,Plated,PTH,ComponentDrill
T3C1.000
; #@! TA.AperFunction,Plated,PTH,ComponentDrill
T4C1.300
%
G90
G05
T1
X-65.197Y-67.31
X-57.577Y-67.31
X-49.078Y-49.67
X-49.078Y-57.29
X-31.88Y-49.67
X-31.88Y-57.29
T2
X-71.487Y-29.206
X-71.487Y-33.888
X-71.487Y-37.279
X-69.259Y-49.378
X-69.259Y-53.133
X-68.338Y-21.858
X-61.387Y-61.489
X-61.387Y-64.759
X-61.327Y-29.206
X-61.327Y-33.888
X-61.327Y-37.279
X-61.272Y-69.603
X-61.272Y-73.358
X-60.381Y-3.967
X-59.099Y-49.378
X-59.099Y-53.133
X-58.589Y-31.077
X-58.589Y-41.237
X-58.178Y-21.858
X-57.841Y-1.427
X-55.937Y-9.406
X-55.301Y-3.967
X-53.563Y-33.727
X-53.563Y-40.751
X-53.563Y-45.838
X-52.883Y-22.08
X-52.883Y-29.322
X-52.667Y-0.081
X-52.667Y-4.199
X-52.068Y-48.9
X-52.068Y-59.06
X-51.227Y-61.489
X-51.227Y-64.759
X-51.112Y-69.603
X-51.112Y-73.358
X-51.055Y-18.177
X-48.483Y-37.312
X-48.462Y-22.158
X-48.462Y-29.778
X-47.708Y-67.067
X-47.708Y-77.227
X-46.055Y-18.177
X-45.922Y-22.158
X-45.922Y-29.778
X-45.777Y-9.406
X-44.678Y-55.016
X-44.678Y-57.556
X-44.678Y-60.096
X-44.678Y-62.636
X-44.678Y-65.176
X-44.678Y-67.716
X-44.678Y-70.256
X-44.678Y-72.796
X-44.45Y-76.2
X-43.483Y-37.312
X-43.403Y-33.727
X-43.403Y-40.751
X-43.403Y-45.838
X-43.382Y-22.158
X-43.382Y-29.778
X-42.507Y-0.081
X-42.507Y-4.199
X-40.842Y-22.158
X-40.842Y-29.778
X-38.465Y-33.727
X-38.465Y-40.751
X-38.465Y-45.838
X-38.373Y-37.312
X-38.302Y-22.158
X-38.302Y-29.778
X-37.058Y-55.016
X-37.058Y-57.556
X-37.058Y-60.096
X-37.058Y-62.636
X-37.058Y-65.176
X-37.058Y-67.716
X-37.058Y-70.256
X-37.058Y-72.796
X-36.83Y-76.2
X-35.974Y-18.177
X-35.833Y-9.406
X-35.762Y-22.158
X-35.762Y-29.778
X-33.538Y-67.067
X-33.538Y-77.227
X-33.373Y-37.312
X-33.222Y-22.158
X-33.222Y-29.778
X-30.974Y-18.177
X-30.02Y-69.603
X-30.02Y-73.6
X-29.862Y-4.199
X-29.777Y-61.368
X-29.777Y-64.275
X-28.936Y-48.9
X-28.936Y-59.06
X-28.305Y-33.727
X-28.305Y-40.751
X-28.305Y-45.838
X-27.322Y-1.659
X-25.673Y-9.406
X-24.782Y-4.199
X-24.691Y-51.437
X-24.691Y-54.949
X-23.561Y-21.939
X-23.083Y-32.678
X-23.083Y-42.838
X-21.905Y-0.202
X-21.905Y-4.199
X-19.86Y-69.603
X-19.86Y-73.6
X-19.617Y-61.368
X-19.617Y-64.275
X-18.474Y-29.125
X-18.474Y-33.808
X-18.474Y-37.36
X-17.267Y-67.246
X-17.146Y-75.966
X-15.24Y-45.72
X-14.531Y-51.437
X-14.531Y-54.949
X-13.401Y-21.939
X-12.267Y-67.246
X-12.146Y-75.966
X-11.745Y-0.202
X-11.745Y-4.199
X-8.314Y-29.125
X-8.314Y-33.808
X-8.314Y-37.36
X-3.152Y-45.709
T3
X-70.773Y-64.573
X-70.773Y-67.113
X-70.773Y-69.653
X-70.773Y-72.193
X-70.773Y-74.733
X-68.233Y-64.573
X-68.233Y-67.113
X-68.233Y-69.653
X-68.233Y-72.193
X-68.233Y-74.733
T4
X-72.129Y-26.154
X-72.129Y-40.444
X-72.129Y-49.378
X-68.132Y-8.865
X-66.558Y-5.08
X-65.589Y-8.865
X-65.468Y-13.97
X-65.468Y-17.827
X-63.5Y-5.08
X-60.502Y-13.97
X-60.502Y-17.827
X-58.686Y-9.406
X-56.264Y-22.066
X-55.74Y-33.748
X-41.61Y-14.073
X-40.52Y-0.267
X-40.52Y-4.142
X-37.855Y-0.267
X-36.644Y-14.073
X-33.02Y-2.54
X-33.02Y-5.474
X-26.255Y-33.748
X-26.229Y-22.066
X-23.443Y-9.35
X-21.869Y-13.97
X-21.869Y-17.827
X-16.661Y-17.827
X-16.51Y-13.97
X-13.149Y-49.388
X-9.637Y-0.323
X-9.637Y-4.199
X-8.547Y-26.517
X-8.547Y-40.081
X-6.972Y-0.323
M30
