<?xml version="1.0" encoding="UTF-8" standalone="no"?>
<!-- Created with Inkscape (http://www.inkscape.org/) -->

<svg
   width="60.720001mm"
   height="128.5mm"
   viewBox="0 0 60.719999 128.5"
   version="1.1"
   id="svg1"
   xmlns="http://www.w3.org/2000/svg"
   xmlns:svg="http://www.w3.org/2000/svg">
  <defs
     id="defs1" />
  <g
     id="g56">
    <g
       id="layer8">
      <g
         id="panel"
         style="stroke-width:1;stroke-dasharray:none">
        <path
           style="baseline-shift:baseline;display:inline;overflow:visible;opacity:1;fill:#0a0a0a;fill-opacity:1;stroke:none;stroke-width:0.99878;stroke-dasharray:none;enable-background:accumulate;stop-color:#000000;stop-opacity:1"
           d="M 0,0 V 128.5 H 60.72 V 0 Z"
           id="rect34" />
      </g>
      <g
         id="g55" />
    </g>
  </g>
  <g
     id="g39">
    <path
       id="rect35"
       style="fill:#ffffff;stroke-width:0"
       d="m 6.35,123.9 h 2.3 c 0.8864,0 1.6,0.7136 1.6,1.6 0,0.8864 -0.7136,1.6 -1.6,1.6 h -2.3 c -0.8864,0 -1.6,-0.7136 -1.6,-1.6 0,-0.8864 0.7136,-1.6 1.6,-1.6 z" />
    <path
       id="rect36"
       style="fill:#ffffff;stroke-width:0"
       d="m 6.35,1.4 h 2.3 c 0.8864,0 1.6,0.7136 1.6,1.6 0,0.8864 -0.7136,1.6 -1.6,1.6 H 6.35 C 5.4636,4.6 4.75,3.8864 4.75,3 4.75,2.1136 5.4636,1.4 6.35,1.4 Z" />
    <path
       id="rect37"
       style="fill:#ffffff;stroke-width:0"
       d="m 52.070001,123.9 h 2.3 c 0.8864,0 1.6,0.7136 1.6,1.6 0,0.8864 -0.7136,1.6 -1.6,1.6 h -2.3 c -0.8864,0 -1.6,-0.7136 -1.6,-1.6 0,-0.8864 0.7136,-1.6 1.6,-1.6 z" />
    <path
       id="rect38"
       style="fill:#ffffff;stroke-width:0"
       d="m 52.070001,1.4 h 2.3 c 0.8864,0 1.6,0.7136 1.6,1.6 0,0.8864 -0.7136,1.6 -1.6,1.6 h -2.3 c -0.8864,0 -1.6,-0.7136 -1.6,-1.6 0,-0.8864 0.7136,-1.6 1.6,-1.6 z" />
    <g
       id="g255"
       transform="translate(79.996858,-58.801376)">
      <g
         id="use253"
         transform="translate(-30.836519,25.33391)"
         style="display:inline">
        <path
           style="display:inline;fill:#ffffff;fill-opacity:1;stroke:none;stroke-width:0.1;stroke-dasharray:none;stroke-opacity:1;paint-order:markers fill stroke"
           d="m 3.8500687,63.916088 c 10e-8,1.465518 -1.1880374,2.653556 -2.6535559,2.653556 -1.46551849,0 -2.653556,-1.188038 -2.6535559,-2.653556 -1e-7,-1.465518 1.18803741,-2.653556 2.6535559,-2.653556 1.4655185,0 2.653556,1.188038 2.6535559,2.653556 z"
           id="path256" />
      </g>
      <g
         id="use254"
         transform="translate(-14.996852,10.999997)">
        <path
           style="fill:#ffffff;fill-opacity:1;stroke:none;stroke-width:0.1;stroke-linecap:butt;stroke-linejoin:miter;stroke-dasharray:none;stroke-opacity:1;paint-order:markers fill stroke"
           d="m -31.237742,73.25 c 0,1.879017 -1.523244,3.402261 -3.402261,3.402261 -1.879017,0 -3.402262,-1.523244 -3.402262,-3.402261 0,-1.879017 1.523245,-3.402261 3.402262,-3.402261 1.879017,0 3.402261,1.523244 3.402261,3.402261 z"
           id="path260" />
      </g>
      <g
         id="use255"
         transform="translate(-70.836517,25.333915)"
         style="display:inline">
        <path
           style="display:inline;fill:#ffffff;fill-opacity:1;stroke:none;stroke-width:0.1;stroke-dasharray:none;stroke-opacity:1;paint-order:markers fill stroke"
           d="m 3.8500687,63.916088 c 10e-8,1.465518 -1.1880374,2.653556 -2.6535559,2.653556 -1.46551849,0 -2.653556,-1.188038 -2.6535559,-2.653556 -1e-7,-1.465518 1.18803741,-2.653556 2.6535559,-2.653556 1.4655185,0 2.653556,1.188038 2.6535559,2.653556 z"
           id="path263" />
      </g>
    </g>
    <g
       id="g280"
       transform="translate(79.996858,-32.181472)">
      <g
         id="use278"
         transform="translate(-30.836519,25.33391)"
         style="display:inline">
        <path
           style="display:inline;fill:#ffffff;fill-opacity:1;stroke:none;stroke-width:0.1;stroke-dasharray:none;stroke-opacity:1;paint-order:markers fill stroke"
           d="m 3.8500687,63.916088 c 10e-8,1.465518 -1.1880374,2.653556 -2.6535559,2.653556 -1.46551849,0 -2.653556,-1.188038 -2.6535559,-2.653556 -1e-7,-1.465518 1.18803741,-2.653556 2.6535559,-2.653556 1.4655185,0 2.653556,1.188038 2.6535559,2.653556 z"
           id="path281" />
      </g>
      <g
         id="use279"
         transform="translate(-14.996852,10.999997)">
        <path
           style="fill:#ffffff;fill-opacity:1;stroke:none;stroke-width:0.1;stroke-linecap:butt;stroke-linejoin:miter;stroke-dasharray:none;stroke-opacity:1;paint-order:markers fill stroke"
           d="m -31.237742,73.25 c 0,1.879017 -1.523244,3.402261 -3.402261,3.402261 -1.879017,0 -3.402262,-1.523244 -3.402262,-3.402261 0,-1.879017 1.523245,-3.402261 3.402262,-3.402261 1.879017,0 3.402261,1.523244 3.402261,3.402261 z"
           id="path285" />
      </g>
      <g
         id="use280"
         transform="translate(-70.836517,25.333915)"
         style="display:inline">
        <path
           style="display:inline;fill:#ffffff;fill-opacity:1;stroke:none;stroke-width:0.1;stroke-dasharray:none;stroke-opacity:1;paint-order:markers fill stroke"
           d="m 3.8500687,63.916088 c 10e-8,1.465518 -1.1880374,2.653556 -2.6535559,2.653556 -1.46551849,0 -2.653556,-1.188038 -2.6535559,-2.653556 -1e-7,-1.465518 1.18803741,-2.653556 2.6535559,-2.653556 1.4655185,0 2.653556,1.188038 2.6535559,2.653556 z"
           id="path288" />
      </g>
    </g>
    <g
       id="g305"
       transform="translate(79.996858,-5.5615671)">
      <g
         id="use303"
         transform="translate(-30.836519,25.33391)"
         style="display:inline">
        <path
           style="display:inline;fill:#ffffff;fill-opacity:1;stroke:none;stroke-width:0.1;stroke-dasharray:none;stroke-opacity:1;paint-order:markers fill stroke"
           d="m 3.8500687,63.916088 c 10e-8,1.465518 -1.1880374,2.653556 -2.6535559,2.653556 -1.46551849,0 -2.653556,-1.188038 -2.6535559,-2.653556 -1e-7,-1.465518 1.18803741,-2.653556 2.6535559,-2.653556 1.4655185,0 2.653556,1.188038 2.6535559,2.653556 z"
           id="path306" />
      </g>
      <g
         id="use304"
         transform="translate(-14.996852,10.999997)">
        <path
           style="fill:#ffffff;fill-opacity:1;stroke:none;stroke-width:0.1;stroke-linecap:butt;stroke-linejoin:miter;stroke-dasharray:none;stroke-opacity:1;paint-order:markers fill stroke"
           d="m -31.237742,73.25 c 0,1.879017 -1.523244,3.402261 -3.402261,3.402261 -1.879017,0 -3.402262,-1.523244 -3.402262,-3.402261 0,-1.879017 1.523245,-3.402261 3.402262,-3.402261 1.879017,0 3.402261,1.523244 3.402261,3.402261 z"
           id="path310" />
      </g>
      <g
         id="use305"
         transform="translate(-70.836517,25.333915)"
         style="display:inline">
        <path
           style="display:inline;fill:#ffffff;fill-opacity:1;stroke:none;stroke-width:0.1;stroke-dasharray:none;stroke-opacity:1;paint-order:markers fill stroke"
           d="m 3.8500687,63.916088 c 10e-8,1.465518 -1.1880374,2.653556 -2.6535559,2.653556 -1.46551849,0 -2.653556,-1.188038 -2.6535559,-2.653556 -1e-7,-1.465518 1.18803741,-2.653556 2.6535559,-2.653556 1.4655185,0 2.653556,1.188038 2.6535559,2.653556 z"
           id="path313" />
      </g>
    </g>
    <g
       id="g330"
       transform="translate(79.996858,21.058333)">
      <g
         id="use328"
         transform="translate(-30.836519,25.33391)"
         style="display:inline">
        <path
           style="display:inline;fill:#ffffff;fill-opacity:1;stroke:none;stroke-width:0.1;stroke-dasharray:none;stroke-opacity:1;paint-order:markers fill stroke"
           d="m 3.8500687,63.916088 c 10e-8,1.465518 -1.1880374,2.653556 -2.6535559,2.653556 -1.46551849,0 -2.653556,-1.188038 -2.6535559,-2.653556 -1e-7,-1.465518 1.18803741,-2.653556 2.6535559,-2.653556 1.4655185,0 2.653556,1.188038 2.6535559,2.653556 z"
           id="path331" />
      </g>
      <g
         id="use329"
         transform="translate(-14.996852,10.999997)">
        <path
           style="fill:#ffffff;fill-opacity:1;stroke:none;stroke-width:0.1;stroke-linecap:butt;stroke-linejoin:miter;stroke-dasharray:none;stroke-opacity:1;paint-order:markers fill stroke"
           d="m -31.237742,73.25 c 0,1.879017 -1.523244,3.402261 -3.402261,3.402261 -1.879017,0 -3.402262,-1.523244 -3.402262,-3.402261 0,-1.879017 1.523245,-3.402261 3.402262,-3.402261 1.879017,0 3.402261,1.523244 3.402261,3.402261 z"
           id="path335" />
      </g>
      <g
         id="use330"
         transform="translate(-70.836517,25.333915)"
         style="display:inline">
        <path
           style="display:inline;fill:#ffffff;fill-opacity:1;stroke:none;stroke-width:0.1;stroke-dasharray:none;stroke-opacity:1;paint-order:markers fill stroke"
           d="m 3.8500687,63.916088 c 10e-8,1.465518 -1.1880374,2.653556 -2.6535559,2.653556 -1.46551849,0 -2.653556,-1.188038 -2.6535559,-2.653556 -1e-7,-1.465518 1.18803741,-2.653556 2.6535559,-2.653556 1.4655185,0 2.653556,1.188038 2.6535559,2.653556 z"
           id="path338" />
      </g>
    </g>
  </g>
</svg>
