M48
; DRILL file {KiCad 8.0.8} date 2026-03-28T17:30:54+1100
; FORMAT={-:-/ absolute / metric / decimal}
; #@! TF.CreationDate,2026-03-28T17:30:54+11:00
; #@! TF.GenerationSoftware,Kicad,Pcbnew,8.0.8
; #@! TF.FileFunction,Plated,1,2,PTH
FMAT,2
METRIC
; #@! TA.AperFunction,Plated,PTH,ViaDrill
T1C0.400
; #@! TA.AperFunction,Plated,PTH,ComponentDrill
T2C0.750
; #@! TA.AperFunction,Plated,PTH,ComponentDrill
T3C0.800
; #@! TA.AperFunction,Plated,PTH,ComponentDrill
T4C1.000
; #@! TA.AperFunction,Plated,PTH,ComponentDrill
T5C1.100
%
G90
G05
T1
X88.3Y-112.3
X94.6Y-111.35
X105.75Y-93.5
X121.29Y-77.71
X137.1Y-114.8
X137.7Y-109.25
X137.75Y-104.75
X139.8Y-102.2
X151.25Y-104.75
X162.1Y-82.6
X163.0Y-127.75
X169.7Y-125.8
T2
X127.685Y-103.0
X127.695Y-98.0
X135.305Y-103.0
X135.315Y-98.0
T3
X74.705Y-79.9
X74.705Y-85.9
X74.705Y-91.9
X74.705Y-104.0
X74.725Y-70.9
X74.725Y-73.9
X74.725Y-76.9
X74.725Y-82.9
X74.725Y-88.9
X74.725Y-95.0
X74.725Y-98.0
X74.725Y-101.05
X78.0Y-111.6
X78.0Y-119.22
X81.2Y-109.5
X81.2Y-117.12
X81.22Y-127.0
X81.22Y-135.45
X82.325Y-79.9
X82.325Y-85.9
X82.325Y-91.9
X82.325Y-104.0
X82.345Y-73.9
X82.345Y-98.0
X83.76Y-127.0
X83.76Y-135.45
X86.3Y-127.0
X86.3Y-135.45
X87.6Y-91.7
X87.6Y-94.24
X87.6Y-96.78
X87.6Y-99.6
X87.6Y-102.14
X87.6Y-104.68
X87.97Y-72.24
X87.97Y-79.86
X87.98Y-68.79
X89.68Y-136.2
X89.7Y-129.8
X89.7Y-133.0
X90.5Y-83.54
X90.51Y-72.24
X90.51Y-79.86
X92.3Y-118.3
X92.3Y-121.5
X92.3Y-124.7
X93.0Y-83.54
X93.05Y-72.24
X93.05Y-79.86
X93.13Y-102.0
X95.58Y-83.5
X95.59Y-72.24
X95.59Y-79.86
X95.6Y-68.79
X96.5Y-91.7
X96.5Y-94.24
X96.5Y-96.78
X97.3Y-136.2
X97.32Y-129.8
X97.32Y-133.0
X99.92Y-114.19
X99.92Y-118.3
X99.92Y-121.5
X99.92Y-124.7
X100.75Y-102.0
X101.2Y-80.04
X101.75Y-70.5
X101.75Y-73.0
X102.42Y-114.19
X103.2Y-83.5
X103.25Y-116.95
X103.25Y-124.57
X103.25Y-130.45
X103.25Y-132.99
X103.25Y-135.53
X104.96Y-100.25
X106.3Y-70.5
X106.3Y-73.0
X107.5Y-100.25
X107.75Y-121.88
X107.75Y-129.5
X108.63Y-119.25
X108.82Y-80.04
X110.04Y-100.25
X110.13Y-137.95
X110.19Y-132.75
X110.67Y-93.54
X111.5Y-122.13
X111.5Y-129.75
X111.58Y-114.5
X112.25Y-70.04
X112.25Y-77.66
X114.04Y-122.13
X114.04Y-129.75
X115.5Y-70.04
X115.5Y-77.66
X116.25Y-119.25
X116.44Y-98.0
X116.44Y-103.0
X116.58Y-122.13
X116.58Y-129.75
X117.75Y-137.95
X117.81Y-132.75
X118.29Y-93.54
X118.75Y-70.04
X118.75Y-77.66
X119.12Y-122.13
X119.12Y-129.75
X119.2Y-114.5
X121.98Y-93.54
X122.7Y-120.68
X122.7Y-128.3
X124.0Y-70.0
X124.0Y-77.62
X124.06Y-98.0
X124.06Y-103.0
X125.63Y-125.25
X125.7Y-138.075
X127.5Y-69.94
X127.5Y-77.56
X127.5Y-117.6
X127.5Y-120.1
X129.1Y-114.6
X129.6Y-80.38
X129.6Y-88.0
X129.6Y-93.54
X130.7Y-70.0
X131.0Y-130.63
X131.0Y-138.25
X132.25Y-118.75
X132.25Y-121.25
X133.25Y-125.25
X133.5Y-114.75
X134.25Y-138.0
X135.7Y-69.78
X135.7Y-77.4
X136.12Y-118.64
X136.12Y-121.18
X136.12Y-123.72
X136.12Y-126.26
X137.3Y-88.08
X137.3Y-95.7
X137.5Y-130.69
X137.5Y-138.31
X140.75Y-138.075
X141.12Y-114.75
X142.0Y-87.58
X142.0Y-95.2
X142.0Y-98.5
X142.9Y-71.38
X142.9Y-79.0
X143.0Y-81.8
X143.74Y-118.64
X143.74Y-121.18
X143.74Y-123.72
X143.74Y-126.26
X144.0Y-130.69
X144.0Y-138.31
X144.5Y-102.3
X144.54Y-87.58
X144.54Y-95.2
X145.44Y-71.38
X145.44Y-79.0
X145.48Y-68.1
X145.5Y-81.8
X146.11Y-126.19
X146.75Y-114.75
X146.75Y-122.37
X147.0Y-102.3
X147.08Y-87.58
X147.08Y-95.2
X147.33Y-138.135
X147.98Y-71.38
X147.98Y-79.0
X149.62Y-87.58
X149.62Y-95.2
X149.62Y-98.5
X149.7Y-102.2
X150.52Y-71.38
X150.52Y-79.0
X150.58Y-130.75
X150.58Y-138.37
X151.25Y-114.69
X151.25Y-122.31
X153.1Y-68.1
X153.73Y-126.19
X153.83Y-138.135
X154.1Y-71.98
X154.1Y-79.6
X154.4Y-90.38
X154.4Y-98.0
X155.6Y-84.9
X156.25Y-116.0
X156.25Y-118.5
X156.75Y-138.075
X157.2Y-71.98
X157.2Y-79.6
X157.32Y-102.2
X157.6Y-89.6
X157.6Y-92.1
X159.18Y-96.79
X161.0Y-131.5
X163.0Y-131.5
X166.8Y-96.79
X167.0Y-131.5
X168.7Y-99.5
X168.7Y-102.04
X168.7Y-104.58
X169.0Y-131.5
X169.7Y-108.19
X169.7Y-115.81
T4
X161.71Y-111.5
X161.71Y-114.04
X161.71Y-116.58
X161.71Y-119.12
X161.71Y-121.66
X164.25Y-111.5
X164.25Y-114.04
X164.25Y-116.58
X164.25Y-119.12
X164.25Y-121.66
T5
X167.6Y-92.3
M30
