<?xml version="1.0" encoding="UTF-8" standalone="no"?>
<!-- Created with Inkscape (http://www.inkscape.org/) -->

<svg
   width="104.25411mm"
   height="22.779488mm"
   viewBox="0 0 104.25411 22.779488"
   version="1.1"
   id="svg1"
   xml:space="preserve"
   sodipodi:docname="Callisto_Labs_Logo_PATH.svg"
   inkscape:version="1.4.3 (0d15f75, 2025-12-25)"
   xmlns:inkscape="http://www.inkscape.org/namespaces/inkscape"
   xmlns:sodipodi="http://sodipodi.sourceforge.net/DTD/sodipodi-0.dtd"
   xmlns="http://www.w3.org/2000/svg"
   xmlns:svg="http://www.w3.org/2000/svg"><sodipodi:namedview
     id="namedview1"
     pagecolor="#ffffff"
     bordercolor="#000000"
     borderopacity="0.25"
     inkscape:showpageshadow="2"
     inkscape:pageopacity="0.0"
     inkscape:pagecheckerboard="0"
     inkscape:deskcolor="#d1d1d1"
     inkscape:document-units="mm"
     inkscape:zoom="1.6272574"
     inkscape:cx="219.38754"
     inkscape:cy="41.173573"
     inkscape:window-width="1800"
     inkscape:window-height="1005"
     inkscape:window-x="0"
     inkscape:window-y="39"
     inkscape:window-maximized="1"
     inkscape:current-layer="layer2" /><defs
     id="defs1" /><g
     id="layer2"><path
       id="path1"
       style="baseline-shift:baseline;display:inline;overflow:visible;opacity:1;vector-effect:none;enable-background:accumulate;stop-color:#000000;stop-opacity:1"
       d="m -54.41425,0 c 6.117003,0 11.11596,-4.8376743 11.378117,-10.890808 h 2.806547 c 0.243666,1.6669774 1.686425,2.9553751 3.418913,2.9553751 1.732489,0 3.175247,-1.2883977 3.418913,-2.9553751 h 2.836519 c 0.239181,1.3954081 1.46101,2.4649658 2.922302,2.4649657 1.461292,0 2.683638,-1.0695576 2.922819,-2.4649657 h 2.826701 c 0.251925,2.5219411 2.38862,4.4999836 4.975407,4.4999836 2.586786,0 4.722966,-1.9780425 4.97489,-4.4999836 h 2.8101646 c 0.2503509,2.2869733 2.1967443,4.0762369 4.5485596,4.0762369 C -2.0536671,-6.8145711 0,-8.8697884 0,-11.390519 c 0,-2.520731 -2.0536671,-4.574398 -4.5743978,-4.574398 -2.3518067,0 -4.2981972,1.787436 -4.5485596,4.07417 h -2.8101646 c -0.251924,-2.521941 -2.388104,-4.499984 -4.97489,-4.499984 -2.586787,0 -4.723482,1.978043 -4.975407,4.499984 h -2.826701 c -0.239181,-1.395408 -1.461527,-2.464966 -2.922819,-2.464966 -1.461292,0 -2.683121,1.069558 -2.922302,2.464966 h -2.836519 c -0.243666,-1.666977 -1.686424,-2.954858 -3.418913,-2.954858 -1.732488,0 -3.175247,1.287881 -3.418913,2.954858 h -2.806547 c -0.262159,-6.053034 -5.261115,-10.888741 -11.378117,-10.888741 -6.117002,0 -11.117409,4.835707 -11.379667,10.888741 H -104.2541 v 0.999939 h 38.460183 C -65.531661,-4.8376743 -60.531254,0 -54.41425,0 Z m 0,-0.99993896 c -5.576462,0 -10.118342,-4.37953274 -10.378694,-9.89086904 h 10.378694 10.377145 c -0.260245,5.5113363 -4.800683,9.89086904 -10.377145,9.89086904 z m 37.506238,-6.39082434 c -2.045677,0 -3.724473,-1.5224356 -3.969267,-3.5000447 h 7.938534 c -0.244794,1.9776091 -1.92359,3.5000447 -3.969267,3.5000447 z m 12.3336142,-0.4237468 c -1.8105452,0 -3.2993859,-1.3341433 -3.5413859,-3.0762979 h 3.5413859 v -0.999939 h -3.5413859 c 0.2420175,-1.741855 1.7308547,-3.074231 3.5413859,-3.074231 1.9802906,0 3.57445884,1.594168 3.57445884,3.574459 0,1.9802905 -1.59416824,3.5760089 -3.57445884,3.5760089 z M -36.810673,-8.9353719 c -1.190309,0 -2.175273,-0.8356586 -2.404504,-1.9554361 h 4.809525 c -0.229231,1.1197775 -1.214712,1.9554361 -2.405021,1.9554361 z m 9.177734,-0.4904093 c -0.918156,0 -1.682452,-0.6187808 -1.901692,-1.4650268 h 3.803385 c -0.219241,0.846246 -0.983537,1.4650268 -1.901693,1.4650268 z m 14.694194,-2.4649658 h -7.938534 c 0.244794,-1.977609 1.92359,-3.500045 3.969267,-3.500045 2.045677,0 3.724473,1.522436 3.969267,3.500045 z m -12.792501,0 h -3.803385 c 0.21924,-0.846247 0.983536,-1.46451 1.901692,-1.46451 0.918156,0 1.682452,0.618263 1.901693,1.46451 z m -8.674406,0 h -4.809525 c 0.229231,-1.119778 1.214195,-1.95492 2.404504,-1.95492 1.190309,0 2.17579,0.835142 2.405021,1.95492 z m -9.631453,0 H -54.41425 -64.792944 c 0.260354,-5.511227 4.802234,-9.888802 10.378694,-9.888802 5.57646,0 10.116897,4.377575 10.377145,9.888802 z"
       transform="scale(-1)" /><path
       style="font-size:48px;line-height:0;font-family:Futura;-inkscape-font-specification:'Futura, Normal';white-space:pre;stroke-width:0.755906"
       d="m 440.21484,608.50834 v 6.46875 q -4.73437,-3.96094 -9.79687,-3.96094 -5.57813,0 -9.39844,4.00781 -3.84375,3.98438 -3.84375,9.75 0,5.69531 3.84375,9.60938 3.84375,3.91406 9.42188,3.91406 2.88281,0 4.89843,-0.9375 1.125,-0.46875 2.32032,-1.26563 1.21875,-0.79687 2.55468,-1.92187 v 6.58594 q -4.6875,2.64843 -9.84375,2.64843 -7.75781,0 -13.24218,-5.41406 -5.46094,-5.46094 -5.46094,-13.17187 0,-6.91407 4.57031,-12.32813 5.625,-6.63281 14.55469,-6.63281 4.875,0 9.42187,2.64844 z m 22.71094,11.41406 h 5.29688 v 22.82812 h -5.29688 v -2.39062 q -3.25781,3.04687 -7.00781,3.04687 -4.73438,0 -7.82813,-3.42187 -3.07031,-3.49219 -3.07031,-8.71875 0,-5.13281 3.07031,-8.55469 3.07032,-3.42187 7.6875,-3.42187 3.98438,0 7.14844,3.28125 z m -12.51562,11.34375 q 0,3.28125 1.75781,5.34375 1.80469,2.08594 4.54687,2.08594 2.92969,0 4.73438,-2.01563 1.80469,-2.08594 1.80469,-5.29687 0,-3.21094 -1.80469,-5.29688 -1.80469,-2.03906 -4.6875,-2.03906 -2.71875,0 -4.54688,2.0625 -1.80468,2.08594 -1.80468,5.15625 z m 29.74218,-28.10156 v 39.58593 h -5.27343 v -39.58593 z m 11.95313,0 v 39.58593 h -5.27344 v -39.58593 z m 11.95312,16.75781 v 22.82812 h -5.27343 V 619.9224 Z m -6.07031,-9.49219 q 0,-1.38281 1.00781,-2.39062 1.00782,-1.00782 2.41407,-1.00782 1.42968,0 2.4375,1.00782 1.00781,0.98437 1.00781,2.41406 0,1.42969 -1.00781,2.4375 -0.98438,1.00781 -2.41407,1.00781 -1.42968,0 -2.4375,-1.00781 -1.00781,-1.00781 -1.00781,-2.46094 z m 26.01563,13.38281 -4.35938,2.32032 q -1.03125,-2.10938 -2.55469,-2.10938 -0.72656,0 -1.24218,0.49219 -0.51563,0.46875 -0.51563,1.21875 0,1.3125 3.04688,2.60156 4.19531,1.80469 5.64843,3.32813 1.45313,1.52343 1.45313,4.10156 0,3.30469 -2.4375,5.53125 -2.36719,2.10937 -5.71875,2.10937 -5.74219,0 -8.13281,-5.60156 l 4.5,-2.08594 q 0.9375,1.64063 1.42968,2.08594 0.96094,0.89063 2.29688,0.89063 2.67187,0 2.67187,-2.4375 0,-1.40625 -2.0625,-2.625 -0.79687,-0.39844 -1.59375,-0.77344 -0.79687,-0.375 -1.61718,-0.77344 -2.29688,-1.125 -3.23438,-2.25 -1.19531,-1.42969 -1.19531,-3.67969 0,-2.97656 2.03906,-4.92187 2.08594,-1.94531 5.0625,-1.94531 4.38281,0 6.51563,4.52343 z m 11.64843,1.03125 v 17.90625 h -5.27343 v -17.90625 h -2.25 v -4.92187 h 2.25 v -8.36719 h 5.27343 v 8.36719 h 4.10157 v 4.92187 z m 6.9375,6.32813 q 0,-4.94531 3.53907,-8.41406 3.53906,-3.46875 8.625,-3.46875 5.10937,0 8.67187,3.49218 3.51563,3.49219 3.51563,8.57813 0,5.13281 -3.53907,8.60156 -3.5625,3.44531 -8.74218,3.44531 -5.13282,0 -8.60157,-3.51562 -3.46875,-3.46875 -3.46875,-8.71875 z m 5.39063,0.0937 q 0,3.42187 1.82812,5.41406 1.875,2.01563 4.94532,2.01563 3.09375,0 4.94531,-1.99219 1.85156,-1.99219 1.85156,-5.32031 0,-3.32813 -1.85156,-5.32032 -1.875,-2.01562 -4.94531,-2.01562 -3.02344,0 -4.89844,2.01562 -1.875,2.01563 -1.875,5.20313 z"
       id="text12"
       transform="matrix(0.19733817,0,0,0.19733817,-11.860896,-117.72758)"
       aria-label="Callisto" /><path
       d="m 442.83008,688.24076 v 31.05469 h 10.64062 v 5.13281 h -16.10156 v -36.1875 z m 31.64062,13.35937 h 5.29688 v 22.82813 h -5.29688 v -2.39063 q -3.25781,3.04688 -7.00781,3.04688 -4.73437,0 -7.82812,-3.42188 -3.07032,-3.49218 -3.07032,-8.71875 0,-5.13281 3.07032,-8.55468 3.07031,-3.42188 7.6875,-3.42188 3.98437,0 7.14843,3.28125 z m -12.51562,11.34375 q 0,3.28125 1.75781,5.34375 1.80469,2.08594 4.54688,2.08594 2.92968,0 4.73437,-2.01562 1.80469,-2.08594 1.80469,-5.29688 0,-3.21094 -1.80469,-5.29687 -1.80469,-2.03907 -4.6875,-2.03907 -2.71875,0 -4.54687,2.0625 -1.80469,2.08594 -1.80469,5.15625 z m 29.74219,-28.10156 v 19.40625 q 3.16406,-3.28125 7.17187,-3.28125 4.61719,0 7.6875,3.44531 3.07031,3.42188 3.07031,8.53125 0,5.27344 -3.09375,8.71875 -3.07031,3.42188 -7.75781,3.42188 -3.96094,0 -7.07812,-3.04688 v 2.39063 h -5.27344 v -39.58594 z m 12.53906,28.33594 q 0,-3.28125 -1.78125,-5.34375 -1.80469,-2.10938 -4.52344,-2.10938 -2.90625,0 -4.73437,2.03907 -1.80469,2.01562 -1.80469,5.25 0,3.32812 1.78125,5.32031 1.78125,2.03906 4.6875,2.03906 2.74219,0 4.54687,-2.03906 1.82813,-2.0625 1.82813,-5.15625 z m 24.23437,-7.6875 -4.35937,2.32031 q -1.03125,-2.10937 -2.55469,-2.10937 -0.72656,0 -1.24219,0.49218 -0.51562,0.46875 -0.51562,1.21875 0,1.3125 3.04687,2.60157 4.19532,1.80468 5.64844,3.32812 1.45313,1.52344 1.45313,4.10156 0,3.30469 -2.4375,5.53125 -2.36719,2.10938 -5.71875,2.10938 -5.74219,0 -8.13282,-5.60156 l 4.5,-2.08594 q 0.9375,1.64062 1.42969,2.08594 0.96094,0.89062 2.29688,0.89062 2.67187,0 2.67187,-2.4375 0,-1.40625 -2.0625,-2.625 -0.79687,-0.39844 -1.59375,-0.77344 -0.79687,-0.375 -1.61719,-0.77343 -2.29687,-1.125 -3.23437,-2.25 -1.19531,-1.42969 -1.19531,-3.67969 0,-2.97656 2.03906,-4.92188 2.08594,-1.94531 5.0625,-1.94531 4.38281,0 6.51562,4.52344 z"
       id="text13"
       style="font-size:48px;line-height:0;font-family:Futura;-inkscape-font-specification:'Futura, Normal';white-space:pre;stroke-width:0.755906"
       transform="matrix(0.19733817,0,0,0.19733817,-0.32497445,-121.60674)"
       aria-label="Labs" /></g></svg>
